<?xml version="1.0" encoding="UTF-8" standalone="no"?>
<!-- Created with Inkscape (http://www.inkscape.org/) -->
<svg
   xmlns:dc="http://purl.org/dc/elements/1.1/"
   xmlns:cc="http://creativecommons.org/ns#"
   xmlns:rdf="http://www.w3.org/1999/02/22-rdf-syntax-ns#"
   xmlns:svg="http://www.w3.org/2000/svg"
   xmlns="http://www.w3.org/2000/svg"
   xmlns:sodipodi="http://sodipodi.sourceforge.net/DTD/sodipodi-0.dtd"
   xmlns:inkscape="http://www.inkscape.org/namespaces/inkscape"
   id="svg3667"
   sodipodi:version="0.32"
   inkscape:version="0.46"
   width="438.89624"
   height="303.02719"
   xml:space="preserve"
   sodipodi:docname="spirHeltraj17.svg"
   version="1.0"
   inkscape:output_extension="org.inkscape.output.svg.inkscape"><metadata
     id="metadata3672"><rdf:RDF><cc:Work
         rdf:about=""><dc:format>image/svg+xml</dc:format><dc:type
           rdf:resource="http://purl.org/dc/dcmitype/StillImage" /></cc:Work></rdf:RDF></metadata><defs
     id="defs3670"><inkscape:perspective
       sodipodi:type="inkscape:persp3d"
       inkscape:vp_x="0 : 526.18109 : 1"
       inkscape:vp_y="0 : 1000 : 0"
       inkscape:vp_z="744.09448 : 526.18109 : 1"
       inkscape:persp3d-origin="372.04724 : 350.78739 : 1"
       id="perspective3674" /></defs><sodipodi:namedview
     inkscape:window-height="705"
     inkscape:window-width="1366"
     inkscape:pageshadow="2"
     inkscape:pageopacity="0.0"
     guidetolerance="10.0"
     gridtolerance="10.0"
     objecttolerance="10.0"
     borderopacity="1.0"
     bordercolor="#666666"
     pagecolor="#ffffff"
     id="base"
     showgrid="false"
     inkscape:zoom="1.6236167"
     inkscape:cx="219.44812"
     inkscape:cy="151.5136"
     inkscape:window-x="-4"
     inkscape:window-y="-4"
     inkscape:current-layer="g3678" /><g
     id="g3676"
     inkscape:groupmode="layer"
     inkscape:label="spirHeltraj17"
     transform="matrix(1.25,0,0,-1.25,0,303.02969)"><path
       d="M 249.4968,102.74755 C 249.4968,101.07012 248.13868,99.709085 246.46125,99.709085 C 244.78382,99.709085 243.42278,101.07012 243.42278,102.74755 C 243.42278,104.42498 244.78382,105.78602 246.46125,105.78602 C 248.13868,105.78602 249.4968,104.42498 249.4968,102.74755"
       style="fill:#000000;fill-opacity:1;fill-rule:nonzero;stroke:none;stroke-linecap:round;stroke-linejoin:round"
       id="path4467" /><g
       id="g3678"><g
         id="g3688"
         transform="translate(0,268.0838)"><path
           d="M 166.473,-249.082 L 33.555,-162.5 L 208.223,-95.5 L 341.141,-182.082 L 166.473,-249.082"
           style="fill:none;stroke:#ffffff;stroke-width:0.5;stroke-linecap:butt;stroke-linejoin:round;stroke-miterlimit:10;stroke-dasharray:none;stroke-opacity:1"
           id="path3690" /></g><g
         id="g3698"
         transform="translate(0,268.0838)"><path
           d="M 166.473,-249.082 L 341.141,-182.082"
           style="fill:none;stroke:#000000;stroke-width:0.5;stroke-linecap:butt;stroke-linejoin:round;stroke-miterlimit:10;stroke-dasharray:none;stroke-opacity:1"
           id="path3700" /></g><g
         id="g3702"
         transform="translate(0,268.0838)"><path
           d="M 166.473,-249.082 L 33.555,-162.5"
           style="fill:none;stroke:#000000;stroke-width:0.5;stroke-linecap:butt;stroke-linejoin:round;stroke-miterlimit:10;stroke-dasharray:none;stroke-opacity:1"
           id="path3704" /></g><g
         id="g3706"
         transform="translate(0,268.0838)"><path
           d="M 33.555,-162.5 L 33.555,-67.25"
           style="fill:none;stroke:#000000;stroke-width:0.5;stroke-linecap:butt;stroke-linejoin:round;stroke-miterlimit:10;stroke-dasharray:none;stroke-opacity:1"
           id="path3708" /></g><g
         id="g3710"
         transform="translate(0,268.0838)"><path
           d="M 166.473,-249.082 L 170.391,-251.668"
           style="fill:none;stroke:#000000;stroke-width:0.5;stroke-linecap:butt;stroke-linejoin:round;stroke-miterlimit:10;stroke-dasharray:none;stroke-opacity:1"
           id="path3712" /></g><path
         d="M 178.09,8.705 L 173.363,8.705 L 173.363,9.525 L 178.09,9.525 L 178.09,8.705 z"
         style="fill:#000000;fill-opacity:1;fill-rule:nonzero;stroke:none"
         id="path3714" /><path
         d="M 182.371,5.584 L 181.492,5.584 L 181.492,11.185 C 181.281,10.982 181.004,10.779 180.66,10.58 C 180.316,10.377 180.008,10.224 179.734,10.123 L 179.734,10.974 C 180.227,11.205 180.656,11.486 181.023,11.814 C 181.391,12.142 181.652,12.463 181.805,12.771 L 182.371,12.771 L 182.371,5.584 z"
         style="fill:#000000;fill-opacity:1;fill-rule:nonzero;stroke:none"
         id="path3716" /><g
         id="g3718"
         transform="translate(0,268.0838)"><path
           d="M 210.141,-232.332 L 214.055,-234.918"
           style="fill:none;stroke:#000000;stroke-width:0.5;stroke-linecap:butt;stroke-linejoin:round;stroke-miterlimit:10;stroke-dasharray:none;stroke-opacity:1"
           id="path3720" /></g><path
         d="M 221.758,25.455 L 217.031,25.455 L 217.031,26.275 L 221.758,26.275 L 221.758,25.455 z"
         style="fill:#000000;fill-opacity:1;fill-rule:nonzero;stroke:none"
         id="path3722" /><path
         d="M 222.727,25.865 C 222.727,26.709 222.816,27.392 222.988,27.908 C 223.164,28.424 223.422,28.822 223.766,29.099 C 224.109,29.381 224.539,29.521 225.063,29.521 C 225.445,29.521 225.781,29.443 226.074,29.291 C 226.363,29.135 226.602,28.912 226.789,28.619 C 226.98,28.33 227.129,27.974 227.234,27.556 C 227.344,27.138 227.395,26.572 227.395,25.865 C 227.395,25.025 227.309,24.346 227.137,23.83 C 226.965,23.314 226.707,22.916 226.363,22.635 C 226.02,22.353 225.586,22.213 225.063,22.213 C 224.371,22.213 223.828,22.459 223.438,22.955 C 222.965,23.549 222.727,24.521 222.727,25.865 L 222.727,25.865 z M 223.633,25.865 C 223.633,24.689 223.77,23.908 224.043,23.517 C 224.32,23.127 224.656,22.935 225.063,22.935 C 225.465,22.935 225.805,23.131 226.078,23.521 C 226.355,23.912 226.492,24.693 226.492,25.865 C 226.492,27.041 226.355,27.826 226.078,28.213 C 225.805,28.599 225.461,28.795 225.051,28.795 C 224.648,28.795 224.324,28.623 224.086,28.279 C 223.781,27.846 223.633,27.041 223.633,25.865 L 223.633,25.865 z"
         style="fill:#000000;fill-opacity:1;fill-rule:nonzero;stroke:none"
         id="path3724" /><path
         d="M 228.781,22.334 L 228.781,23.334 L 229.781,23.334 L 229.781,22.334 L 228.781,22.334 z"
         style="fill:#000000;fill-opacity:1;fill-rule:nonzero;stroke:none"
         id="path3726" /><path
         d="M 231.066,24.209 L 231.992,24.287 C 232.059,23.838 232.219,23.498 232.465,23.275 C 232.715,23.049 233.016,22.935 233.367,22.935 C 233.789,22.935 234.148,23.096 234.441,23.412 C 234.734,23.732 234.883,24.154 234.883,24.681 C 234.883,25.185 234.742,25.58 234.457,25.869 C 234.176,26.158 233.809,26.303 233.352,26.303 C 233.07,26.303 232.813,26.24 232.586,26.111 C 232.359,25.982 232.18,25.814 232.051,25.611 L 231.223,25.717 L 231.918,29.392 L 235.477,29.392 L 235.477,28.553 L 232.621,28.553 L 232.234,26.631 C 232.664,26.931 233.113,27.08 233.586,27.08 C 234.211,27.08 234.738,26.865 235.168,26.431 C 235.598,25.998 235.813,25.439 235.813,24.76 C 235.813,24.111 235.625,23.553 235.246,23.08 C 234.789,22.502 234.16,22.213 233.367,22.213 C 232.715,22.213 232.184,22.392 231.773,22.76 C 231.363,23.123 231.125,23.607 231.066,24.209 L 231.066,24.209 z"
         style="fill:#000000;fill-opacity:1;fill-rule:nonzero;stroke:none"
         id="path3728" /><g
         id="g3730"
         transform="translate(0,268.0838)"><path
           d="M 253.805,-215.582 L 257.723,-218.168"
           style="fill:none;stroke:#000000;stroke-width:0.5;stroke-linecap:butt;stroke-linejoin:round;stroke-miterlimit:10;stroke-dasharray:none;stroke-opacity:1"
           id="path3732" /></g><path
         d="M 260.555,42.615 C 260.555,43.459 260.641,44.142 260.816,44.658 C 260.988,45.174 261.25,45.572 261.594,45.849 C 261.938,46.131 262.367,46.271 262.891,46.271 C 263.273,46.271 263.609,46.193 263.898,46.041 C 264.188,45.885 264.43,45.662 264.617,45.369 C 264.805,45.08 264.953,44.724 265.063,44.306 C 265.168,43.888 265.223,43.322 265.223,42.615 C 265.223,41.775 265.137,41.096 264.965,40.58 C 264.793,40.064 264.535,39.666 264.191,39.385 C 263.848,39.103 263.414,38.963 262.891,38.963 C 262.199,38.963 261.656,39.209 261.262,39.705 C 260.789,40.299 260.555,41.271 260.555,42.615 L 260.555,42.615 z M 261.457,42.615 C 261.457,41.439 261.594,40.658 261.871,40.267 C 262.145,39.877 262.484,39.685 262.891,39.685 C 263.293,39.685 263.633,39.881 263.906,40.271 C 264.184,40.662 264.32,41.443 264.32,42.615 C 264.32,43.791 264.184,44.576 263.906,44.963 C 263.633,45.349 263.289,45.545 262.879,45.545 C 262.477,45.545 262.152,45.373 261.914,45.029 C 261.609,44.596 261.457,43.791 261.457,42.615 L 261.457,42.615 z"
         style="fill:#000000;fill-opacity:1;fill-rule:nonzero;stroke:none"
         id="path3734" /><g
         id="g3736"
         transform="translate(0,268.0838)"><path
           d="M 297.473,-198.832 L 301.391,-201.418"
           style="fill:none;stroke:#000000;stroke-width:0.5;stroke-linecap:butt;stroke-linejoin:round;stroke-miterlimit:10;stroke-dasharray:none;stroke-opacity:1"
           id="path3738" /></g><path
         d="M 304.219,59.365 C 304.219,60.209 304.309,60.892 304.48,61.408 C 304.656,61.924 304.914,62.322 305.258,62.599 C 305.602,62.881 306.035,63.021 306.555,63.021 C 306.938,63.021 307.277,62.943 307.566,62.791 C 307.855,62.635 308.094,62.412 308.281,62.119 C 308.473,61.83 308.621,61.474 308.727,61.056 C 308.836,60.638 308.887,60.072 308.887,59.365 C 308.887,58.525 308.801,57.846 308.629,57.33 C 308.457,56.814 308.199,56.416 307.855,56.135 C 307.512,55.853 307.078,55.713 306.555,55.713 C 305.863,55.713 305.324,55.959 304.93,56.455 C 304.457,57.049 304.219,58.021 304.219,59.365 L 304.219,59.365 z M 305.125,59.365 C 305.125,58.189 305.262,57.408 305.535,57.017 C 305.813,56.627 306.152,56.435 306.555,56.435 C 306.957,56.435 307.297,56.631 307.574,57.021 C 307.848,57.412 307.984,58.193 307.984,59.365 C 307.984,60.541 307.848,61.326 307.574,61.713 C 307.297,62.099 306.953,62.295 306.543,62.295 C 306.141,62.295 305.82,62.123 305.578,61.779 C 305.273,61.346 305.125,60.541 305.125,59.365 L 305.125,59.365 z"
         style="fill:#000000;fill-opacity:1;fill-rule:nonzero;stroke:none"
         id="path3740" /><path
         d="M 310.273,55.834 L 310.273,56.834 L 311.273,56.834 L 311.273,55.834 L 310.273,55.834 z"
         style="fill:#000000;fill-opacity:1;fill-rule:nonzero;stroke:none"
         id="path3742" /><path
         d="M 312.563,57.709 L 313.484,57.787 C 313.551,57.338 313.711,56.998 313.961,56.775 C 314.207,56.549 314.508,56.435 314.859,56.435 C 315.285,56.435 315.641,56.596 315.934,56.912 C 316.227,57.232 316.375,57.654 316.375,58.181 C 316.375,58.685 316.234,59.08 315.953,59.369 C 315.672,59.658 315.301,59.803 314.848,59.803 C 314.563,59.803 314.309,59.74 314.078,59.611 C 313.852,59.482 313.672,59.314 313.543,59.111 L 312.719,59.217 L 313.41,62.892 L 316.969,62.892 L 316.969,62.053 L 314.113,62.053 L 313.727,60.131 C 314.156,60.431 314.609,60.58 315.082,60.58 C 315.707,60.58 316.234,60.365 316.664,59.931 C 317.094,59.498 317.309,58.939 317.309,58.26 C 317.309,57.611 317.117,57.053 316.742,56.58 C 316.281,56.002 315.656,55.713 314.859,55.713 C 314.211,55.713 313.68,55.892 313.266,56.26 C 312.855,56.623 312.621,57.107 312.563,57.709 L 312.563,57.709 z"
         style="fill:#000000;fill-opacity:1;fill-rule:nonzero;stroke:none"
         id="path3744" /><g
         id="g3746"
         transform="translate(0,268.0838)"><path
           d="M 341.141,-182.082 L 345.055,-184.668"
           style="fill:none;stroke:#000000;stroke-width:0.5;stroke-linecap:butt;stroke-linejoin:round;stroke-miterlimit:10;stroke-dasharray:none;stroke-opacity:1"
           id="path3748" /></g><path
         d="M 351.117,72.584 L 350.238,72.584 L 350.238,78.185 C 350.023,77.982 349.746,77.779 349.402,77.58 C 349.059,77.377 348.754,77.224 348.48,77.123 L 348.48,77.974 C 348.969,78.205 349.398,78.486 349.77,78.814 C 350.137,79.142 350.395,79.463 350.551,79.771 L 351.117,79.771 L 351.117,72.584 z"
         style="fill:#000000;fill-opacity:1;fill-rule:nonzero;stroke:none"
         id="path3750" /><g
         id="g3752"
         transform="translate(0,268.0838)"><path
           d="M 133.305,-227.5 L 128.973,-229.168"
           style="fill:none;stroke:#000000;stroke-width:0.5;stroke-linecap:butt;stroke-linejoin:round;stroke-miterlimit:10;stroke-dasharray:none;stroke-opacity:1"
           id="path3754" /></g><path
         d="M 111.922,31.787 L 107.195,31.787 L 107.195,32.607 L 111.922,32.607 L 111.922,31.787 z"
         style="fill:#000000;fill-opacity:1;fill-rule:nonzero;stroke:none"
         id="path3756" /><path
         d="M 112.895,32.197 C 112.895,33.045 112.98,33.724 113.156,34.24 C 113.328,34.756 113.59,35.154 113.934,35.435 C 114.277,35.713 114.707,35.853 115.23,35.853 C 115.613,35.853 115.949,35.775 116.238,35.623 C 116.527,35.467 116.77,35.244 116.957,34.955 C 117.145,34.662 117.293,34.306 117.402,33.888 C 117.508,33.471 117.563,32.908 117.563,32.197 C 117.563,31.357 117.477,30.678 117.305,30.162 C 117.133,29.646 116.875,29.248 116.531,28.967 C 116.188,28.685 115.754,28.545 115.23,28.545 C 114.539,28.545 113.996,28.791 113.602,29.287 C 113.129,29.881 112.895,30.853 112.895,32.197 L 112.895,32.197 z M 113.797,32.197 C 113.797,31.021 113.938,30.24 114.211,29.849 C 114.484,29.463 114.824,29.267 115.23,29.267 C 115.633,29.267 115.973,29.463 116.246,29.853 C 116.523,30.244 116.66,31.025 116.66,32.197 C 116.66,33.377 116.523,34.158 116.246,34.545 C 115.973,34.931 115.629,35.127 115.219,35.127 C 114.816,35.127 114.492,34.955 114.254,34.615 C 113.949,34.178 113.797,33.373 113.797,32.197 L 113.797,32.197 z"
         style="fill:#000000;fill-opacity:1;fill-rule:nonzero;stroke:none"
         id="path3758" /><path
         d="M 118.949,28.666 L 118.949,29.666 L 119.949,29.666 L 119.949,28.666 L 118.949,28.666 z"
         style="fill:#000000;fill-opacity:1;fill-rule:nonzero;stroke:none"
         id="path3760" /><path
         d="M 121.234,30.541 L 122.156,30.619 C 122.227,30.17 122.383,29.834 122.633,29.607 C 122.883,29.381 123.184,29.267 123.535,29.267 C 123.957,29.267 124.316,29.428 124.609,29.744 C 124.902,30.064 125.047,30.486 125.047,31.013 C 125.047,31.517 124.906,31.912 124.625,32.201 C 124.344,32.49 123.977,32.635 123.52,32.635 C 123.238,32.635 122.98,32.572 122.754,32.443 C 122.523,32.314 122.348,32.146 122.215,31.943 L 121.391,32.049 L 122.086,35.728 L 125.645,35.728 L 125.645,34.888 L 122.789,34.888 L 122.402,32.963 C 122.832,33.263 123.281,33.412 123.754,33.412 C 124.379,33.412 124.906,33.197 125.336,32.763 C 125.766,32.33 125.98,31.775 125.98,31.092 C 125.98,30.447 125.793,29.885 125.414,29.412 C 124.957,28.834 124.328,28.545 123.535,28.545 C 122.883,28.545 122.352,28.728 121.941,29.092 C 121.527,29.455 121.293,29.939 121.234,30.541 L 121.234,30.541 z"
         style="fill:#000000;fill-opacity:1;fill-rule:nonzero;stroke:none"
         id="path3762" /><g
         id="g3764"
         transform="translate(0,268.0838)"><path
           d="M 99.891,-205.668 L 95.473,-207.332"
           style="fill:none;stroke:#000000;stroke-width:0.5;stroke-linecap:butt;stroke-linejoin:round;stroke-miterlimit:10;stroke-dasharray:none;stroke-opacity:1"
           id="path3766" /></g><path
         d="M 87.723,53.947 C 87.723,54.795 87.809,55.474 87.98,55.99 C 88.156,56.506 88.414,56.904 88.758,57.185 C 89.102,57.463 89.535,57.603 90.055,57.603 C 90.438,57.603 90.777,57.525 91.066,57.373 C 91.355,57.217 91.594,56.994 91.785,56.705 C 91.973,56.412 92.121,56.056 92.227,55.638 C 92.336,55.221 92.391,54.658 92.391,53.947 C 92.391,53.107 92.301,52.428 92.129,51.912 C 91.957,51.396 91.699,50.998 91.355,50.717 C 91.012,50.435 90.578,50.295 90.055,50.295 C 89.363,50.295 88.824,50.541 88.43,51.037 C 87.957,51.631 87.723,52.603 87.723,53.947 L 87.723,53.947 z M 88.625,53.947 C 88.625,52.771 88.762,51.99 89.035,51.599 C 89.313,51.213 89.652,51.017 90.055,51.017 C 90.457,51.017 90.797,51.213 91.074,51.603 C 91.348,51.994 91.484,52.775 91.484,53.947 C 91.484,55.127 91.348,55.908 91.074,56.295 C 90.797,56.681 90.457,56.877 90.047,56.877 C 89.641,56.877 89.32,56.705 89.078,56.365 C 88.777,55.928 88.625,55.123 88.625,53.947 L 88.625,53.947 z"
         style="fill:#000000;fill-opacity:1;fill-rule:nonzero;stroke:none"
         id="path3768" /><g
         id="g3770"
         transform="translate(0,268.0838)"><path
           d="M 66.391,-183.832 L 61.973,-185.5"
           style="fill:none;stroke:#000000;stroke-width:0.5;stroke-linecap:butt;stroke-linejoin:round;stroke-miterlimit:10;stroke-dasharray:none;stroke-opacity:1"
           id="path3772" /></g><path
         d="M 45.887,75.779 C 45.887,76.627 45.977,77.306 46.148,77.822 C 46.324,78.342 46.582,78.736 46.926,79.017 C 47.27,79.299 47.699,79.439 48.223,79.439 C 48.605,79.439 48.941,79.361 49.234,79.205 C 49.523,79.053 49.762,78.83 49.949,78.537 C 50.141,78.244 50.285,77.892 50.395,77.471 C 50.5,77.053 50.555,76.49 50.555,75.779 C 50.555,74.939 50.469,74.263 50.297,73.748 C 50.125,73.232 49.867,72.834 49.523,72.549 C 49.18,72.267 48.746,72.127 48.223,72.127 C 47.531,72.127 46.988,72.377 46.594,72.869 C 46.125,73.467 45.887,74.435 45.887,75.779 L 45.887,75.779 z M 46.789,75.779 C 46.789,74.603 46.93,73.822 47.203,73.435 C 47.48,73.045 47.816,72.849 48.223,72.849 C 48.625,72.849 48.965,73.045 49.238,73.435 C 49.516,73.826 49.652,74.607 49.652,75.779 C 49.652,76.959 49.516,77.74 49.238,78.131 C 48.965,78.517 48.621,78.709 48.211,78.709 C 47.809,78.709 47.484,78.541 47.246,78.197 C 46.941,77.76 46.789,76.955 46.789,75.779 L 46.789,75.779 z"
         style="fill:#000000;fill-opacity:1;fill-rule:nonzero;stroke:none"
         id="path3774" /><path
         d="M 51.941,72.252 L 51.941,73.252 L 52.941,73.252 L 52.941,72.252 L 51.941,72.252 z"
         style="fill:#000000;fill-opacity:1;fill-rule:nonzero;stroke:none"
         id="path3776" /><path
         d="M 54.227,74.127 L 55.152,74.205 C 55.219,73.756 55.379,73.416 55.625,73.189 C 55.875,72.963 56.176,72.849 56.527,72.849 C 56.949,72.849 57.309,73.01 57.602,73.33 C 57.895,73.646 58.043,74.072 58.043,74.599 C 58.043,75.099 57.898,75.494 57.617,75.787 C 57.336,76.076 56.969,76.221 56.512,76.221 C 56.23,76.221 55.973,76.154 55.746,76.025 C 55.52,75.9 55.34,75.732 55.211,75.525 L 54.383,75.635 L 55.078,79.31 L 58.637,79.31 L 58.637,78.471 L 55.781,78.471 L 55.395,76.549 C 55.824,76.846 56.273,76.998 56.746,76.998 C 57.371,76.998 57.898,76.779 58.328,76.346 C 58.758,75.912 58.973,75.357 58.973,74.678 C 58.973,74.029 58.785,73.471 58.406,72.998 C 57.949,72.416 57.32,72.127 56.527,72.127 C 55.875,72.127 55.344,72.31 54.934,72.674 C 54.52,73.041 54.285,73.521 54.227,74.127 L 54.227,74.127 z"
         style="fill:#000000;fill-opacity:1;fill-rule:nonzero;stroke:none"
         id="path3778" /><g
         id="g3780"
         transform="translate(0,268.0838)"><path
           d="M 33.555,-143.418 L 29.641,-140.918"
           style="fill:none;stroke:#000000;stroke-width:0.5;stroke-linecap:butt;stroke-linejoin:round;stroke-miterlimit:10;stroke-dasharray:none;stroke-opacity:1"
           id="path3782" /></g><path
         d="M 13.887,128.615 C 13.887,129.459 13.977,130.142 14.148,130.658 C 14.324,131.174 14.582,131.572 14.926,131.849 C 15.27,132.131 15.699,132.271 16.223,132.271 C 16.605,132.271 16.941,132.193 17.234,132.041 C 17.523,131.885 17.762,131.662 17.949,131.369 C 18.141,131.08 18.285,130.724 18.395,130.306 C 18.5,129.888 18.555,129.322 18.555,128.615 C 18.555,127.775 18.469,127.096 18.297,126.58 C 18.125,126.064 17.867,125.666 17.523,125.385 C 17.18,125.103 16.746,124.963 16.223,124.963 C 15.531,124.963 14.988,125.209 14.594,125.705 C 14.125,126.299 13.887,127.271 13.887,128.615 L 13.887,128.615 z M 14.789,128.615 C 14.789,127.439 14.93,126.658 15.203,126.267 C 15.48,125.881 15.816,125.685 16.223,125.685 C 16.625,125.685 16.965,125.881 17.238,126.271 C 17.516,126.662 17.652,127.443 17.652,128.615 C 17.652,129.791 17.516,130.576 17.238,130.963 C 16.965,131.349 16.621,131.545 16.211,131.545 C 15.809,131.545 15.484,131.373 15.246,131.029 C 14.941,130.596 14.789,129.791 14.789,128.615 L 14.789,128.615 z"
         style="fill:#000000;fill-opacity:1;fill-rule:nonzero;stroke:none"
         id="path3784" /><path
         d="M 19.941,125.084 L 19.941,126.084 L 20.941,126.084 L 20.941,125.084 L 19.941,125.084 z"
         style="fill:#000000;fill-opacity:1;fill-rule:nonzero;stroke:none"
         id="path3786" /><path
         d="M 26.848,125.928 L 26.848,125.084 L 22.117,125.084 C 22.109,125.295 22.145,125.498 22.219,125.693 C 22.34,126.017 22.531,126.334 22.797,126.646 C 23.063,126.959 23.445,127.318 23.945,127.732 C 24.723,128.369 25.25,128.873 25.523,129.248 C 25.797,129.619 25.934,129.971 25.934,130.303 C 25.934,130.65 25.809,130.947 25.559,131.185 C 25.313,131.424 24.988,131.545 24.586,131.545 C 24.164,131.545 23.824,131.416 23.57,131.162 C 23.316,130.908 23.188,130.556 23.184,130.107 L 22.281,130.201 C 22.344,130.873 22.574,131.388 22.98,131.74 C 23.383,132.096 23.926,132.271 24.605,132.271 C 25.293,132.271 25.836,132.08 26.238,131.701 C 26.637,131.318 26.836,130.846 26.836,130.283 C 26.836,129.998 26.777,129.717 26.66,129.439 C 26.543,129.162 26.348,128.873 26.078,128.564 C 25.805,128.26 25.355,127.838 24.723,127.306 C 24.195,126.861 23.855,126.564 23.707,126.404 C 23.559,126.248 23.434,126.088 23.336,125.928 L 26.848,125.928 z"
         style="fill:#000000;fill-opacity:1;fill-rule:nonzero;stroke:none"
         id="path3788" /><g
         id="g3790"
         transform="translate(0,268.0838)"><path
           d="M 33.555,-124.418 L 29.641,-121.836"
           style="fill:none;stroke:#000000;stroke-width:0.5;stroke-linecap:butt;stroke-linejoin:round;stroke-miterlimit:10;stroke-dasharray:none;stroke-opacity:1"
           id="path3792" /></g><path
         d="M 13.887,147.697 C 13.887,148.545 13.977,149.224 14.148,149.74 C 14.324,150.256 14.582,150.654 14.926,150.935 C 15.27,151.213 15.699,151.353 16.223,151.353 C 16.605,151.353 16.941,151.275 17.234,151.123 C 17.523,150.967 17.762,150.744 17.949,150.455 C 18.141,150.162 18.285,149.806 18.395,149.388 C 18.5,148.971 18.555,148.408 18.555,147.697 C 18.555,146.857 18.469,146.178 18.297,145.662 C 18.125,145.146 17.867,144.748 17.523,144.467 C 17.18,144.185 16.746,144.045 16.223,144.045 C 15.531,144.045 14.988,144.291 14.594,144.787 C 14.125,145.381 13.887,146.353 13.887,147.697 L 13.887,147.697 z M 14.789,147.697 C 14.789,146.521 14.93,145.74 15.203,145.349 C 15.48,144.963 15.816,144.767 16.223,144.767 C 16.625,144.767 16.965,144.963 17.238,145.353 C 17.516,145.744 17.652,146.525 17.652,147.697 C 17.652,148.877 17.516,149.658 17.238,150.045 C 16.965,150.431 16.621,150.627 16.211,150.627 C 15.809,150.627 15.484,150.455 15.246,150.115 C 14.941,149.678 14.789,148.873 14.789,147.697 L 14.789,147.697 z"
         style="fill:#000000;fill-opacity:1;fill-rule:nonzero;stroke:none"
         id="path3794" /><path
         d="M 19.941,144.166 L 19.941,145.166 L 20.941,145.166 L 20.941,144.166 L 19.941,144.166 z"
         style="fill:#000000;fill-opacity:1;fill-rule:nonzero;stroke:none"
         id="path3796" /><path
         d="M 25.047,144.166 L 25.047,145.881 L 21.941,145.881 L 21.941,146.685 L 25.207,151.326 L 25.926,151.326 L 25.926,146.685 L 26.891,146.685 L 26.891,145.881 L 25.926,145.881 L 25.926,144.166 L 25.047,144.166 z M 25.047,146.685 L 25.047,149.912 L 22.805,146.685 L 25.047,146.685 z"
         style="fill:#000000;fill-opacity:1;fill-rule:nonzero;stroke:none"
         id="path3798" /><g
         id="g3800"
         transform="translate(0,268.0838)"><path
           d="M 33.555,-105.336 L 29.641,-102.75"
           style="fill:none;stroke:#000000;stroke-width:0.5;stroke-linecap:butt;stroke-linejoin:round;stroke-miterlimit:10;stroke-dasharray:none;stroke-opacity:1"
           id="path3802" /></g><path
         d="M 13.887,166.779 C 13.887,167.627 13.977,168.306 14.148,168.822 C 14.324,169.338 14.582,169.736 14.926,170.017 C 15.27,170.299 15.699,170.435 16.223,170.435 C 16.605,170.435 16.941,170.361 17.234,170.205 C 17.523,170.053 17.762,169.826 17.949,169.537 C 18.141,169.244 18.285,168.888 18.395,168.471 C 18.5,168.053 18.555,167.49 18.555,166.779 C 18.555,165.939 18.469,165.263 18.297,164.748 C 18.125,164.232 17.867,163.83 17.523,163.549 C 17.18,163.267 16.746,163.127 16.223,163.127 C 15.531,163.127 14.988,163.377 14.594,163.869 C 14.125,164.467 13.887,165.435 13.887,166.779 L 13.887,166.779 z M 14.789,166.779 C 14.789,165.603 14.93,164.822 15.203,164.435 C 15.48,164.045 15.816,163.849 16.223,163.849 C 16.625,163.849 16.965,164.045 17.238,164.435 C 17.516,164.826 17.652,165.607 17.652,166.779 C 17.652,167.959 17.516,168.74 17.238,169.127 C 16.965,169.517 16.621,169.709 16.211,169.709 C 15.809,169.709 15.484,169.537 15.246,169.197 C 14.941,168.76 14.789,167.955 14.789,166.779 L 14.789,166.779 z"
         style="fill:#000000;fill-opacity:1;fill-rule:nonzero;stroke:none"
         id="path3804" /><path
         d="M 19.941,163.248 L 19.941,164.252 L 20.941,164.252 L 20.941,163.248 L 19.941,163.248 z"
         style="fill:#000000;fill-opacity:1;fill-rule:nonzero;stroke:none"
         id="path3806" /><path
         d="M 26.789,168.654 L 25.914,168.588 C 25.836,168.931 25.727,169.181 25.582,169.338 C 25.344,169.588 25.051,169.713 24.703,169.713 C 24.422,169.713 24.176,169.635 23.965,169.478 C 23.688,169.279 23.473,168.982 23.313,168.596 C 23.152,168.209 23.07,167.658 23.063,166.939 C 23.273,167.263 23.531,167.502 23.84,167.658 C 24.145,167.814 24.465,167.892 24.801,167.892 C 25.387,167.892 25.887,167.678 26.297,167.248 C 26.711,166.814 26.914,166.256 26.914,165.572 C 26.914,165.123 26.816,164.709 26.625,164.322 C 26.43,163.935 26.164,163.638 25.828,163.435 C 25.488,163.228 25.105,163.127 24.676,163.127 C 23.941,163.127 23.344,163.396 22.883,163.935 C 22.418,164.474 22.188,165.361 22.188,166.599 C 22.188,167.982 22.445,168.99 22.957,169.615 C 23.402,170.162 24,170.435 24.758,170.435 C 25.32,170.435 25.781,170.279 26.141,169.963 C 26.5,169.646 26.715,169.213 26.789,168.654 L 26.789,168.654 z M 23.199,165.568 C 23.199,165.267 23.262,164.978 23.391,164.701 C 23.52,164.424 23.699,164.213 23.934,164.068 C 24.164,163.924 24.406,163.849 24.66,163.849 C 25.031,163.849 25.348,164.002 25.617,164.299 C 25.883,164.599 26.016,165.006 26.016,165.521 C 26.016,166.013 25.887,166.404 25.621,166.689 C 25.359,166.974 25.027,167.115 24.625,167.115 C 24.227,167.115 23.891,166.974 23.613,166.689 C 23.336,166.404 23.199,166.033 23.199,165.568 L 23.199,165.568 z"
         style="fill:#000000;fill-opacity:1;fill-rule:nonzero;stroke:none"
         id="path3808" /><g
         id="g3810"
         transform="translate(0,268.0838)"><path
           d="M 33.555,-86.25 L 29.641,-83.75"
           style="fill:none;stroke:#000000;stroke-width:0.5;stroke-linecap:butt;stroke-linejoin:round;stroke-miterlimit:10;stroke-dasharray:none;stroke-opacity:1"
           id="path3812" /></g><path
         d="M 13.887,185.779 C 13.887,186.627 13.977,187.306 14.148,187.822 C 14.324,188.338 14.582,188.736 14.926,189.017 C 15.27,189.299 15.699,189.435 16.223,189.435 C 16.605,189.435 16.941,189.361 17.234,189.205 C 17.523,189.053 17.762,188.826 17.949,188.537 C 18.141,188.244 18.285,187.888 18.395,187.471 C 18.5,187.053 18.555,186.49 18.555,185.779 C 18.555,184.939 18.469,184.263 18.297,183.748 C 18.125,183.232 17.867,182.83 17.523,182.549 C 17.18,182.267 16.746,182.127 16.223,182.127 C 15.531,182.127 14.988,182.377 14.594,182.869 C 14.125,183.467 13.887,184.435 13.887,185.779 L 13.887,185.779 z M 14.789,185.779 C 14.789,184.603 14.93,183.822 15.203,183.435 C 15.48,183.045 15.816,182.849 16.223,182.849 C 16.625,182.849 16.965,183.045 17.238,183.435 C 17.516,183.826 17.652,184.607 17.652,185.779 C 17.652,186.959 17.516,187.74 17.238,188.127 C 16.965,188.517 16.621,188.709 16.211,188.709 C 15.809,188.709 15.484,188.537 15.246,188.197 C 14.941,187.76 14.789,186.955 14.789,185.779 L 14.789,185.779 z"
         style="fill:#000000;fill-opacity:1;fill-rule:nonzero;stroke:none"
         id="path3814" /><path
         d="M 19.941,182.248 L 19.941,183.252 L 20.941,183.252 L 20.941,182.248 L 19.941,182.248 z"
         style="fill:#000000;fill-opacity:1;fill-rule:nonzero;stroke:none"
         id="path3816" /><path
         d="M 23.582,186.131 C 23.215,186.263 22.945,186.455 22.77,186.701 C 22.594,186.951 22.508,187.248 22.508,187.592 C 22.508,188.111 22.691,188.549 23.066,188.904 C 23.441,189.26 23.941,189.435 24.563,189.435 C 25.188,189.435 25.691,189.256 26.07,188.892 C 26.453,188.529 26.641,188.088 26.641,187.568 C 26.641,187.236 26.555,186.947 26.379,186.701 C 26.207,186.455 25.941,186.263 25.586,186.131 C 26.027,185.99 26.359,185.756 26.59,185.439 C 26.82,185.119 26.934,184.74 26.934,184.295 C 26.934,183.685 26.719,183.17 26.285,182.752 C 25.852,182.338 25.281,182.127 24.578,182.127 C 23.871,182.127 23.301,182.338 22.867,182.756 C 22.434,183.174 22.219,183.693 22.219,184.318 C 22.219,184.787 22.336,185.174 22.57,185.49 C 22.809,185.803 23.145,186.017 23.582,186.131 L 23.582,186.131 z M 23.406,187.619 C 23.406,187.283 23.512,187.006 23.73,186.791 C 23.949,186.576 24.234,186.467 24.582,186.467 C 24.918,186.467 25.195,186.576 25.414,186.787 C 25.629,187.002 25.738,187.263 25.738,187.572 C 25.738,187.892 25.625,188.166 25.402,188.385 C 25.18,188.603 24.902,188.713 24.57,188.713 C 24.234,188.713 23.957,188.607 23.738,188.392 C 23.516,188.178 23.406,187.92 23.406,187.619 L 23.406,187.619 z M 23.121,184.314 C 23.121,184.064 23.18,183.822 23.301,183.588 C 23.418,183.353 23.594,183.174 23.828,183.045 C 24.063,182.916 24.316,182.849 24.586,182.849 C 25.008,182.849 25.352,182.986 25.625,183.256 C 25.898,183.525 26.035,183.869 26.035,184.287 C 26.035,184.709 25.895,185.06 25.613,185.334 C 25.332,185.611 24.98,185.752 24.559,185.752 C 24.145,185.752 23.801,185.615 23.527,185.342 C 23.258,185.068 23.121,184.724 23.121,184.314 L 23.121,184.314 z"
         style="fill:#000000;fill-opacity:1;fill-rule:nonzero;stroke:none"
         id="path3818" /><g
         id="g3820"
         transform="translate(0,268.0838)"><path
           d="M 33.555,-67.25 L 29.641,-64.668"
           style="fill:none;stroke:#000000;stroke-width:0.5;stroke-linecap:butt;stroke-linejoin:round;stroke-miterlimit:10;stroke-dasharray:none;stroke-opacity:1"
           id="path3822" /></g><path
         d="M 25.531,201.334 L 24.652,201.334 L 24.652,206.935 C 24.441,206.732 24.164,206.529 23.82,206.33 C 23.477,206.127 23.168,205.974 22.895,205.873 L 22.895,206.724 C 23.387,206.955 23.816,207.236 24.184,207.564 C 24.551,207.892 24.813,208.213 24.965,208.521 L 25.531,208.521 L 25.531,201.334 z"
         style="fill:#000000;fill-opacity:1;fill-rule:nonzero;stroke:none"
         id="path3824" /><g
         id="g3926"
         transform="translate(0,268.0838)"><path
           d="M 267.805,-104.75 L 123.055,-102.75"
           style="fill:none;stroke:#1f497d;stroke-width:1.5;stroke-linecap:butt;stroke-linejoin:round;stroke-miterlimit:10;stroke-dasharray:none;stroke-opacity:1"
           id="path3928" /></g><g
         id="g3960"
         transform="translate(0,268.0838)" /><g
         id="g3964"
         transform="translate(0,268.0838)"><path
           d="M 253.805,-206.25 L 274.473,-138.668"
           style="fill:none;stroke:#1f497d;stroke-width:1.5;stroke-linecap:butt;stroke-linejoin:round;stroke-miterlimit:10;stroke-dasharray:none;stroke-opacity:1"
           id="path3966" /></g><g
         id="g3968"
         transform="translate(0,268.0838)" /><g
         id="g3980"
         transform="translate(0,268.0838)" /><path
         d="M 252.563,0.002 L 254.836,3.236 L 252.73,6.224 L 254.047,6.224 L 255.004,4.763 C 255.184,4.486 255.328,4.256 255.438,4.068 C 255.609,4.326 255.766,4.553 255.914,4.752 L 256.961,6.224 L 258.219,6.224 L 256.07,3.295 L 258.383,0.002 L 257.09,0.002 L 255.813,1.935 L 255.473,2.455 L 253.836,0.002 L 252.563,0.002 z"
         style="fill:#000000;fill-opacity:1;fill-rule:nonzero;stroke:none"
         id="path3984" /><path
         d="M 248.055,182.916 C 248.055,182.365 247.609,181.916 247.055,181.916 C 246.504,181.916 246.055,182.365 246.055,182.916 C 246.055,183.471 246.504,183.916 247.055,183.916 C 247.609,183.916 248.055,183.471 248.055,182.916"
         style="fill:#ff0000;fill-opacity:1;fill-rule:nonzero;stroke:none"
         id="path3988" /><g
         id="g3990"
         transform="translate(0,268.0838)"><path
           d="M 248.891,-81.086 L 135.391,-78"
           style="fill:none;stroke:#1f497d;stroke-width:1.5;stroke-linecap:butt;stroke-linejoin:round;stroke-miterlimit:10;stroke-dasharray:none;stroke-opacity:1"
           id="path3992" /></g><g
         id="g4010"
         transform="translate(0,268.0838)"><path
           d="M 246.223,-165.75 L 267.805,-104.75"
           style="fill:none;stroke:#1f497d;stroke-width:1.5;stroke-linecap:butt;stroke-linejoin:round;stroke-miterlimit:10;stroke-dasharray:none;stroke-opacity:1"
           id="path4012" /></g><g
         id="g4036"
         transform="translate(0,268.0838)"><path
           d="M 229.641,-126.168 L 248.891,-81.086"
           style="fill:none;stroke:#1f497d;stroke-width:1.5;stroke-linecap:butt;stroke-linejoin:round;stroke-miterlimit:10;stroke-dasharray:none;stroke-opacity:1"
           id="path4038" /></g><g
         id="g4060"
         transform="translate(0,268.0838)"><path
           d="M 220.555,-71.336 L 155.555,-67.586"
           style="fill:none;stroke:#1f497d;stroke-width:1.5;stroke-linecap:butt;stroke-linejoin:round;stroke-miterlimit:10;stroke-dasharray:none;stroke-opacity:1"
           id="path4062" /></g><g
         id="g4082"
         transform="translate(0,268.0838)"><path
           d="M 206.555,-93.668 L 220.555,-71.336"
           style="fill:none;stroke:#1f497d;stroke-width:1.5;stroke-linecap:butt;stroke-linejoin:round;stroke-miterlimit:10;stroke-dasharray:none;stroke-opacity:1"
           id="path4084" /></g><g
         id="g4110"
         transform="translate(0,268.0838)"><path
           d="M 187.141,-76.918 L 180.555,-73.086"
           style="fill:none;stroke:#1f497d;stroke-width:1.5;stroke-linecap:butt;stroke-linejoin:round;stroke-miterlimit:10;stroke-dasharray:none;stroke-opacity:1"
           id="path4112" /></g><g
         id="g4138"
         transform="translate(0,268.0838)"><path
           d="M 180.555,-73.086 L 170.141,-85.25"
           style="fill:none;stroke:#1f497d;stroke-width:1.5;stroke-linecap:butt;stroke-linejoin:round;stroke-miterlimit:10;stroke-dasharray:none;stroke-opacity:1"
           id="path4140" /></g><g
         id="g4158"
         transform="translate(0,268.0838)"><path
           d="M 170.141,-85.25 L 206.555,-93.668"
           style="fill:none;stroke:#1f497d;stroke-width:1.5;stroke-linecap:butt;stroke-linejoin:round;stroke-miterlimit:10;stroke-dasharray:none;stroke-opacity:1"
           id="path4160" /></g><g
         id="g4182"
         transform="translate(0,268.0838)"><path
           d="M 155.555,-67.586 L 138.641,-111.586"
           style="fill:none;stroke:#1f497d;stroke-width:1.5;stroke-linecap:butt;stroke-linejoin:round;stroke-miterlimit:10;stroke-dasharray:none;stroke-opacity:1"
           id="path4184" /></g><g
         id="g4204"
         transform="translate(0,268.0838)"><path
           d="M 135.391,-78 L 114.555,-147.086"
           style="fill:none;stroke:#1f497d;stroke-width:1.5;stroke-linecap:butt;stroke-linejoin:round;stroke-miterlimit:10;stroke-dasharray:none;stroke-opacity:1"
           id="path4206" /></g><g
         id="g4228"
         transform="translate(0,268.0838)"><path
           d="M 138.641,-111.586 L 229.641,-126.168"
           style="fill:none;stroke:#1f497d;stroke-width:1.5;stroke-linecap:butt;stroke-linejoin:round;stroke-miterlimit:10;stroke-dasharray:none;stroke-opacity:1"
           id="path4230" /></g><g
         id="g4252"
         transform="translate(0,268.0838)"><path
           d="M 123.055,-102.75 L 101.555,-186.418"
           style="fill:none;stroke:#1f497d;stroke-width:1.5;stroke-linecap:butt;stroke-linejoin:round;stroke-miterlimit:10;stroke-dasharray:none;stroke-opacity:1"
           id="path4254" /></g><g
         id="g4274"
         transform="translate(0,268.0838)"><path
           d="M 114.555,-147.086 L 246.223,-165.75"
           style="fill:none;stroke:#1f497d;stroke-width:1.5;stroke-linecap:butt;stroke-linejoin:round;stroke-miterlimit:10;stroke-dasharray:none;stroke-opacity:1"
           id="path4276" /></g><g
         id="g4296"
         transform="translate(0,268.0838)"><path
           d="M 101.555,-186.418 L 253.805,-206.25"
           style="fill:none;stroke:#1f497d;stroke-width:1.5;stroke-linecap:butt;stroke-linejoin:round;stroke-miterlimit:10;stroke-dasharray:none;stroke-opacity:1"
           id="path4298" /></g><path
         d="M 85.551,2.521 L 85.434,3.51 C 85.664,3.447 85.863,3.416 86.035,3.416 C 86.27,3.416 86.457,3.455 86.598,3.533 C 86.738,3.611 86.855,3.721 86.945,3.861 C 87.012,3.967 87.117,4.228 87.266,4.646 C 87.285,4.705 87.316,4.791 87.359,4.904 L 85,11.138 L 86.137,11.138 L 87.43,7.537 C 87.598,7.08 87.75,6.599 87.883,6.096 C 88.004,6.58 88.148,7.053 88.316,7.513 L 89.645,11.138 L 90.699,11.138 L 88.332,4.81 C 88.078,4.127 87.883,3.658 87.742,3.4 C 87.555,3.053 87.34,2.795 87.098,2.635 C 86.855,2.471 86.566,2.392 86.23,2.392 C 86.027,2.392 85.801,2.435 85.551,2.521 L 85.551,2.521 z"
         style="fill:#000000;fill-opacity:1;fill-rule:nonzero;stroke:none"
         id="path4318" /><path
         d="M 6.223,150.4 L 5.367,150.4 L 0.82,154.361 C 0.844,153.912 0.855,153.517 0.855,153.174 L 0.855,150.635 L 0,150.635 L 0,155.721 L 0.695,155.721 L 4.648,152.353 L 5.367,151.701 C 5.332,152.174 5.313,152.619 5.313,153.033 L 5.313,155.908 L 6.223,155.908 L 6.223,150.4 z"
         style="fill:#000000;fill-opacity:1;fill-rule:nonzero;stroke:none"
         id="path4324" /><path
         d="M 277.29908,129.40819 C 277.29908,127.73076 275.94096,126.36972 274.26353,126.36972 C 272.5861,126.36972 271.22506,127.73076 271.22506,129.40819 C 271.22506,131.08562 272.5861,132.44666 274.26353,132.44666 C 275.94096,132.44666 277.29908,131.08562 277.29908,129.40819"
         style="fill:#000000;fill-opacity:1;fill-rule:nonzero;stroke:none;stroke-linecap:round;stroke-linejoin:round"
         id="path4471" /><path
         d="M 270.47782,163.1617 C 270.47782,161.48427 269.1197,160.12323 267.44227,160.12323 C 265.76484,160.12323 264.4038,161.48427 264.4038,163.1617 C 264.4038,164.83913 265.76484,166.20017 267.44227,166.20017 C 269.1197,166.20017 270.47782,164.83913 270.47782,163.1617"
         style="fill:#000000;fill-opacity:1;fill-rule:nonzero;stroke:none;stroke-linecap:round;stroke-linejoin:round"
         id="path4473" /><path
         d="M 252.24321,187.09461 C 252.24321,185.41718 250.88509,184.05614 249.20766,184.05614 C 247.53023,184.05614 246.16919,185.41718 246.16919,187.09461 C 246.16919,188.77204 247.53023,190.13308 249.20766,190.13308 C 250.88509,190.13308 252.24321,188.77204 252.24321,187.09461"
         style="fill:#000000;fill-opacity:1;fill-rule:nonzero;stroke:none;stroke-linecap:round;stroke-linejoin:round"
         id="path4475" /><path
         d="M 222.99188,196.40186 C 222.99188,194.72443 221.63376,193.36339 219.95633,193.36339 C 218.2789,193.36339 216.91786,194.72443 216.91786,196.40186 C 216.91786,198.07929 218.2789,199.44033 219.95633,199.44033 C 221.63376,199.44033 222.99188,198.07929 222.99188,196.40186"
         style="fill:#000000;fill-opacity:1;fill-rule:nonzero;stroke:none;stroke-linecap:round;stroke-linejoin:round"
         id="path4477" /><path
         d="M 183.10368,194.69235 C 183.10368,193.01492 181.74556,191.65388 180.06813,191.65388 C 178.3907,191.65388 177.02966,193.01492 177.02966,194.69235 C 177.02966,196.36978 178.3907,197.73082 180.06813,197.73082 C 181.74556,197.73082 183.10368,196.36978 183.10368,194.69235"
         style="fill:#000000;fill-opacity:1;fill-rule:nonzero;stroke:none;stroke-linecap:round;stroke-linejoin:round"
         id="path4479" /><path
         d="M 191.46121,191.27337 C 191.46121,189.59594 190.10309,188.2349 188.42566,188.2349 C 186.74823,188.2349 185.38719,189.59594 185.38719,191.27337 C 185.38719,192.9508 186.74823,194.31184 188.42566,194.31184 C 190.10309,194.31184 191.46121,192.9508 191.46121,191.27337"
         style="fill:#000000;fill-opacity:1;fill-rule:nonzero;stroke:none;stroke-linecap:round;stroke-linejoin:round"
         id="path4481" /><path
         d="M 173.22661,182.7259 C 173.22661,181.04847 171.86849,179.68743 170.19106,179.68743 C 168.51363,179.68743 167.15259,181.04847 167.15259,182.7259 C 167.15259,184.40333 168.51363,185.76437 170.19106,185.76437 C 171.86849,185.76437 173.22661,184.40333 173.22661,182.7259"
         style="fill:#000000;fill-opacity:1;fill-rule:nonzero;stroke:none;stroke-linecap:round;stroke-linejoin:round"
         id="path4483" /><path
         d="M 158.03111,200.77056 C 158.03111,199.09313 156.67299,197.73209 154.99556,197.73209 C 153.31813,197.73209 151.95709,199.09313 151.95709,200.77056 C 151.95709,202.44799 153.31813,203.80903 154.99556,203.80903 C 156.67299,203.80903 158.03111,202.44799 158.03111,200.77056"
         style="fill:#000000;fill-opacity:1;fill-rule:nonzero;stroke:none;stroke-linecap:round;stroke-linejoin:round"
         id="path4485" /><path
         d="M 138.08702,190.5136 C 138.08702,188.83617 136.7289,187.47513 135.05147,187.47513 C 133.37404,187.47513 132.013,188.83617 132.013,190.5136 C 132.013,192.19103 133.37404,193.55207 135.05147,193.55207 C 136.7289,193.55207 138.08702,192.19103 138.08702,190.5136"
         style="fill:#000000;fill-opacity:1;fill-rule:nonzero;stroke:none;stroke-linecap:round;stroke-linejoin:round"
         id="path4487" /><path
         d="M 125.93062,165.82091 C 125.93062,164.14348 124.5725,162.78244 122.89507,162.78244 C 121.21764,162.78244 119.8566,164.14348 119.8566,165.82091 C 119.8566,167.49834 121.21764,168.85938 122.89507,168.85938 C 124.5725,168.85938 125.93062,167.49834 125.93062,165.82091"
         style="fill:#000000;fill-opacity:1;fill-rule:nonzero;stroke:none;stroke-linecap:round;stroke-linejoin:round"
         id="path4489" /><path
         d="M 141.69595,156.51366 C 141.69595,154.83623 140.33783,153.47519 138.6604,153.47519 C 136.98297,153.47519 135.62193,154.83623 135.62193,156.51366 C 135.62193,158.19109 136.98297,159.55213 138.6604,159.55213 C 140.33783,159.55213 141.69595,158.19109 141.69595,156.51366"
         style="fill:#000000;fill-opacity:1;fill-rule:nonzero;stroke:none;stroke-linecap:round;stroke-linejoin:round"
         id="path4491" /><path
         d="M 117.76304,121.18413 C 117.76304,119.5067 116.40492,118.14566 114.72749,118.14566 C 113.05006,118.14566 111.68902,119.5067 111.68902,121.18413 C 111.68902,122.86156 113.05006,124.2226 114.72749,124.2226 C 116.40492,124.2226 117.76304,122.86156 117.76304,121.18413"
         style="fill:#000000;fill-opacity:1;fill-rule:nonzero;stroke:none;stroke-linecap:round;stroke-linejoin:round"
         id="path4493" /><path
         d="M 104.27703,82.055712 C 104.27703,80.378282 102.91891,79.017242 101.24148,79.017242 C 99.56405,79.017242 98.20301,80.378282 98.20301,82.055712 C 98.20301,83.733142 99.56405,85.094182 101.24148,85.094182 C 102.91891,85.094182 104.27703,83.733142 104.27703,82.055712"
         style="fill:#000000;fill-opacity:1;fill-rule:nonzero;stroke:none;stroke-linecap:round;stroke-linejoin:round"
         id="path4495" /><path
         d="M 209.59377,174.61859 C 209.59377,172.94116 208.23565,171.58012 206.55822,171.58012 C 204.88079,171.58012 203.51975,172.94116 203.51975,174.61859 C 203.51975,176.29602 204.88079,177.65706 206.55822,177.65706 C 208.23565,177.65706 209.59377,176.29602 209.59377,174.61859"
         style="fill:#000000;fill-opacity:1;fill-rule:nonzero;stroke:none;stroke-linecap:round;stroke-linejoin:round"
         id="path4499" /><path
         d="M 232.50595,141.98609 C 232.50595,140.30866 231.14783,138.94762 229.4704,138.94762 C 227.79297,138.94762 226.43193,140.30866 226.43193,141.98609 C 226.43193,143.66352 227.79297,145.02456 229.4704,145.02456 C 231.14783,145.02456 232.50595,143.66352 232.50595,141.98609"
         style="fill:#000000;fill-opacity:1;fill-rule:nonzero;stroke:none;stroke-linecap:round;stroke-linejoin:round"
         id="path4501" /><g
         id="g3826"
         transform="matrix(1,0,0,-1,0,268.0838)"><path
           d="M 253.918,206.512 C 253.918,206.512 252.398,160.105 225.152,117.078 C 215.883,102.434 203.629,88.184 187.441,76.285 C 133.496,45.77 123.145,102.438 123.145,102.438"
           style="fill:none;stroke:#c800c8;stroke-width:1.60000002;stroke-linecap:butt;stroke-linejoin:miter;stroke-miterlimit:4;stroke-dasharray:none;stroke-opacity:1"
           id="path3828" /></g><g
         id="g3830"
         transform="matrix(1,0,0,-1,0,268.0838)"><path
           d="M 101.348,185.805 C 101.348,185.805 116.605,102.438 188.531,76.828 C 274.621,47.406 274.42929,138.87784 274.42929,138.87784"
           style="fill:none;stroke:#00c800;stroke-width:1.60000002;stroke-linecap:butt;stroke-linejoin:miter;stroke-miterlimit:4;stroke-dasharray:none;stroke-opacity:1"
           id="path3832"
           sodipodi:nodetypes="ccc" /></g><text
         xml:space="preserve"
         style="font-size:11.19999981000000000px;font-style:normal;font-variant:normal;font-weight:normal;font-stretch:normal;text-align:start;line-height:100%;writing-mode:lr-tb;text-anchor:start;fill:#c800c8;fill-opacity:1;stroke:none;stroke-width:1px;stroke-linecap:butt;stroke-linejoin:miter;stroke-opacity:1;font-family:Times New Roman;-inkscape-font-specification:Times New Roman"
         x="129.36938"
         y="-227.60638"
         id="text2550"
         sodipodi:linespacing="100%"
         transform="scale(1,-1)"><tspan
           sodipodi:role="line"
           id="tspan2552"
           x="129.36938"
           y="-227.60638">Scansione nel piano XZ</tspan></text>
<text
         xml:space="preserve"
         style="font-size:11.19999981000000000px;font-style:normal;font-variant:normal;font-weight:normal;font-stretch:normal;text-align:start;line-height:100%;writing-mode:lr-tb;text-anchor:start;fill:#00c800;fill-opacity:1;stroke:none;stroke-width:1px;stroke-linecap:butt;stroke-linejoin:miter;stroke-opacity:1;font-family:Times New Roman;-inkscape-font-specification:Times New Roman"
         x="128.83759"
         y="-212.7704"
         id="text2554"
         sodipodi:linespacing="100%"
         transform="scale(1,-1)"><tspan
           sodipodi:role="line"
           id="tspan2556"
           x="128.83759"
           y="-212.7704">Scansione nel piano YZ</tspan></text>
</g><path
       d="M 256.61526,62.051469 C 256.61526,60.374039 255.25714,59.012999 253.57971,59.012999 C 251.90228,59.012999 250.54124,60.374039 250.54124,62.051469 C 250.54124,63.728899 251.90228,65.089939 253.57971,65.089939 C 255.25714,65.089939 256.61526,63.728899 256.61526,62.051469"
       style="fill:#000000;fill-opacity:1;fill-rule:nonzero;stroke:none;stroke-linecap:round;stroke-linejoin:round"
       id="path4465" /></g></svg>