<?xml version="1.0" encoding="UTF-8" standalone="no"?>
<!-- Created with Inkscape (http://www.inkscape.org/) -->
<svg
   xmlns:dc="http://purl.org/dc/elements/1.1/"
   xmlns:cc="http://creativecommons.org/ns#"
   xmlns:rdf="http://www.w3.org/1999/02/22-rdf-syntax-ns#"
   xmlns:svg="http://www.w3.org/2000/svg"
   xmlns="http://www.w3.org/2000/svg"
   xmlns:sodipodi="http://sodipodi.sourceforge.net/DTD/sodipodi-0.dtd"
   xmlns:inkscape="http://www.inkscape.org/namespaces/inkscape"
   width="835.89874"
   height="86.972504"
   id="svg2546"
   sodipodi:version="0.32"
   inkscape:version="0.46"
   version="1.0"
   sodipodi:docname="unifiCorsivo.svg"
   inkscape:output_extension="org.inkscape.output.svg.inkscape">
  <defs
     id="defs2548" />
  <sodipodi:namedview
     id="base"
     pagecolor="#ffffff"
     bordercolor="#666666"
     borderopacity="1.0"
     inkscape:pageopacity="0.0"
     inkscape:pageshadow="2"
     inkscape:zoom="1.1077897"
     inkscape:cx="417.94937"
     inkscape:cy="43.486252"
     inkscape:document-units="px"
     inkscape:current-layer="layer1"
     showgrid="false"
     inkscape:window-width="1366"
     inkscape:window-height="706"
     inkscape:window-x="-8"
     inkscape:window-y="-8" />
  <metadata
     id="metadata2551">
    <rdf:RDF>
      <cc:Work
         rdf:about="">
        <dc:format>image/svg+xml</dc:format>
        <dc:type
           rdf:resource="http://purl.org/dc/dcmitype/StillImage" />
      </cc:Work>
    </rdf:RDF>
  </metadata>
  <g
     inkscape:label="Livello 1"
     inkscape:groupmode="layer"
     id="layer1"
     transform="translate(148.68826,-423.23301)">
    <path
       d="M -105.75326,464.78551 C -114.32326,472.98301 -131.73451,486.71426 -139.10326,486.71426 C -141.95951,486.71426 -143.71201,485.51301 -143.71201,483.67176 C -143.71201,481.18676 -141.12951,478.14426 -136.71076,474.18426 C -136.71076,474.18426 -121.50576,460.45426 -121.50576,460.45426 C -114.41076,454.00426 -101.88076,444.14551 -101.88076,433.46176 C -101.88076,425.53676 -109.34701,423.23301 -116.25576,423.23301 C -129.43076,423.23301 -148.68826,432.17301 -148.68826,442.49051 C -148.68826,448.20301 -143.06826,450.04426 -138.36576,450.04426 C -126.11451,450.04426 -116.44201,442.11926 -109.16201,433.09051 C -109.16201,433.09051 -109.89951,432.53926 -109.89951,432.53926 C -117.08701,440.55676 -128.41451,448.75551 -139.10326,448.75551 C -144.07826,448.75551 -147.39451,445.99176 -147.39451,442.67551 C -147.39451,432.81801 -127.49701,424.52676 -116.07076,424.52676 C -108.88326,424.52676 -103.72701,427.56301 -103.72701,432.17301 C -103.72701,437.97426 -111.37326,445.16176 -115.42576,448.84801 C -115.42576,448.84801 -133.29701,465.15676 -133.29701,465.15676 C -137.72076,469.11676 -145.55326,476.39676 -145.55326,482.84176 C -145.55326,485.42426 -142.97451,488.00301 -139.10326,488.00301 C -132.28701,488.00301 -120.49451,479.71176 -103.26326,464.32676 C -103.26326,464.32676 -103.08201,464.50676 -103.08201,464.50676 C -106.76451,468.47176 -118.28326,478.78926 -118.28326,484.31676 C -118.28326,486.52801 -117.08701,488.00301 -113.85826,488.00301 C -109.06826,488.00301 -103.54201,483.30551 -97.828262,478.51051 C -97.828262,478.51051 -97.277012,478.05176 -97.277012,478.05176 C -97.277012,478.05176 -97.735762,477.40676 -97.735762,477.40676 C -97.735762,477.40676 -98.380762,477.95926 -98.380762,477.95926 C -103.90826,482.66176 -109.89951,486.71426 -114.13701,486.71426 C -115.51951,486.71426 -116.44201,486.16176 -116.44201,485.23926 C -116.44201,483.21301 -115.33326,481.92426 -108.05826,474.45801 C -108.05826,474.45801 -65.215762,430.97176 -65.215762,430.97176 C -65.215762,430.97176 -70.279512,430.97176 -70.279512,430.97176 C -70.279512,430.97176 -105.75326,464.78551 -105.75326,464.78551 C -105.75326,464.78551 -105.75326,464.78551 -105.75326,464.78551 z"
       style="fill:#000000;fill-opacity:1;fill-rule:nonzero;stroke:none;stroke-opacity:1;stroke-width:0.50000000000000000;stroke-miterlimit:4;stroke-dasharray:none;stroke-linecap:round;stroke-linejoin:round"
       id="path117" />
    <path
       d="M -99.894512,487.45176 C -99.894512,487.45176 -94.733262,487.45176 -94.733262,487.45176 C -93.165762,485.69801 -91.969512,484.59426 -90.773262,483.57926 C -86.442012,479.98551 -76.217012,469.39426 -70.963262,469.39426 C -70.225762,469.39426 -69.488262,469.94676 -69.488262,470.59051 C -69.488262,473.62801 -80.084512,478.05176 -80.084512,485.33176 C -80.084512,486.80676 -79.073262,488.00301 -77.505762,488.00301 C -75.015762,488.00301 -69.767012,483.67176 -63.502012,478.51051 C -63.502012,478.51051 -62.950762,478.05176 -62.950762,478.05176 C -62.950762,478.05176 -63.409512,477.40676 -63.409512,477.40676 C -63.409512,477.40676 -64.054512,477.95926 -64.054512,477.95926 C -68.292012,481.55301 -75.387012,487.26551 -77.505762,487.26551 C -78.150762,487.26551 -78.795762,486.71426 -78.795762,485.88426 C -78.795762,482.56801 -67.648262,477.22176 -67.648262,471.69426 C -67.648262,469.94676 -69.122012,468.65676 -71.149512,468.65676 C -75.202012,468.65676 -81.559512,474.27676 -85.153262,477.40676 C -85.153262,477.40676 -85.338262,477.40676 -85.338262,477.40676 C -83.493262,475.01426 -82.295762,473.07676 -82.295762,471.23551 C -82.295762,469.85301 -83.307012,468.65676 -84.967012,468.65676 C -86.627012,468.65676 -90.035762,470.77676 -97.774512,477.40676 C -97.774512,477.40676 -98.419512,477.95926 -98.419512,477.95926 C -98.419512,477.95926 -97.868262,478.51051 -97.868262,478.51051 C -97.868262,478.51051 -97.310762,478.05176 -97.310762,478.05176 C -89.757012,471.69426 -86.442012,469.39426 -84.967012,469.39426 C -84.229512,469.39426 -84.137012,469.85301 -84.137012,470.49801 C -84.137012,471.69426 -87.638262,475.10301 -90.494512,477.95926 C -90.494512,477.95926 -99.894512,487.45176 -99.894512,487.45176 C -99.894512,487.45176 -99.894512,487.45176 -99.894512,487.45176 z"
       style="fill:#000000;fill-opacity:1;fill-rule:nonzero;stroke:none;stroke-opacity:1;stroke-width:0.50000000000000000;stroke-miterlimit:4;stroke-dasharray:none;stroke-linecap:round;stroke-linejoin:round"
       id="path119" />
    <path
       d="M -41.964512,460.91801 C -41.964512,460.91801 -44.542012,457.69051 -44.542012,457.69051 C -44.542012,457.69051 -47.677012,460.91801 -47.677012,460.91801 C -47.677012,460.91801 -45.187012,463.95551 -45.187012,463.95551 C -45.187012,463.95551 -41.964512,460.91801 -41.964512,460.91801 C -41.964512,460.91801 -41.964512,460.91801 -41.964512,460.91801 z M -54.127012,469.20926 C -57.443262,472.15801 -60.665762,475.01426 -63.429512,477.40676 C -63.429512,477.40676 -64.073262,477.95926 -64.073262,477.95926 C -64.073262,477.95926 -63.522012,478.51051 -63.522012,478.51051 C -63.522012,478.51051 -62.970762,478.05176 -62.970762,478.05176 C -60.758262,476.21051 -58.180762,473.90676 -55.783262,471.60176 C -55.783262,471.60176 -55.602012,471.78676 -55.602012,471.78676 C -62.418262,478.88176 -65.089512,482.10426 -65.089512,485.42426 C -65.089512,487.17301 -63.800762,488.00301 -62.047012,488.00301 C -59.377012,488.00301 -55.689512,485.33176 -47.492012,478.51051 C -47.492012,478.51051 -46.939512,478.05176 -46.939512,478.05176 C -46.939512,478.05176 -47.399512,477.40676 -47.399512,477.40676 C -47.399512,477.40676 -48.043262,477.95926 -48.043262,477.95926 C -56.427012,485.14676 -60.207012,487.26551 -62.047012,487.26551 C -62.604512,487.26551 -63.248262,486.89926 -63.248262,486.34301 C -63.248262,485.05426 -62.418262,483.95051 -56.890762,477.68551 C -56.890762,477.68551 -49.425762,469.20926 -49.425762,469.20926 C -49.425762,469.20926 -54.127012,469.20926 -54.127012,469.20926 C -54.127012,469.20926 -54.127012,469.20926 -54.127012,469.20926 z"
       style="fill:#000000;fill-opacity:1;fill-rule:nonzero;stroke:none;stroke-opacity:1;stroke-width:0.50000000000000000;stroke-miterlimit:4;stroke-dasharray:none;stroke-linecap:round;stroke-linejoin:round"
       id="path121" />
    <path
       d="M -47.505762,478.51051 C -47.505762,478.51051 -46.954512,478.05176 -46.954512,478.05176 C -37.740762,470.40551 -36.729512,469.94676 -35.533262,469.94676 C -34.889512,469.94676 -34.425762,470.59051 -34.425762,471.23551 C -34.425762,473.81301 -44.469512,479.89801 -44.469512,484.68801 C -44.469512,487.17301 -42.994512,488.00301 -40.968262,488.00301 C -36.823262,488.00301 -31.662012,484.59426 -25.397012,479.61926 C -25.030762,480.72301 -24.293262,481.55301 -22.999512,481.55301 C -21.710762,481.55301 -20.055762,480.44926 -17.750762,478.51051 C -17.750762,478.51051 -17.198262,478.05176 -17.198262,478.05176 C -17.198262,478.05176 -17.658262,477.40676 -17.658262,477.40676 C -17.658262,477.40676 -18.302012,477.95926 -18.302012,477.95926 C -19.777012,479.16051 -21.895762,480.81551 -22.912012,480.81551 C -23.737012,480.81551 -24.385762,480.07801 -24.659512,478.88176 C -22.448262,477.12926 -17.843262,471.97301 -17.843262,469.66801 C -17.843262,468.93051 -18.209512,468.65676 -18.673262,468.65676 C -21.618262,468.65676 -25.489512,476.57676 -25.397012,478.51051 C -32.213262,484.22426 -37.467012,487.26551 -40.968262,487.26551 C -41.979512,487.26551 -42.623262,486.98676 -42.623262,486.16176 C -42.623262,483.57926 -32.584512,477.22176 -32.584512,471.51426 C -32.584512,469.85301 -33.688262,468.65676 -34.977012,468.65676 C -36.915762,468.65676 -38.204512,469.57551 -47.418262,477.40676 C -47.418262,477.40676 -48.063262,477.95926 -48.063262,477.95926 C -48.063262,477.95926 -47.505762,478.51051 -47.505762,478.51051 C -47.505762,478.51051 -47.505762,478.51051 -47.505762,478.51051 z"
       style="fill:#000000;fill-opacity:1;fill-rule:nonzero;stroke:none;stroke-opacity:1;stroke-width:0.50000000000000000;stroke-miterlimit:4;stroke-dasharray:none;stroke-linecap:round;stroke-linejoin:round"
       id="path123" />
    <path
       d="M -2.2920122,469.39426 C -1.6420122,469.39426 -0.90951218,469.94676 -0.90951218,470.77676 C -0.90951218,474.27676 -8.7370122,477.22176 -14.083262,478.05176 C -14.083262,478.05176 -14.264512,477.86676 -14.264512,477.86676 C -7.3545122,471.88051 -4.4107622,469.39426 -2.2920122,469.39426 C -2.2920122,469.39426 -2.2920122,469.39426 -2.2920122,469.39426 z M 0.65798782,477.40676 C 0.65798782,477.40676 0.012987823,477.95926 0.012987823,477.95926 C -6.5295122,483.57926 -12.974512,487.26551 -16.568262,487.26551 C -17.858262,487.26551 -18.780762,486.25051 -18.780762,485.14676 C -18.780762,482.93426 -16.662012,480.26426 -15.279512,479.24801 C -4.4107622,477.31426 -0.17201218,473.62801 -0.17201218,470.68301 C -0.17201218,469.66801 -0.72451218,468.65676 -2.2920122,468.65676 C -8.3707622,468.65676 -20.622012,476.67051 -20.622012,483.57926 C -20.622012,486.06926 -19.332012,488.00301 -16.662012,488.00301 C -12.238262,488.00301 -6.8957622,484.68801 0.56548782,478.51051 C 0.56548782,478.51051 1.1217378,478.05176 1.1217378,478.05176 C 1.1217378,478.05176 0.65798782,477.40676 0.65798782,477.40676 C 0.65798782,477.40676 0.65798782,477.40676 0.65798782,477.40676 z"
       style="fill:#000000;fill-opacity:1;fill-rule:nonzero;stroke:none;stroke-opacity:1;stroke-width:0.50000000000000000;stroke-miterlimit:4;stroke-dasharray:none;stroke-linecap:round;stroke-linejoin:round"
       id="path125" />
    <path
       d="M 0.56048782,478.51051 C 0.56048782,478.51051 1.1117378,478.05176 1.1117378,478.05176 C 3.1429878,476.39676 5.9942378,473.62801 8.6704878,471.32801 C 9.2217378,471.51426 9.7742378,471.60176 10.511738,471.60176 C 11.434238,471.60176 12.259238,471.42051 12.909238,471.23551 C 12.909238,471.23551 13.089238,471.42051 13.089238,471.42051 C 13.089238,471.42051 7.7479878,476.85551 7.7479878,476.85551 C 3.6942378,481.00051 2.5867378,482.93426 2.5867378,485.23926 C 2.5867378,487.08051 3.6942378,488.00301 5.9067378,488.00301 C 8.7579878,488.00301 12.537988,485.69801 21.106738,478.51051 C 21.106738,478.51051 21.659238,478.05176 21.659238,478.05176 C 21.659238,478.05176 21.199238,477.40676 21.199238,477.40676 C 21.199238,477.40676 20.555488,477.95926 20.555488,477.95926 C 14.377988,483.30551 8.4854878,487.26551 6.1804878,487.26551 C 4.8917378,487.26551 4.4317378,486.89926 4.4317378,486.16176 C 4.4317378,485.23926 6.5517378,483.12051 14.011738,475.38051 C 14.011738,475.38051 16.682988,472.61676 16.682988,472.61676 C 16.682988,472.61676 14.197988,469.94676 14.197988,469.94676 C 13.275488,470.40551 11.985488,470.86426 10.511738,470.86426 C 9.5879878,470.86426 8.4854878,470.49801 7.8404878,469.94676 C 9.1292378,469.85301 10.511738,469.30176 10.511738,467.92051 C 10.511738,466.71926 9.7742378,465.88926 8.5779878,465.88926 C 7.4692378,465.88926 6.4579878,466.71926 6.4579878,468.28676 C 6.4579878,469.30176 6.8242378,470.03926 7.5617378,470.86426 C 5.4429878,472.98301 2.5867378,475.74676 0.65298782,477.40676 C 0.65298782,477.40676 0.0079878232,477.95926 0.0079878232,477.95926 C 0.0079878232,477.95926 0.56048782,478.51051 0.56048782,478.51051 C 0.56048782,478.51051 0.56048782,478.51051 0.56048782,478.51051 z"
       style="fill:#000000;fill-opacity:1;fill-rule:nonzero;stroke:none;stroke-opacity:1;stroke-width:0.50000000000000000;stroke-miterlimit:4;stroke-dasharray:none;stroke-linecap:round;stroke-linejoin:round"
       id="path127" />
    <path
       d="M 21.072988,478.51051 C 21.072988,478.51051 21.629238,478.05176 21.629238,478.05176 C 25.404238,474.92176 29.182988,471.69426 32.957988,468.37926 C 32.864238,471.78676 32.312988,475.83926 30.286738,479.61926 C 28.626738,482.66176 23.744238,487.26551 20.154238,487.26551 C 19.046738,487.26551 17.942988,486.89926 17.391738,486.06926 C 17.391738,486.06926 17.571738,485.88426 17.571738,485.88426 C 17.756738,486.06926 18.122988,486.16176 18.494238,486.16176 C 19.510488,486.16176 20.427988,485.33176 20.427988,484.31676 C 20.427988,482.93426 19.597988,482.10426 18.494238,482.10426 C 17.297988,482.10426 16.282988,483.30551 16.282988,484.50176 C 16.282988,487.45176 18.860488,488.00301 21.257988,488.00301 C 25.775488,488.00301 30.379238,485.69801 33.329238,482.19676 C 34.984238,482.01176 36.922988,480.54176 39.407988,478.51051 C 39.407988,478.51051 39.959238,478.05176 39.959238,478.05176 C 39.959238,478.05176 39.500488,477.40676 39.500488,477.40676 C 39.500488,477.40676 38.855488,477.95926 38.855488,477.95926 C 37.566738,479.06801 35.721738,480.63426 33.972988,480.90801 C 34.802988,479.24801 35.261738,477.22176 35.261738,475.01426 C 35.261738,471.51426 34.246738,469.20926 34.246738,468.28676 C 34.246738,467.36301 34.802988,466.90426 35.814238,465.98176 C 35.814238,465.98176 37.195488,464.69301 37.195488,464.69301 C 37.195488,464.69301 36.829238,463.68176 36.829238,463.68176 C 31.575488,468.28676 26.419238,472.89551 21.165488,477.40676 C 21.165488,477.40676 20.520488,477.95926 20.520488,477.95926 C 20.520488,477.95926 21.072988,478.51051 21.072988,478.51051 C 21.072988,478.51051 21.072988,478.51051 21.072988,478.51051 z"
       style="fill:#000000;fill-opacity:1;fill-rule:nonzero;stroke:none;stroke-opacity:1;stroke-width:0.50000000000000000;stroke-miterlimit:4;stroke-dasharray:none;stroke-linecap:round;stroke-linejoin:round"
       id="path129" />
    <path
       d="M 60.960488,460.91801 C 60.960488,460.91801 58.381738,457.69051 58.381738,457.69051 C 58.381738,457.69051 55.247988,460.91801 55.247988,460.91801 C 55.247988,460.91801 57.737988,463.95551 57.737988,463.95551 C 57.737988,463.95551 60.960488,460.91801 60.960488,460.91801 C 60.960488,460.91801 60.960488,460.91801 60.960488,460.91801 z M 48.801738,469.20926 C 45.481738,472.15801 42.259238,475.01426 39.495488,477.40676 C 39.495488,477.40676 38.850488,477.95926 38.850488,477.95926 C 38.850488,477.95926 39.402988,478.51051 39.402988,478.51051 C 39.402988,478.51051 39.954238,478.05176 39.954238,478.05176 C 42.166738,476.21051 44.744238,473.90676 47.141738,471.60176 C 47.141738,471.60176 47.327988,471.78676 47.327988,471.78676 C 40.506738,478.88176 37.835488,482.10426 37.835488,485.42426 C 37.835488,487.17301 39.124238,488.00301 40.877988,488.00301 C 43.547988,488.00301 47.235488,485.33176 55.432988,478.51051 C 55.432988,478.51051 55.985488,478.05176 55.985488,478.05176 C 55.985488,478.05176 55.525488,477.40676 55.525488,477.40676 C 55.525488,477.40676 54.881738,477.95926 54.881738,477.95926 C 46.497988,485.14676 42.717988,487.26551 40.877988,487.26551 C 40.325488,487.26551 39.681738,486.89926 39.681738,486.34301 C 39.681738,485.05426 40.506738,483.95051 46.037988,477.68551 C 46.037988,477.68551 53.499238,469.20926 53.499238,469.20926 C 53.499238,469.20926 48.801738,469.20926 48.801738,469.20926 C 48.801738,469.20926 48.801738,469.20926 48.801738,469.20926 z"
       style="fill:#000000;fill-opacity:1;fill-rule:nonzero;stroke:none;stroke-opacity:1;stroke-width:0.50000000000000000;stroke-miterlimit:4;stroke-dasharray:none;stroke-linecap:round;stroke-linejoin:round"
       id="path131" />
    <path
       d="M 66.931738,464.14051 C 66.931738,464.14051 71.634238,464.14051 71.634238,464.14051 C 71.634238,464.14051 71.634238,464.32676 71.634238,464.32676 C 66.287988,468.74551 60.760488,472.89551 55.511738,477.40676 C 55.511738,477.40676 54.866738,477.95926 54.866738,477.95926 C 54.866738,477.95926 55.417988,478.51051 55.417988,478.51051 C 55.417988,478.51051 55.970488,478.05176 55.970488,478.05176 C 61.404238,473.54051 67.025488,469.11676 72.551738,464.50676 C 72.551738,464.50676 72.737988,464.69301 72.737988,464.69301 C 58.734238,477.59301 55.511738,481.27926 55.511738,484.86801 C 55.511738,487.26551 56.892988,488.00301 58.919238,488.00301 C 61.590488,488.00301 64.446738,486.25051 73.752988,478.51051 C 73.752988,478.51051 74.305488,478.05176 74.305488,478.05176 C 74.305488,478.05176 73.841738,477.40676 73.841738,477.40676 C 73.841738,477.40676 73.196738,477.95926 73.196738,477.95926 C 67.947988,482.47551 61.869238,487.26551 59.100488,487.26551 C 58.181738,487.26551 57.351738,487.08051 57.351738,486.16176 C 57.351738,485.05426 58.275488,484.13051 66.287988,475.56676 C 66.287988,475.56676 76.975488,464.14051 76.975488,464.14051 C 76.975488,464.14051 83.792988,464.14051 83.792988,464.14051 C 83.792988,464.14051 84.256738,463.40301 84.256738,463.40301 C 84.256738,463.40301 77.806738,463.40301 77.806738,463.40301 C 77.806738,463.40301 85.452988,455.20551 85.452988,455.20551 C 85.452988,455.20551 80.662988,455.20551 80.662988,455.20551 C 80.662988,455.20551 72.830488,463.40301 72.830488,463.40301 C 72.830488,463.40301 67.395488,463.40301 67.395488,463.40301 C 67.395488,463.40301 66.931738,464.14051 66.931738,464.14051 C 66.931738,464.14051 66.931738,464.14051 66.931738,464.14051 z"
       style="fill:#000000;fill-opacity:1;fill-rule:nonzero;stroke:none;stroke-opacity:1;stroke-width:0.50000000000000000;stroke-miterlimit:4;stroke-dasharray:none;stroke-linecap:round;stroke-linejoin:round"
       id="path133" />
    <path
       d="M 90.604238,469.39426 C 91.985488,469.39426 93.001738,470.03926 93.001738,471.42051 C 93.001738,473.54051 91.247988,475.65926 87.102988,479.61926 C 82.312988,484.13051 77.522988,487.26551 74.944238,487.26551 C 73.377988,487.26551 72.732988,486.62051 72.732988,485.51301 C 72.732988,482.01176 85.261738,469.39426 90.604238,469.39426 C 90.604238,469.39426 90.604238,469.39426 90.604238,469.39426 z M 96.687988,469.20926 C 96.687988,469.20926 93.924238,472.61676 93.924238,472.61676 C 93.924238,472.61676 93.739238,472.61676 93.739238,472.61676 C 93.739238,470.12676 93.279238,468.65676 90.237988,468.65676 C 83.787988,468.65676 70.886738,475.93301 70.886738,483.67176 C 70.886738,486.34301 71.810488,488.00301 74.574238,488.00301 C 78.074238,488.00301 81.761738,485.42426 86.644238,481.00051 C 86.644238,481.00051 86.829238,481.00051 86.829238,481.00051 C 86.091738,482.19676 85.355488,483.85801 85.355488,485.51301 C 85.355488,486.98676 85.906738,488.00301 87.932988,488.00301 C 89.592988,488.00301 90.237988,487.54426 101.10674,478.51051 C 101.10674,478.51051 101.66299,478.05176 101.66299,478.05176 C 101.66299,478.05176 101.19924,477.40676 101.19924,477.40676 C 101.19924,477.40676 100.55549,477.95926 100.55549,477.95926 C 94.935488,482.74926 89.592988,487.17301 88.119238,487.17301 C 87.566738,487.17301 87.195488,486.89926 87.195488,486.25051 C 87.195488,483.39801 99.725488,470.86426 101.38549,469.20926 C 101.38549,469.20926 96.687988,469.20926 96.687988,469.20926 C 96.687988,469.20926 96.687988,469.20926 96.687988,469.20926 z M 101.10674,464.14051 C 96.042988,460.63926 95.579238,456.67926 93.279238,456.67926 C 92.264238,456.67926 91.526738,457.59801 91.526738,458.33551 C 91.526738,460.45426 95.120488,462.85176 100.74049,465.15676 C 100.74049,465.15676 101.10674,464.14051 101.10674,464.14051 C 101.10674,464.14051 101.10674,464.14051 101.10674,464.14051 z"
       style="fill:#000000;fill-opacity:1;fill-rule:nonzero;stroke:none;stroke-opacity:1;stroke-width:0.50000000000000000;stroke-miterlimit:4;stroke-dasharray:none;stroke-linecap:round;stroke-linejoin:round"
       id="path135" />
    <path
       d="M 166.77049,442.30426 C 166.77049,442.30426 137.10299,473.44676 137.10299,473.44676 C 137.10299,473.44676 136.91799,473.26176 136.91799,473.26176 C 137.01049,472.98301 137.10299,472.15801 137.10299,471.51426 C 137.10299,469.66801 135.81424,468.65676 133.69424,468.65676 C 126.87799,468.65676 114.25674,475.93301 114.25674,483.67176 C 114.25674,486.34301 115.17424,488.00301 117.93799,488.00301 C 120.61424,488.00301 124.11424,486.06926 129.73549,481.36676 C 129.73549,481.36676 129.91549,481.55301 129.91549,481.55301 C 129.54924,482.84176 129.18299,484.50176 129.18299,485.88426 C 129.18299,487.08051 129.82799,488.00301 131.76174,488.00301 C 134.24674,488.00301 135.62799,487.91051 146.86924,478.51051 C 146.86924,478.51051 147.42049,478.05176 147.42049,478.05176 C 147.42049,478.05176 146.96174,477.40676 146.96174,477.40676 C 146.96174,477.40676 146.31674,477.95926 146.31674,477.95926 C 140.88174,482.66176 134.79799,487.26551 132.22049,487.26551 C 131.11674,487.26551 130.47174,487.08051 130.47174,486.34301 C 130.47174,485.60551 131.29799,484.50176 132.95799,482.74926 C 132.95799,482.74926 171.56049,442.30426 171.56049,442.30426 C 171.56049,442.30426 166.77049,442.30426 166.77049,442.30426 C 166.77049,442.30426 166.77049,442.30426 166.77049,442.30426 z M 133.97299,469.39426 C 135.44299,469.39426 136.36549,470.31301 136.36549,471.60176 C 136.36549,473.16926 134.98424,475.65926 130.47174,479.80426 C 125.49674,484.31676 120.88674,487.26551 118.30924,487.26551 C 116.74174,487.26551 116.09674,486.62051 116.09674,485.51301 C 116.09674,482.01176 128.62674,469.39426 133.97299,469.39426 C 133.97299,469.39426 133.97299,469.39426 133.97299,469.39426 z"
       style="fill:#000000;fill-opacity:1;fill-rule:nonzero;stroke:none;stroke-opacity:1;stroke-width:0.50000000000000000;stroke-miterlimit:4;stroke-dasharray:none;stroke-linecap:round;stroke-linejoin:round"
       id="path137" />
    <path
       d="M 162.33299,469.39426 C 162.97674,469.39426 163.71424,469.94676 163.71424,470.77676 C 163.71424,474.27676 155.88174,477.22176 150.53549,478.05176 C 150.53549,478.05176 150.35549,477.86676 150.35549,477.86676 C 157.26424,471.88051 160.21299,469.39426 162.33299,469.39426 C 162.33299,469.39426 162.33299,469.39426 162.33299,469.39426 z M 165.28174,477.40676 C 165.28174,477.40676 164.63174,477.95926 164.63174,477.95926 C 158.09424,483.57926 151.64424,487.26551 148.05049,487.26551 C 146.76174,487.26551 145.83799,486.25051 145.83799,485.14676 C 145.83799,482.93426 147.95799,480.26426 149.33924,479.24801 C 160.21299,477.31426 164.45174,473.62801 164.45174,470.68301 C 164.45174,469.66801 163.90049,468.65676 162.33299,468.65676 C 156.24799,468.65676 143.99799,476.67051 143.99799,483.57926 C 143.99799,486.06926 145.28674,488.00301 147.95799,488.00301 C 152.38174,488.00301 157.72299,484.68801 165.18924,478.51051 C 165.18924,478.51051 165.74049,478.05176 165.74049,478.05176 C 165.74049,478.05176 165.28174,477.40676 165.28174,477.40676 C 165.28174,477.40676 165.28174,477.40676 165.28174,477.40676 z"
       style="fill:#000000;fill-opacity:1;fill-rule:nonzero;stroke:none;stroke-opacity:1;stroke-width:0.50000000000000000;stroke-miterlimit:4;stroke-dasharray:none;stroke-linecap:round;stroke-linejoin:round"
       id="path139" />
    <path
       d="M 166.47299,487.26551 C 165.64299,487.26551 164.16799,486.52801 164.16799,485.05426 C 164.16799,481.64551 178.07924,469.39426 182.86924,469.39426 C 184.25174,469.39426 185.45299,470.03926 185.45299,471.14301 C 185.45299,475.38051 170.61924,487.26551 166.47299,487.26551 C 166.47299,487.26551 166.47299,487.26551 166.47299,487.26551 z M 166.56549,493.98926 C 158.36299,501.72801 151.73174,509.46801 146.66299,509.46801 C 145.64799,509.46801 144.73049,508.82301 144.73049,507.99301 C 144.73049,502.37301 161.67799,495.64926 166.38049,493.80801 C 166.38049,493.80801 166.56549,493.98926 166.56549,493.98926 C 166.56549,493.98926 166.56549,493.98926 166.56549,493.98926 z M 189.22674,469.11676 C 189.22674,469.11676 186.27799,472.15801 186.27799,472.15801 C 186.27799,472.15801 186.09674,472.15801 186.09674,472.15801 C 186.19049,471.78676 186.19049,471.32801 186.19049,470.68301 C 186.19049,469.48301 184.71549,468.65676 183.14799,468.65676 C 175.40924,468.65676 162.32299,474.45801 162.32299,483.85801 C 162.32299,486.62051 163.70924,488.00301 166.47299,488.00301 C 169.32924,488.00301 173.56799,485.05426 175.68674,483.39801 C 175.68674,483.39801 175.86799,483.57926 175.86799,483.57926 C 175.86799,483.57926 167.48424,492.51426 167.48424,492.51426 C 161.77049,494.45301 143.99299,501.63551 143.99299,507.71926 C 143.99299,509.37551 145.28174,510.20551 146.66299,510.20551 C 153.20674,510.20551 165.36424,498.04676 171.26299,492.14801 C 177.52799,489.93676 185.08174,486.71426 194.94049,478.51051 C 194.94049,478.51051 195.49174,478.05176 195.49174,478.05176 C 195.49174,478.05176 195.03299,477.40676 195.03299,477.40676 C 195.03299,477.40676 194.38799,477.95926 194.38799,477.95926 C 188.48924,483.02676 179.55424,488.28176 173.01174,490.58051 C 173.01174,490.58051 172.83049,490.40051 172.83049,490.40051 C 172.83049,490.40051 193.65049,469.11676 193.65049,469.11676 C 193.65049,469.11676 189.22674,469.11676 189.22674,469.11676 C 189.22674,469.11676 189.22674,469.11676 189.22674,469.11676 z"
       style="fill:#000000;fill-opacity:1;fill-rule:nonzero;stroke:none;stroke-opacity:1;stroke-width:0.50000000000000000;stroke-miterlimit:4;stroke-dasharray:none;stroke-linecap:round;stroke-linejoin:round"
       id="path141" />
    <path
       d="M 195.01299,484.31676 C 195.01299,486.43551 196.12174,488.00301 198.33299,488.00301 C 200.63799,488.00301 202.10799,487.81801 213.26049,478.51051 C 213.26049,478.51051 213.81174,478.05176 213.81174,478.05176 C 213.81174,478.05176 213.34799,477.40676 213.34799,477.40676 C 213.34799,477.40676 212.70424,477.95926 212.70424,477.95926 C 205.98049,483.76426 200.91174,487.26551 199.07049,487.26551 C 197.50299,487.26551 196.85924,486.34301 196.85924,485.60551 C 196.85924,483.48676 199.43674,480.07801 213.90424,464.04801 C 230.94549,457.32426 247.44049,444.60926 247.44049,438.15926 C 247.44049,436.68426 246.70299,435.39551 244.85674,435.39551 C 235.09174,435.39551 218.05049,454.83426 210.58424,462.48051 C 203.86049,469.48301 199.16299,473.81301 195.01299,477.40676 C 195.01299,477.40676 194.36924,477.95926 194.36924,477.95926 C 194.36924,477.95926 194.92549,478.51051 194.92549,478.51051 C 194.92549,478.51051 195.47674,478.05176 195.47674,478.05176 C 198.14799,475.83926 199.90049,474.18426 201.55674,472.61676 C 201.55674,472.61676 201.74174,472.80301 201.74174,472.80301 C 198.05549,477.04051 195.01299,481.18676 195.01299,484.31676 C 195.01299,484.31676 195.01299,484.31676 195.01299,484.31676 z M 215.00799,462.29926 C 226.43424,449.39926 238.77799,436.13301 244.76924,436.13301 C 245.96549,436.13301 246.70299,436.96301 246.70299,437.79301 C 246.70299,445.53176 221.91799,460.18051 215.19424,462.48051 C 215.19424,462.48051 215.00799,462.29926 215.00799,462.29926 C 215.00799,462.29926 215.00799,462.29926 215.00799,462.29926 z"
       style="fill:#000000;fill-opacity:1;fill-rule:nonzero;stroke:none;stroke-opacity:1;stroke-width:0.50000000000000000;stroke-miterlimit:4;stroke-dasharray:none;stroke-linecap:round;stroke-linejoin:round"
       id="path143" />
    <path
       d="M 234.81299,460.91801 C 234.81299,460.91801 232.23049,457.69051 232.23049,457.69051 C 232.23049,457.69051 229.10049,460.91801 229.10049,460.91801 C 229.10049,460.91801 231.58549,463.95551 231.58549,463.95551 C 231.58549,463.95551 234.81299,460.91801 234.81299,460.91801 C 234.81299,460.91801 234.81299,460.91801 234.81299,460.91801 z M 222.65049,469.20926 C 219.33424,472.15801 216.10674,475.01426 213.34299,477.40676 C 213.34299,477.40676 212.69924,477.95926 212.69924,477.95926 C 212.69924,477.95926 213.25049,478.51051 213.25049,478.51051 C 213.25049,478.51051 213.80674,478.05176 213.80674,478.05176 C 216.01424,476.21051 218.59674,473.90676 220.98924,471.60176 C 220.98924,471.60176 221.17549,471.78676 221.17549,471.78676 C 214.35924,478.88176 211.68799,482.10426 211.68799,485.42426 C 211.68799,487.17301 212.97674,488.00301 214.72549,488.00301 C 217.39549,488.00301 221.08299,485.33176 229.28049,478.51051 C 229.28049,478.51051 229.83799,478.05176 229.83799,478.05176 C 229.83799,478.05176 229.37299,477.40676 229.37299,477.40676 C 229.37299,477.40676 228.72924,477.95926 228.72924,477.95926 C 220.34549,485.14676 216.57049,487.26551 214.72549,487.26551 C 214.17299,487.26551 213.52924,486.89926 213.52924,486.34301 C 213.52924,485.05426 214.35924,483.95051 219.88674,477.68551 C 219.88674,477.68551 227.34674,469.20926 227.34674,469.20926 C 227.34674,469.20926 222.65049,469.20926 222.65049,469.20926 C 222.65049,469.20926 222.65049,469.20926 222.65049,469.20926 z"
       style="fill:#000000;fill-opacity:1;fill-rule:nonzero;stroke:none;stroke-opacity:1;stroke-width:0.50000000000000000;stroke-miterlimit:4;stroke-dasharray:none;stroke-linecap:round;stroke-linejoin:round"
       id="path145" />
    <path
       d="M 342.11299,429.22426 C 342.11299,438.53051 316.86924,449.67801 307.10299,452.34926 C 312.72299,442.30426 326.17049,425.90801 337.68924,425.90801 C 340.45299,425.90801 342.11299,427.10426 342.11299,429.22426 C 342.11299,429.22426 342.11299,429.22426 342.11299,429.22426 z M 306.27299,423.87676 C 303.78299,423.60301 300.92674,423.32551 296.68799,423.32551 C 278.53799,423.32551 262.97174,430.69801 262.97174,444.70176 C 262.97174,452.99301 269.69549,458.15426 282.41049,458.15426 C 287.75299,458.15426 293.92424,457.32426 298.44049,456.03551 C 298.44049,456.03551 298.62674,456.21551 298.62674,456.21551 C 289.22674,471.23551 276.88299,486.71426 256.88799,486.71426 C 252.28424,486.71426 245.09674,485.33176 245.09674,479.34051 C 245.09674,478.14426 245.37424,477.04051 246.38549,476.67051 C 246.38549,479.06801 247.40049,480.35676 249.14924,480.35676 C 251.08799,480.35676 252.09799,478.78926 252.09799,477.22176 C 252.09799,475.38051 250.53049,474.09176 248.87549,474.09176 C 245.83299,474.09176 243.80674,476.11801 243.80674,479.34051 C 243.80674,485.88426 251.91299,488.00301 257.16674,488.00301 C 281.67299,488.00301 294.75424,470.86426 306.27299,453.63801 C 318.06549,451.05926 343.40174,439.26301 343.40174,429.31676 C 343.40174,426.08926 340.91174,424.61426 337.59674,424.61426 C 324.42299,424.61426 308.85049,440.92301 299.82299,454.37551 C 295.03299,456.03551 288.03049,456.86051 282.59674,456.86051 C 271.72174,456.86051 264.81299,452.44176 264.81299,444.88301 C 264.81299,433.27676 281.48799,424.06301 297.33299,424.06301 C 300.65299,424.06301 303.50924,424.34051 306.27299,424.61426 C 306.27299,424.61426 306.27299,423.87676 306.27299,423.87676 C 306.27299,423.87676 306.27299,423.87676 306.27299,423.87676 z"
       style="fill:#000000;fill-opacity:1;fill-rule:nonzero;stroke:none;stroke-opacity:1;stroke-width:0.50000000000000000;stroke-miterlimit:4;stroke-dasharray:none;stroke-linecap:round;stroke-linejoin:round"
       id="path147" />
    <path
       d="M 309.36924,464.14051 C 309.36924,464.14051 314.06549,464.14051 314.06549,464.14051 C 314.06549,464.14051 314.06549,464.32676 314.06549,464.32676 C 308.72424,468.74551 303.19174,472.89551 297.94299,477.40676 C 297.94299,477.40676 297.29799,477.95926 297.29799,477.95926 C 297.29799,477.95926 297.85049,478.51051 297.85049,478.51051 C 297.85049,478.51051 298.40174,478.05176 298.40174,478.05176 C 303.84174,473.54051 309.46174,469.11676 314.98924,464.50676 C 314.98924,464.50676 315.16924,464.69301 315.16924,464.69301 C 301.16549,477.59301 297.94299,481.27926 297.94299,484.86801 C 297.94299,487.26551 299.32424,488.00301 301.35049,488.00301 C 304.02174,488.00301 306.87799,486.25051 316.18549,478.51051 C 316.18549,478.51051 316.73674,478.05176 316.73674,478.05176 C 316.73674,478.05176 316.27799,477.40676 316.27799,477.40676 C 316.27799,477.40676 315.63299,477.95926 315.63299,477.95926 C 310.37924,482.47551 304.30049,487.26551 301.53674,487.26551 C 300.61424,487.26551 299.78424,487.08051 299.78424,486.16176 C 299.78424,485.05426 300.70674,484.13051 308.72424,475.56676 C 308.72424,475.56676 319.40799,464.14051 319.40799,464.14051 C 319.40799,464.14051 326.22924,464.14051 326.22924,464.14051 C 326.22924,464.14051 326.68799,463.40301 326.68799,463.40301 C 326.68799,463.40301 320.23799,463.40301 320.23799,463.40301 C 320.23799,463.40301 327.88424,455.20551 327.88424,455.20551 C 327.88424,455.20551 323.09424,455.20551 323.09424,455.20551 C 323.09424,455.20551 315.26174,463.40301 315.26174,463.40301 C 315.26174,463.40301 309.82799,463.40301 309.82799,463.40301 C 309.82799,463.40301 309.36924,464.14051 309.36924,464.14051 C 309.36924,464.14051 309.36924,464.14051 309.36924,464.14051 z"
       style="fill:#000000;fill-opacity:1;fill-rule:nonzero;stroke:none;stroke-opacity:1;stroke-width:0.50000000000000000;stroke-miterlimit:4;stroke-dasharray:none;stroke-linecap:round;stroke-linejoin:round"
       id="path149" />
    <path
       d="M 340.59424,469.20926 C 340.59424,469.20926 336.26299,473.54051 336.26299,473.54051 C 325.20799,484.59426 320.97049,487.26551 318.39174,487.26551 C 317.65424,487.26551 316.63924,486.71426 316.63924,485.88426 C 316.63924,484.86801 317.19049,483.85801 319.31049,481.73801 C 319.31049,481.73801 331.56549,469.20926 331.56549,469.20926 C 331.56549,469.20926 326.68299,469.20926 326.68299,469.20926 C 323.18174,471.97301 319.49549,474.64301 316.27299,477.40676 C 316.27299,477.40676 315.62799,477.95926 315.62799,477.95926 C 315.62799,477.95926 316.18049,478.51051 316.18049,478.51051 C 316.18049,478.51051 316.73174,478.05176 316.73174,478.05176 C 318.75799,476.39676 321.06299,474.55051 323.27549,472.89551 C 323.27549,472.89551 323.45549,473.07676 323.45549,473.07676 C 316.82424,479.34051 314.79799,481.73801 314.79799,484.59426 C 314.79799,486.62051 316.27299,488.00301 318.29924,488.00301 C 320.41799,488.00301 323.27549,486.43551 325.20799,484.78051 C 325.20799,484.78051 332.21049,478.69676 332.21049,478.69676 C 332.21049,478.69676 332.39549,478.69676 332.39549,478.69676 C 330.36924,481.36676 329.07549,483.76426 329.07549,485.33176 C 329.07549,486.98676 330.27674,488.00301 331.93174,488.00301 C 334.23674,488.00301 337.00049,485.97676 345.93549,478.51051 C 345.93549,478.51051 346.49299,478.05176 346.49299,478.05176 C 346.49299,478.05176 346.02924,477.40676 346.02924,477.40676 C 346.02924,477.40676 345.38424,477.95926 345.38424,477.95926 C 339.49049,483.02676 334.05174,487.26551 332.21049,487.26551 C 331.28799,487.26551 330.92174,486.89926 330.92174,486.06926 C 330.92174,485.23926 331.83924,484.22426 335.80424,479.89801 C 335.80424,479.89801 345.56924,469.20926 345.56924,469.20926 C 345.56924,469.20926 340.59424,469.20926 340.59424,469.20926 C 340.59424,469.20926 340.59424,469.20926 340.59424,469.20926 z"
       style="fill:#000000;fill-opacity:1;fill-rule:nonzero;stroke:none;stroke-opacity:1;stroke-width:0.50000000000000000;stroke-miterlimit:4;stroke-dasharray:none;stroke-linecap:round;stroke-linejoin:round"
       id="path151" />
    <path
       d="M 395.57924,442.30426 C 395.57924,442.30426 365.91174,473.44676 365.91174,473.44676 C 365.91174,473.44676 365.73049,473.26176 365.73049,473.26176 C 365.81924,472.98301 365.91174,472.15801 365.91174,471.51426 C 365.91174,469.66801 364.62299,468.65676 362.50299,468.65676 C 355.68674,468.65676 343.06549,475.93301 343.06549,483.67176 C 343.06549,486.34301 343.98799,488.00301 346.75174,488.00301 C 349.42299,488.00301 352.92299,486.06926 358.54299,481.36676 C 358.54299,481.36676 358.72924,481.55301 358.72924,481.55301 C 358.35799,482.84176 357.99174,484.50176 357.99174,485.88426 C 357.99174,487.08051 358.63674,488.00301 360.56924,488.00301 C 363.05549,488.00301 364.43674,487.91051 375.67674,478.51051 C 375.67674,478.51051 376.23424,478.05176 376.23424,478.05176 C 376.23424,478.05176 375.77049,477.40676 375.77049,477.40676 C 375.77049,477.40676 375.12549,477.95926 375.12549,477.95926 C 369.69049,482.66176 363.61174,487.26551 361.02924,487.26551 C 359.92549,487.26551 359.28049,487.08051 359.28049,486.34301 C 359.28049,485.60551 360.11049,484.50176 361.76674,482.74926 C 361.76674,482.74926 400.36924,442.30426 400.36924,442.30426 C 400.36924,442.30426 395.57924,442.30426 395.57924,442.30426 C 395.57924,442.30426 395.57924,442.30426 395.57924,442.30426 z M 362.78174,469.39426 C 364.25674,469.39426 365.17424,470.31301 365.17424,471.60176 C 365.17424,473.16926 363.79299,475.65926 359.28049,479.80426 C 354.30549,484.31676 349.69549,487.26551 347.11799,487.26551 C 345.55049,487.26551 344.90549,486.62051 344.90549,485.51301 C 344.90549,482.01176 357.43549,469.39426 362.78174,469.39426 C 362.78174,469.39426 362.78174,469.39426 362.78174,469.39426 z"
       style="fill:#000000;fill-opacity:1;fill-rule:nonzero;stroke:none;stroke-opacity:1;stroke-width:0.50000000000000000;stroke-miterlimit:4;stroke-dasharray:none;stroke-linecap:round;stroke-linejoin:round"
       id="path153" />
    <path
       d="M 397.22049,460.91801 C 397.22049,460.91801 394.64174,457.69051 394.64174,457.69051 C 394.64174,457.69051 391.50674,460.91801 391.50674,460.91801 C 391.50674,460.91801 393.99799,463.95551 393.99799,463.95551 C 393.99799,463.95551 397.22049,460.91801 397.22049,460.91801 C 397.22049,460.91801 397.22049,460.91801 397.22049,460.91801 z M 385.06174,469.20926 C 381.74174,472.15801 378.51924,475.01426 375.75549,477.40676 C 375.75549,477.40676 375.11049,477.95926 375.11049,477.95926 C 375.11049,477.95926 375.66299,478.51051 375.66299,478.51051 C 375.66299,478.51051 376.21424,478.05176 376.21424,478.05176 C 378.42674,476.21051 381.00424,473.90676 383.40174,471.60176 C 383.40174,471.60176 383.58799,471.78676 383.58799,471.78676 C 376.76674,478.88176 374.09549,482.10426 374.09549,485.42426 C 374.09549,487.17301 375.38424,488.00301 377.13674,488.00301 C 379.80799,488.00301 383.49424,485.33176 391.69299,478.51051 C 391.69299,478.51051 392.24424,478.05176 392.24424,478.05176 C 392.24424,478.05176 391.78549,477.40676 391.78549,477.40676 C 391.78549,477.40676 391.14174,477.95926 391.14174,477.95926 C 382.75674,485.14676 378.97799,487.26551 377.13674,487.26551 C 376.58549,487.26551 375.93549,486.89926 375.93549,486.34301 C 375.93549,485.05426 376.76674,483.95051 382.29299,477.68551 C 382.29299,477.68551 389.75924,469.20926 389.75924,469.20926 C 389.75924,469.20926 385.06174,469.20926 385.06174,469.20926 C 385.06174,469.20926 385.06174,469.20926 385.06174,469.20926 z"
       style="fill:#000000;fill-opacity:1;fill-rule:nonzero;stroke:none;stroke-opacity:1;stroke-width:0.50000000000000000;stroke-miterlimit:4;stroke-dasharray:none;stroke-linecap:round;stroke-linejoin:round"
       id="path155" />
    <path
       d="M 473.36299,442.30426 C 473.36299,442.30426 443.69924,473.44676 443.69924,473.44676 C 443.69924,473.44676 443.51424,473.26176 443.51424,473.26176 C 443.60674,472.98301 443.69924,472.15801 443.69924,471.51426 C 443.69924,469.66801 442.40549,468.65676 440.28674,468.65676 C 433.47049,468.65676 420.84799,475.93301 420.84799,483.67176 C 420.84799,486.34301 421.77049,488.00301 424.53424,488.00301 C 427.20549,488.00301 430.70674,486.06926 436.32674,481.36676 C 436.32674,481.36676 436.51174,481.55301 436.51174,481.55301 C 436.14174,482.84176 435.77549,484.50176 435.77549,485.88426 C 435.77549,487.08051 436.41924,488.00301 438.35299,488.00301 C 440.84299,488.00301 442.22549,487.91051 453.46549,478.51051 C 453.46549,478.51051 454.01674,478.05176 454.01674,478.05176 C 454.01674,478.05176 453.55799,477.40676 453.55799,477.40676 C 453.55799,477.40676 452.90924,477.95926 452.90924,477.95926 C 447.47424,482.66176 441.39549,487.26551 438.81674,487.26551 C 437.70799,487.26551 437.06424,487.08051 437.06424,486.34301 C 437.06424,485.60551 437.89424,484.50176 439.55424,482.74926 C 439.55424,482.74926 478.15299,442.30426 478.15299,442.30426 C 478.15299,442.30426 473.36299,442.30426 473.36299,442.30426 C 473.36299,442.30426 473.36299,442.30426 473.36299,442.30426 z M 440.56549,469.39426 C 442.03924,469.39426 442.96299,470.31301 442.96299,471.60176 C 442.96299,473.16926 441.58049,475.65926 437.06424,479.80426 C 432.08799,484.31676 427.48424,487.26551 424.90049,487.26551 C 423.33799,487.26551 422.69424,486.62051 422.69424,485.51301 C 422.69424,482.01176 435.22299,469.39426 440.56549,469.39426 C 440.56549,469.39426 440.56549,469.39426 440.56549,469.39426 z"
       style="fill:#000000;fill-opacity:1;fill-rule:nonzero;stroke:none;stroke-opacity:1;stroke-width:0.50000000000000000;stroke-miterlimit:4;stroke-dasharray:none;stroke-linecap:round;stroke-linejoin:round"
       id="path157" />
    <path
       d="M 475.00299,460.91801 C 475.00299,460.91801 472.42549,457.69051 472.42549,457.69051 C 472.42549,457.69051 469.29549,460.91801 469.29549,460.91801 C 469.29549,460.91801 471.78049,463.95551 471.78049,463.95551 C 471.78049,463.95551 475.00299,460.91801 475.00299,460.91801 C 475.00299,460.91801 475.00299,460.91801 475.00299,460.91801 z M 462.84549,469.20926 C 459.52924,472.15801 456.30174,475.01426 453.53799,477.40676 C 453.53799,477.40676 452.89424,477.95926 452.89424,477.95926 C 452.89424,477.95926 453.44549,478.51051 453.44549,478.51051 C 453.44549,478.51051 453.99799,478.05176 453.99799,478.05176 C 456.20924,476.21051 458.79299,473.90676 461.18549,471.60176 C 461.18549,471.60176 461.37049,471.78676 461.37049,471.78676 C 454.55424,478.88176 451.87799,482.10426 451.87799,485.42426 C 451.87799,487.17301 453.17299,488.00301 454.92049,488.00301 C 457.59174,488.00301 461.27799,485.33176 469.47549,478.51051 C 469.47549,478.51051 470.03299,478.05176 470.03299,478.05176 C 470.03299,478.05176 469.56924,477.40676 469.56924,477.40676 C 469.56924,477.40676 468.92424,477.95926 468.92424,477.95926 C 460.54049,485.14676 456.76174,487.26551 454.92049,487.26551 C 454.36924,487.26551 453.72424,486.89926 453.72424,486.34301 C 453.72424,485.05426 454.55424,483.95051 460.08174,477.68551 C 460.08174,477.68551 467.54299,469.20926 467.54299,469.20926 C 467.54299,469.20926 462.84549,469.20926 462.84549,469.20926 C 462.84549,469.20926 462.84549,469.20926 462.84549,469.20926 z"
       style="fill:#000000;fill-opacity:1;fill-rule:nonzero;stroke:none;stroke-opacity:1;stroke-width:0.50000000000000000;stroke-miterlimit:4;stroke-dasharray:none;stroke-linecap:round;stroke-linejoin:round"
       id="path159" />
    <path
       d="M 520.39424,443.32051 C 525.64299,438.71051 531.90799,433.82801 540.01799,433.82801 C 543.70424,433.82801 545.45299,435.67426 545.45299,437.60801 C 545.45299,445.16176 531.07799,451.05926 522.87924,451.05926 C 517.16674,451.05926 512.56174,449.12051 512.56174,444.70176 C 512.56174,438.98926 519.56424,432.26051 526.38049,429.49676 C 532.37174,427.10426 538.08424,425.63051 548.58799,425.63051 C 557.43049,425.63051 564.71049,426.36676 571.06299,427.10426 C 577.42049,427.84176 582.76674,428.67176 586.44924,428.67176 C 591.42424,428.67176 596.77049,427.65676 600.08674,423.41801 C 600.08674,423.41801 599.90049,423.23301 599.90049,423.23301 C 596.86424,424.15551 593.36299,424.61426 588.93924,424.61426 C 585.25299,424.61426 570.88174,423.23301 560.00799,423.23301 C 542.68924,423.23301 534.67174,424.43301 526.01424,428.30051 C 517.35174,432.17301 511.27299,438.61801 511.27299,444.51676 C 511.27299,449.49176 515.60424,452.34926 522.69924,452.34926 C 532.00049,452.34926 546.74174,445.99176 546.74174,437.51426 C 546.74174,434.75051 544.52924,432.53926 539.73924,432.53926 C 533.01674,432.53926 525.55049,437.32926 520.02299,442.67551 C 520.02299,442.67551 520.39424,443.32051 520.39424,443.32051 C 520.39424,443.32051 520.39424,443.32051 520.39424,443.32051 z M 564.24674,450.13676 C 564.24674,451.97801 559.17799,454.83426 555.77049,455.39051 C 556.78549,453.35926 560.74549,448.94051 563.14299,448.94051 C 563.69424,448.94051 564.24674,449.21426 564.24674,450.13676 C 564.24674,450.13676 564.24674,450.13676 564.24674,450.13676 z M 552.26924,464.69301 C 552.82049,462.11426 554.11424,458.42801 555.03299,456.67926 C 559.54924,456.21551 565.53549,452.80801 565.53549,450.04426 C 565.53549,448.38426 564.43174,447.65176 563.14299,447.65176 C 559.82799,447.65176 555.67674,452.80801 554.11424,455.66426 C 552.36174,455.84926 549.87674,455.94301 547.75674,455.94301 C 553.92924,445.43926 562.31299,436.04051 571.43424,429.03801 C 571.43424,429.03801 570.97549,428.30051 570.97549,428.30051 C 562.67924,434.29176 551.25799,443.68676 542.96674,456.21551 C 534.30549,456.49426 528.22549,458.15426 521.40424,461.09926 C 521.40424,461.09926 521.77549,462.38801 521.77549,462.38801 C 525.82924,460.36176 534.49049,457.50551 542.13674,457.50551 C 528.68549,475.56676 520.20799,486.71426 501.22924,486.71426 C 495.60924,486.71426 487.96299,484.96051 487.68924,478.69676 C 487.68924,478.69676 487.86924,478.69676 487.86924,478.69676 C 488.42174,479.61926 489.34424,480.72301 491.09674,480.72301 C 492.56674,480.72301 494.13424,479.43301 494.13424,477.86676 C 494.13424,475.83926 492.56674,474.45801 491.00424,474.45801 C 488.42174,474.45801 486.39549,476.67051 486.39549,478.97426 C 486.39549,484.40926 492.38674,488.00301 501.04299,488.00301 C 521.31674,488.00301 536.61049,476.57676 547.11299,457.23176 C 549.78424,457.13926 551.99549,457.04551 553.28424,456.95301 C 551.53174,459.35051 549.13924,462.66551 548.21674,464.69301 C 548.21674,464.69301 552.26924,464.69301 552.26924,464.69301 C 552.26924,464.69301 552.26924,464.69301 552.26924,464.69301 z"
       style="fill:#000000;fill-opacity:1;fill-rule:nonzero;stroke:none;stroke-opacity:1;stroke-width:0.50000000000000000;stroke-miterlimit:4;stroke-dasharray:none;stroke-linecap:round;stroke-linejoin:round"
       id="path161" />
    <path
       d="M 570.94049,460.91801 C 570.94049,460.91801 568.35799,457.69051 568.35799,457.69051 C 568.35799,457.69051 565.22799,460.91801 565.22799,460.91801 C 565.22799,460.91801 567.71299,463.95551 567.71299,463.95551 C 567.71299,463.95551 570.94049,460.91801 570.94049,460.91801 C 570.94049,460.91801 570.94049,460.91801 570.94049,460.91801 z M 558.77799,469.20926 C 555.46299,472.15801 552.23924,475.01426 549.47174,477.40676 C 549.47174,477.40676 548.82674,477.95926 548.82674,477.95926 C 548.82674,477.95926 549.38299,478.51051 549.38299,478.51051 C 549.38299,478.51051 549.93549,478.05176 549.93549,478.05176 C 552.14674,476.21051 554.72549,473.90676 557.12299,471.60176 C 557.12299,471.60176 557.30299,471.78676 557.30299,471.78676 C 550.48674,478.88176 547.81549,482.10426 547.81549,485.42426 C 547.81549,487.17301 549.10549,488.00301 550.85299,488.00301 C 553.52924,488.00301 557.21049,485.33176 565.41299,478.51051 C 565.41299,478.51051 565.96549,478.05176 565.96549,478.05176 C 565.96549,478.05176 565.50674,477.40676 565.50674,477.40676 C 565.50674,477.40676 564.85674,477.95926 564.85674,477.95926 C 556.47299,485.14676 552.69924,487.26551 550.85299,487.26551 C 550.30174,487.26551 549.65674,486.89926 549.65674,486.34301 C 549.65674,485.05426 550.48674,483.95051 556.01424,477.68551 C 556.01424,477.68551 563.47549,469.20926 563.47549,469.20926 C 563.47549,469.20926 558.77799,469.20926 558.77799,469.20926 C 558.77799,469.20926 558.77799,469.20926 558.77799,469.20926 z"
       style="fill:#000000;fill-opacity:1;fill-rule:nonzero;stroke:none;stroke-opacity:1;stroke-width:0.50000000000000000;stroke-miterlimit:4;stroke-dasharray:none;stroke-linecap:round;stroke-linejoin:round"
       id="path163" />
    <path
       d="M 565.39424,478.51051 C 565.39424,478.51051 565.95049,478.05176 565.95049,478.05176 C 567.97674,476.39676 570.83299,473.62801 573.50424,471.32801 C 574.05674,471.51426 574.60799,471.60176 575.34549,471.60176 C 576.26799,471.60176 577.09799,471.42051 577.74299,471.23551 C 577.74299,471.23551 577.92299,471.42051 577.92299,471.42051 C 577.92299,471.42051 572.58174,476.85551 572.58174,476.85551 C 568.52924,481.00051 567.42049,482.93426 567.42049,485.23926 C 567.42049,487.08051 568.52924,488.00301 570.74049,488.00301 C 573.59674,488.00301 577.37174,485.69801 585.94049,478.51051 C 585.94049,478.51051 586.49299,478.05176 586.49299,478.05176 C 586.49299,478.05176 586.03424,477.40676 586.03424,477.40676 C 586.03424,477.40676 585.38924,477.95926 585.38924,477.95926 C 579.21674,483.30551 573.31924,487.26551 571.01424,487.26551 C 569.72549,487.26551 569.26674,486.89926 569.26674,486.16176 C 569.26674,485.23926 571.38549,483.12051 578.84674,475.38051 C 578.84674,475.38051 581.51674,472.61676 581.51674,472.61676 C 581.51674,472.61676 579.03174,469.94676 579.03174,469.94676 C 578.10924,470.40551 576.81924,470.86426 575.34549,470.86426 C 574.42299,470.86426 573.31924,470.49801 572.67424,469.94676 C 573.96299,469.85301 575.34549,469.30176 575.34549,467.92051 C 575.34549,466.71926 574.60799,465.88926 573.41174,465.88926 C 572.30299,465.88926 571.29299,466.71926 571.29299,468.28676 C 571.29299,469.30176 571.65924,470.03926 572.39549,470.86426 C 570.27674,472.98301 567.42049,475.74676 565.48674,477.40676 C 565.48674,477.40676 564.84174,477.95926 564.84174,477.95926 C 564.84174,477.95926 565.39424,478.51051 565.39424,478.51051 C 565.39424,478.51051 565.39424,478.51051 565.39424,478.51051 z"
       style="fill:#000000;fill-opacity:1;fill-rule:nonzero;stroke:none;stroke-opacity:1;stroke-width:0.50000000000000000;stroke-miterlimit:4;stroke-dasharray:none;stroke-linecap:round;stroke-linejoin:round"
       id="path165" />
    <path
       d="M 601.38549,469.39426 C 602.02924,469.39426 602.76674,469.94676 602.76674,470.77676 C 602.76674,474.27676 594.93549,477.22176 589.59299,478.05176 C 589.59299,478.05176 589.40799,477.86676 589.40799,477.86676 C 596.32174,471.88051 599.26674,469.39426 601.38549,469.39426 C 601.38549,469.39426 601.38549,469.39426 601.38549,469.39426 z M 604.33424,477.40676 C 604.33424,477.40676 603.69049,477.95926 603.69049,477.95926 C 597.14674,483.57926 590.70174,487.26551 587.10799,487.26551 C 585.81924,487.26551 584.89549,486.25051 584.89549,485.14676 C 584.89549,482.93426 587.01549,480.26426 588.39674,479.24801 C 599.26674,477.31426 603.50424,473.62801 603.50424,470.68301 C 603.50424,469.66801 602.95299,468.65676 601.38549,468.65676 C 595.30674,468.65676 583.05049,476.67051 583.05049,483.57926 C 583.05049,486.06926 584.34424,488.00301 587.01549,488.00301 C 591.43924,488.00301 596.78049,484.68801 604.24174,478.51051 C 604.24174,478.51051 604.79299,478.05176 604.79299,478.05176 C 604.79299,478.05176 604.33424,477.40676 604.33424,477.40676 C 604.33424,477.40676 604.33424,477.40676 604.33424,477.40676 z"
       style="fill:#000000;fill-opacity:1;fill-rule:nonzero;stroke:none;stroke-opacity:1;stroke-width:0.50000000000000000;stroke-miterlimit:4;stroke-dasharray:none;stroke-linecap:round;stroke-linejoin:round"
       id="path167" />
    <path
       d="M 602.21049,487.45176 C 602.21049,487.45176 607.37174,487.45176 607.37174,487.45176 C 608.93424,485.69801 610.13549,484.59426 611.33174,483.57926 C 615.66299,479.98551 625.88674,469.39426 631.14174,469.39426 C 631.87799,469.39426 632.61549,469.94676 632.61549,470.59051 C 632.61549,473.62801 622.02049,478.05176 622.02049,485.33176 C 622.02049,486.80676 623.03049,488.00301 624.59799,488.00301 C 627.08299,488.00301 632.33799,483.67176 638.60174,478.51051 C 638.60174,478.51051 639.15424,478.05176 639.15424,478.05176 C 639.15424,478.05176 638.69424,477.40676 638.69424,477.40676 C 638.69424,477.40676 638.05049,477.95926 638.05049,477.95926 C 633.81174,481.55301 626.71674,487.26551 624.59799,487.26551 C 623.95424,487.26551 623.30924,486.71426 623.30924,485.88426 C 623.30924,482.56801 634.45674,477.22176 634.45674,471.69426 C 634.45674,469.94676 632.98174,468.65676 630.95549,468.65676 C 626.90299,468.65676 620.54549,474.27676 616.95174,477.40676 C 616.95174,477.40676 616.76674,477.40676 616.76674,477.40676 C 618.61174,475.01426 619.80799,473.07676 619.80799,471.23551 C 619.80799,469.85301 618.79299,468.65676 617.13674,468.65676 C 615.47674,468.65676 612.06924,470.77676 604.32924,477.40676 C 604.32924,477.40676 603.68549,477.95926 603.68549,477.95926 C 603.68549,477.95926 604.23674,478.51051 604.23674,478.51051 C 604.23674,478.51051 604.78799,478.05176 604.78799,478.05176 C 612.34674,471.69426 615.66299,469.39426 617.13674,469.39426 C 617.87424,469.39426 617.96299,469.85301 617.96299,470.49801 C 617.96299,471.69426 614.46674,475.10301 611.61049,477.95926 C 611.61049,477.95926 602.21049,487.45176 602.21049,487.45176 C 602.21049,487.45176 602.21049,487.45176 602.21049,487.45176 z"
       style="fill:#000000;fill-opacity:1;fill-rule:nonzero;stroke:none;stroke-opacity:1;stroke-width:0.50000000000000000;stroke-miterlimit:4;stroke-dasharray:none;stroke-linecap:round;stroke-linejoin:round"
       id="path169" />
    <path
       d="M 638.58299,478.51051 C 638.58299,478.51051 639.13424,478.05176 639.13424,478.05176 C 645.57924,472.61676 649.26674,469.94676 650.46299,469.94676 C 651.01924,469.94676 651.38549,470.12676 651.38549,470.59051 C 651.38549,471.14301 648.62174,471.88051 648.62174,474.36551 C 648.62174,475.65926 649.81799,476.67051 651.11174,476.67051 C 651.84924,476.67051 652.58674,476.39676 653.04549,476.21051 C 653.04549,476.21051 653.23049,476.21051 653.23049,476.21051 C 653.23049,476.21051 647.42549,482.10426 647.42549,482.10426 C 643.55299,483.85801 639.87174,486.25051 639.87174,487.45176 C 639.87174,488.09551 640.14549,488.46176 640.78924,488.46176 C 642.17174,488.46176 644.47549,486.71426 647.97674,482.84176 C 649.73049,481.46051 653.23049,479.80426 654.42674,479.80426 C 654.97924,479.80426 655.43799,480.17051 655.43799,480.63426 C 655.43799,481.73801 651.93674,481.83051 651.93674,485.23926 C 651.93674,487.26551 653.50424,488.00301 655.07174,488.00301 C 656.81924,488.00301 657.92799,487.17301 668.33799,478.51051 C 668.33799,478.51051 668.89049,478.05176 668.89049,478.05176 C 668.89049,478.05176 668.43174,477.40676 668.43174,477.40676 C 668.43174,477.40676 667.78674,477.95926 667.78674,477.95926 C 661.79549,483.12051 656.36049,487.26551 655.25674,487.26551 C 654.52049,487.26551 653.78299,486.89926 653.78299,486.34301 C 653.78299,485.14676 657.83549,484.86801 657.83549,481.55301 C 657.83549,479.71176 656.54674,479.06801 655.07174,479.06801 C 653.41174,479.06801 651.11174,480.17051 649.81799,480.90801 C 649.81799,480.90801 649.63674,480.90801 649.63674,480.90801 C 649.63674,480.90801 655.07174,475.65926 655.07174,475.65926 C 656.36049,475.10301 663.64174,471.51426 663.64174,469.57551 C 663.64174,468.74551 662.99674,468.65676 662.53299,468.65676 C 659.31049,468.65676 655.16424,475.93301 651.47799,475.93301 C 650.92674,475.93301 650.46299,475.56676 650.46299,475.19551 C 650.46299,474.82926 653.78299,473.72051 653.78299,471.14301 C 653.78299,469.66801 652.67424,468.65676 651.01924,468.65676 C 649.08549,468.65676 644.47549,472.43176 638.67049,477.40676 C 638.67049,477.40676 638.02549,477.95926 638.02549,477.95926 C 638.02549,477.95926 638.58299,478.51051 638.58299,478.51051 C 638.58299,478.51051 638.58299,478.51051 638.58299,478.51051 z"
       style="fill:#000000;fill-opacity:1;fill-rule:nonzero;stroke:none;stroke-opacity:1;stroke-width:0.50000000000000000;stroke-miterlimit:4;stroke-dasharray:none;stroke-linecap:round;stroke-linejoin:round"
       id="path171" />
    <path
       d="M 683.79799,469.39426 C 684.44674,469.39426 685.17924,469.94676 685.17924,470.77676 C 685.17924,474.27676 677.35174,477.22176 672.00549,478.05176 C 672.00549,478.05176 671.81924,477.86676 671.81924,477.86676 C 678.73424,471.88051 681.67799,469.39426 683.79799,469.39426 C 683.79799,469.39426 683.79799,469.39426 683.79799,469.39426 z M 686.74674,477.40676 C 686.74674,477.40676 686.10174,477.95926 686.10174,477.95926 C 679.55924,483.57926 673.11424,487.26551 669.52049,487.26551 C 668.23049,487.26551 667.30799,486.25051 667.30799,485.14676 C 667.30799,482.93426 669.42674,480.26426 670.80924,479.24801 C 681.67799,477.31426 685.91674,473.62801 685.91674,470.68301 C 685.91674,469.66801 685.36424,468.65676 683.79799,468.65676 C 677.71799,468.65676 665.46674,476.67051 665.46674,483.57926 C 665.46674,486.06926 666.75674,488.00301 669.42674,488.00301 C 673.85049,488.00301 679.19299,484.68801 686.65424,478.51051 C 686.65424,478.51051 687.21049,478.05176 687.21049,478.05176 C 687.21049,478.05176 686.74674,477.40676 686.74674,477.40676 C 686.74674,477.40676 686.74674,477.40676 686.74674,477.40676 z"
       style="fill:#000000;fill-opacity:1;fill-rule:nonzero;stroke:none;stroke-opacity:1;stroke-width:0.50000000000000000;stroke-miterlimit:4;stroke-dasharray:none;stroke-linecap:round;stroke-linejoin:round"
       id="path173" />
  </g>
</svg>
