<?xml version="1.0" encoding="UTF-8" standalone="no"?>
<!-- Created with Inkscape (http://www.inkscape.org/) -->
<svg
   xmlns:dc="http://purl.org/dc/elements/1.1/"
   xmlns:cc="http://creativecommons.org/ns#"
   xmlns:rdf="http://www.w3.org/1999/02/22-rdf-syntax-ns#"
   xmlns:svg="http://www.w3.org/2000/svg"
   xmlns="http://www.w3.org/2000/svg"
   xmlns:sodipodi="http://sodipodi.sourceforge.net/DTD/sodipodi-0.dtd"
   xmlns:inkscape="http://www.inkscape.org/namespaces/inkscape"
   id="svg2"
   sodipodi:version="0.32"
   inkscape:version="0.46"
   width="570.91742"
   height="462.39767"
   xml:space="preserve"
   sodipodi:docname="1st.svg"
   inkscape:output_extension="org.inkscape.output.svg.inkscape"
   version="1.0"><metadata
     id="metadata7"><rdf:RDF><cc:Work
         rdf:about=""><dc:format>image/svg+xml</dc:format><dc:type
           rdf:resource="http://purl.org/dc/dcmitype/StillImage" /></cc:Work></rdf:RDF></metadata><defs
     id="defs5"><marker
       inkscape:stockid="Arrow2Mend"
       orient="auto"
       refY="0"
       refX="0"
       id="Arrow2Mend"
       style="overflow:visible"><path
         id="path3434"
         style="font-size:12px;fill-rule:evenodd;stroke-width:0.625;stroke-linejoin:round"
         d="M 8.7185878,4.0337352 L -2.2072895,0.016013256 L 8.7185884,-4.0017078 C 6.97309,-1.6296469 6.9831476,1.6157441 8.7185878,4.0337352 z"
         transform="scale(-0.6,-0.6)" /></marker><marker
       inkscape:stockid="Arrow2Mstart"
       orient="auto"
       refY="0"
       refX="0"
       id="Arrow2Mstart"
       style="overflow:visible"><path
         id="path3431"
         style="font-size:12px;fill-rule:evenodd;stroke-width:0.625;stroke-linejoin:round"
         d="M 8.7185878,4.0337352 L -2.2072895,0.016013256 L 8.7185884,-4.0017078 C 6.97309,-1.6296469 6.9831476,1.6157441 8.7185878,4.0337352 z"
         transform="scale(0.6,0.6)" /></marker><marker
       inkscape:stockid="Arrow2Lstart"
       orient="auto"
       refY="0"
       refX="0"
       id="Arrow2Lstart"
       style="overflow:visible"><path
         id="path3425"
         style="font-size:12px;fill-rule:evenodd;stroke-width:0.625;stroke-linejoin:round"
         d="M 8.7185878,4.0337352 L -2.2072895,0.016013256 L 8.7185884,-4.0017078 C 6.97309,-1.6296469 6.9831476,1.6157441 8.7185878,4.0337352 z"
         transform="matrix(1.1,0,0,1.1,1.1,0)" /></marker><marker
       inkscape:stockid="Arrow1Lstart"
       orient="auto"
       refY="0"
       refX="0"
       id="Arrow1Lstart"
       style="overflow:visible"><path
         id="path3407"
         d="M 0,0 L 5,-5 L -12.5,0 L 5,5 L 0,0 z"
         style="fill-rule:evenodd;stroke:#000000;stroke-width:1pt;marker-start:none"
         transform="matrix(0.8,0,0,0.8,10,0)" /></marker><inkscape:perspective
       sodipodi:type="inkscape:persp3d"
       inkscape:vp_x="0 : 526.18109 : 1"
       inkscape:vp_y="0 : 1000 : 0"
       inkscape:vp_z="744.09448 : 526.18109 : 1"
       inkscape:persp3d-origin="372.04724 : 350.78739 : 1"
       id="perspective9" /><clipPath
       clipPathUnits="userSpaceOnUse"
       id="clipPath19"><path
         d="M 1.66797,1.66797 L 4699.998,1.66797 L 4699.998,3679.998 L 1.66797,3679.998 L 1.66797,1.66797 z"
         id="path21" /></clipPath><clipPath
       clipPathUnits="userSpaceOnUse"
       id="clipPath223"><path
         d="M 169.168,3645.83 L 169.168,122.5 L 4638.33,122.5 L 4638.33,3645.83 L 169.168,3645.83 z"
         id="path225" /></clipPath></defs><sodipodi:namedview
     inkscape:window-height="706"
     inkscape:window-width="1366"
     inkscape:pageshadow="2"
     inkscape:pageopacity="0.0"
     guidetolerance="10.0"
     gridtolerance="10.0"
     objecttolerance="10.0"
     borderopacity="1.0"
     bordercolor="#666666"
     pagecolor="#ffffff"
     id="base"
     showgrid="true"
     inkscape:zoom="1.0791577"
     inkscape:cx="285.45871"
     inkscape:cy="231.19884"
     inkscape:window-x="0"
     inkscape:window-y="24"
     inkscape:current-layer="g15"
     inkscape:snap-intersection-line-segments="false"
     units="m"
     inkscape:showpageshadow="true"
     inkscape:snap-global="true"
     showborder="true"><inkscape:grid
       type="xygrid"
       id="grid3398"
       visible="true"
       enabled="true" /></sodipodi:namedview><g
     id="g11"
     inkscape:groupmode="layer"
     inkscape:label="1st"
     transform="matrix(1.25,0,0,-1.25,-11.986084,456.04125)"><g
       id="g13"
       transform="scale(0.1,0.1)"><g
         id="g15"><path
   id="path27"
   style="fill:none;stroke:#ffffff;stroke-width:5;stroke-linecap:butt;stroke-linejoin:round;stroke-miterlimit:10;stroke-dasharray:none;stroke-opacity:1"
   d="M 169.168,123.332 L 169.168,3645.83 L 4637.5,3645.83 L 4637.5,123.332 L 169.168,123.332" /><path
   id="path29"
   style="fill:none;stroke:#000000;stroke-width:5;stroke-linecap:butt;stroke-linejoin:round;stroke-miterlimit:10;stroke-dasharray:none;stroke-opacity:1"
   d="M 175.88867,3640.832 L 4644.2207,3640.832" /><path
   id="path31"
   style="fill:none;stroke:#000000;stroke-width:5;stroke-linecap:butt;stroke-linejoin:round;stroke-miterlimit:10;stroke-dasharray:none;stroke-opacity:1"
   d="M 169.168,123.332 L 4637.5,123.332" /><path
   id="path33"
   style="fill:none;stroke:#000000;stroke-width:5;stroke-linecap:butt;stroke-linejoin:round;stroke-miterlimit:10;stroke-dasharray:none;stroke-opacity:1"
   d="M 4637.5,123.332 L 4637.5,3645.83" /><path
   id="path35"
   style="fill:none;stroke:#000000;stroke-width:5;stroke-linecap:butt;stroke-linejoin:round;stroke-miterlimit:10;stroke-dasharray:none;stroke-opacity:1"
   d="M 169.168,123.332 L 169.168,3645.83" /><path
   id="path37"
   style="fill:none;stroke:#000000;stroke-width:5;stroke-linecap:butt;stroke-linejoin:round;stroke-miterlimit:10;stroke-dasharray:none;stroke-opacity:1"
   d="M 169.168,123.332 L 4637.5,123.332" /><path
   id="path39"
   style="fill:none;stroke:#000000;stroke-width:5;stroke-linecap:butt;stroke-linejoin:round;stroke-miterlimit:10;stroke-dasharray:none;stroke-opacity:1"
   d="M 169.168,123.332 L 169.168,3645.83" /><path
   id="path41"
   style="fill:none;stroke:#000000;stroke-width:5;stroke-linecap:butt;stroke-linejoin:round;stroke-miterlimit:10;stroke-dasharray:none;stroke-opacity:1"
   d="M 169.168,123.332 L 169.168,168.332" /><path
   id="path43"
   style="fill:none;stroke:#000000;stroke-width:5;stroke-linecap:butt;stroke-linejoin:round;stroke-miterlimit:10;stroke-dasharray:none;stroke-opacity:1"
   d="M 175.88867,3640.832 L 175.88867,3596.672" /><path
   id="path51"
   style="fill:none;stroke:#000000;stroke-width:5;stroke-linecap:butt;stroke-linejoin:round;stroke-miterlimit:10;stroke-dasharray:none;stroke-opacity:1"
   d="M 615.832,123.332 L 615.832,168.332" /><path
   id="path53"
   style="fill:none;stroke:#000000;stroke-width:5;stroke-linecap:butt;stroke-linejoin:round;stroke-miterlimit:10;stroke-dasharray:none;stroke-opacity:1"
   d="M 622.55267,3640.832 L 622.55267,3596.672" /><path
   id="path63"
   style="fill:none;stroke:#000000;stroke-width:5;stroke-linecap:butt;stroke-linejoin:round;stroke-miterlimit:10;stroke-dasharray:none;stroke-opacity:1"
   d="M 1069.2207,3640.832 L 1069.2207,3596.672" /><path
   id="path71"
   style="fill:none;stroke:#000000;stroke-width:5;stroke-linecap:butt;stroke-linejoin:round;stroke-miterlimit:10;stroke-dasharray:none;stroke-opacity:1"
   d="M 1509.17,123.332 L 1509.17,168.332" /><path
   id="path73"
   style="fill:none;stroke:#000000;stroke-width:5;stroke-linecap:butt;stroke-linejoin:round;stroke-miterlimit:10;stroke-dasharray:none;stroke-opacity:1"
   d="M 1515.8907,3640.832 L 1515.8907,3596.672" /><path
   id="path81"
   style="fill:none;stroke:#000000;stroke-width:5;stroke-linecap:butt;stroke-linejoin:round;stroke-miterlimit:10;stroke-dasharray:none;stroke-opacity:1"
   d="M 1955.83,123.332 L 1955.83,168.332" /><path
   id="path83"
   style="fill:none;stroke:#000000;stroke-width:5;stroke-linecap:butt;stroke-linejoin:round;stroke-miterlimit:10;stroke-dasharray:none;stroke-opacity:1"
   d="M 1962.5507,3640.832 L 1962.5507,3596.672" /><path
   id="path91"
   style="fill:none;stroke:#000000;stroke-width:5;stroke-linecap:butt;stroke-linejoin:round;stroke-miterlimit:10;stroke-dasharray:none;stroke-opacity:1"
   d="M 2403.33,123.332 L 2403.33,168.332" /><path
   id="path93"
   style="fill:none;stroke:#000000;stroke-width:5;stroke-linecap:butt;stroke-linejoin:round;stroke-miterlimit:10;stroke-dasharray:none;stroke-opacity:1"
   d="M 2415.8887,3640.832 L 2415.8887,3596.672" /><path
   id="path101"
   style="fill:none;stroke:#000000;stroke-width:5;stroke-linecap:butt;stroke-linejoin:round;stroke-miterlimit:10;stroke-dasharray:none;stroke-opacity:1"
   d="M 2850,123.332 L 2850,168.332" /><path
   id="path103"
   style="fill:none;stroke:#000000;stroke-width:5;stroke-linecap:butt;stroke-linejoin:round;stroke-miterlimit:10;stroke-dasharray:none;stroke-opacity:1"
   d="M 2856.7207,3640.832 L 2856.7207,3596.672" /><path
   id="path111"
   style="fill:none;stroke:#000000;stroke-width:5;stroke-linecap:butt;stroke-linejoin:round;stroke-miterlimit:10;stroke-dasharray:none;stroke-opacity:1"
   d="M 3296.67,123.332 L 3296.67,168.332" /><path
   id="path113"
   style="fill:none;stroke:#000000;stroke-width:5;stroke-linecap:butt;stroke-linejoin:round;stroke-miterlimit:10;stroke-dasharray:none;stroke-opacity:1"
   d="M 3303.3907,3640.832 L 3303.3907,3596.672" /><path
   id="path121"
   style="fill:none;stroke:#000000;stroke-width:5;stroke-linecap:butt;stroke-linejoin:round;stroke-miterlimit:10;stroke-dasharray:none;stroke-opacity:1"
   d="M 3743.33,123.332 L 3743.33,168.332" /><path
   id="path123"
   style="fill:none;stroke:#000000;stroke-width:5;stroke-linecap:butt;stroke-linejoin:round;stroke-miterlimit:10;stroke-dasharray:none;stroke-opacity:1"
   d="M 3750.0507,3640.832 L 3750.0507,3596.672" /><path
   id="path131"
   style="fill:none;stroke:#000000;stroke-width:5;stroke-linecap:butt;stroke-linejoin:round;stroke-miterlimit:10;stroke-dasharray:none;stroke-opacity:1"
   d="M 4190,123.332 L 4190,168.332" /><path
   id="path133"
   style="fill:none;stroke:#000000;stroke-width:5;stroke-linecap:butt;stroke-linejoin:round;stroke-miterlimit:10;stroke-dasharray:none;stroke-opacity:1"
   d="M 4196.7207,3640.832 L 4196.7207,3596.672" /><path
   id="path141"
   style="fill:none;stroke:#000000;stroke-width:5;stroke-linecap:butt;stroke-linejoin:round;stroke-miterlimit:10;stroke-dasharray:none;stroke-opacity:1"
   d="M 4637.5,123.332 L 4637.5,168.332" /><path
   id="path143"
   style="fill:none;stroke:#000000;stroke-width:5;stroke-linecap:butt;stroke-linejoin:round;stroke-miterlimit:10;stroke-dasharray:none;stroke-opacity:1"
   d="M 4644.2207,3640.832 L 4644.2207,3596.672" /><path
   id="path161"
   style="fill:none;stroke:#000000;stroke-width:5;stroke-linecap:butt;stroke-linejoin:round;stroke-miterlimit:10;stroke-dasharray:none;stroke-opacity:1"
   d="M 169.168,764.168 L 213.332,764.168" /><path
   id="path163"
   style="fill:none;stroke:#000000;stroke-width:5;stroke-linecap:butt;stroke-linejoin:round;stroke-miterlimit:10;stroke-dasharray:none;stroke-opacity:1"
   d="M 4637.5,764.168 L 4592.5,764.168" /><path
   id="path171"
   style="fill:none;stroke:#000000;stroke-width:5;stroke-linecap:butt;stroke-linejoin:round;stroke-miterlimit:10;stroke-dasharray:none;stroke-opacity:1"
   d="M 169.168,1405 L 213.332,1405" /><path
   id="path173"
   style="fill:none;stroke:#000000;stroke-width:5;stroke-linecap:butt;stroke-linejoin:round;stroke-miterlimit:10;stroke-dasharray:none;stroke-opacity:1"
   d="M 4637.5,1405 L 4592.5,1405" /><path
   id="path181"
   style="fill:none;stroke:#000000;stroke-width:5;stroke-linecap:butt;stroke-linejoin:round;stroke-miterlimit:10;stroke-dasharray:none;stroke-opacity:1"
   d="M 169.168,2045 L 213.332,2045" /><path
   id="path183"
   style="fill:none;stroke:#000000;stroke-width:5;stroke-linecap:butt;stroke-linejoin:round;stroke-miterlimit:10;stroke-dasharray:none;stroke-opacity:1"
   d="M 4637.5,2045 L 4592.5,2045" /><g
   transform="scale(10,10)"
   id="g185" /><path
   id="path191"
   style="fill:none;stroke:#000000;stroke-width:5;stroke-linecap:butt;stroke-linejoin:round;stroke-miterlimit:10;stroke-dasharray:none;stroke-opacity:1"
   d="M 169.168,2685.83 L 213.332,2685.83" /><path
   id="path193"
   style="fill:none;stroke:#000000;stroke-width:5;stroke-linecap:butt;stroke-linejoin:round;stroke-miterlimit:10;stroke-dasharray:none;stroke-opacity:1"
   d="M 4637.5,2685.83 L 4592.5,2685.83" /><g
   transform="scale(10,10)"
   id="g195" /><path
   id="path201"
   style="fill:none;stroke:#000000;stroke-width:5;stroke-linecap:butt;stroke-linejoin:round;stroke-miterlimit:10;stroke-dasharray:none;stroke-opacity:1"
   d="M 169.168,3325.83 L 213.332,3325.83" /><path
   id="path203"
   style="fill:none;stroke:#000000;stroke-width:5;stroke-linecap:butt;stroke-linejoin:round;stroke-miterlimit:10;stroke-dasharray:none;stroke-opacity:1"
   d="M 4637.5,3325.83 L 4592.5,3325.83" /><g
   transform="scale(10,10)"
   id="g205"><text
   id="text207"
   transform="matrix(1,0,0,-1,8.5,328.917)"><tspan
     id="tspan209"
     y="0"
     x="0"
     style="font-size:10px;font-variant:normal;font-weight:normal;writing-mode:lr-tb;fill:#000000;fill-opacity:1;fill-rule:nonzero;stroke:none;font-family:Helvetica;-inkscape-font-specification:Helvetica">1</tspan></text>

</g><path
   id="path211"
   style="fill:none;stroke:#000000;stroke-width:5;stroke-linecap:butt;stroke-linejoin:round;stroke-miterlimit:10;stroke-dasharray:none;stroke-opacity:1"
   d="M 175.88867,3640.832 L 4644.2207,3640.832" /><path
   id="path213"
   style="fill:none;stroke:#000000;stroke-width:5;stroke-linecap:butt;stroke-linejoin:round;stroke-miterlimit:10;stroke-dasharray:none;stroke-opacity:1"
   d="M 169.168,123.332 L 4637.5,123.332" /><path
   id="path215"
   style="fill:none;stroke:#000000;stroke-width:5;stroke-linecap:butt;stroke-linejoin:round;stroke-miterlimit:10;stroke-dasharray:none;stroke-opacity:1"
   d="M 4637.5,123.332 L 4637.5,3645.83" /><path
   id="path217"
   style="fill:none;stroke:#000000;stroke-width:5;stroke-linecap:butt;stroke-linejoin:round;stroke-miterlimit:10;stroke-dasharray:none;stroke-opacity:1"
   d="M 169.168,123.332 L 169.168,3645.83" /><path
   id="path3402"
   d="M 183.88861,3349.1486 L 2398.9896,3349.1486"
   style="fill:#0000ff;fill-opacity:1;fill-rule:evenodd;stroke:#0000ff;stroke-width:16;stroke-linecap:round;stroke-linejoin:round;marker-start:url(#Arrow2Mstart);marker-end:url(#Arrow2Mend);stroke-miterlimit:4;stroke-dasharray:none;stroke-opacity:1"
   sodipodi:nodetypes="cc" /><text
   transform="scale(1,-1)"
   sodipodi:linespacing="100%"
   id="text6817"
   y="-3200.832"
   x="1175.8887"
   style="font-size:160px;font-style:normal;font-variant:normal;font-weight:normal;font-stretch:normal;text-align:start;line-height:100%;writing-mode:lr-tb;text-anchor:start;fill:#000000;fill-opacity:1;stroke:none;stroke-width:1px;stroke-linecap:butt;stroke-linejoin:miter;stroke-opacity:1;font-family:AR BERKLEY;-inkscape-font-specification:AR BERKLEY"
   xml:space="preserve"><tspan
     y="-3200.832"
     x="1175.8887"
     id="tspan6819"
     sodipodi:role="line">Q</tspan></text>

<text
   transform="scale(1,-1)"
   sodipodi:linespacing="100%"
   id="text6821"
   y="-3124.2112"
   x="1286.7869"
   style="font-size:160px;font-style:normal;font-variant:normal;font-weight:normal;font-stretch:normal;text-align:start;line-height:100%;writing-mode:lr-tb;text-anchor:start;fill:#000000;fill-opacity:1;stroke:none;stroke-width:1px;stroke-linecap:butt;stroke-linejoin:miter;stroke-opacity:1;font-family:AR BERKLEY;-inkscape-font-specification:AR BERKLEY"
   xml:space="preserve"><tspan
     style="font-size:96px;font-style:italic;font-variant:normal;font-weight:normal;font-stretch:normal;text-align:start;line-height:100%;writing-mode:lr-tb;text-anchor:start;font-family:Times New Roman;-inkscape-font-specification:Times New Roman Italic"
     y="-3124.2112"
     x="1286.7869"
     id="tspan6823"
     sodipodi:role="line">1</tspan></text>

<path
   sodipodi:nodetypes="cc"
   id="path6827"
   d="M 187.87935,3429.1486 L 4631.8887,3429.1486"
   style="fill:#0000ff;fill-opacity:1;fill-rule:evenodd;stroke:#008000;stroke-width:16;stroke-linecap:round;stroke-linejoin:round;marker-start:url(#Arrow2Mstart);marker-end:url(#Arrow2Mend);stroke-miterlimit:4;stroke-dasharray:none;stroke-opacity:1" /><path
   sodipodi:nodetypes="cc"
   id="path6829"
   d="M 4807.8887,3349.1486 L 2407.8887,3349.1486"
   style="fill:none;fill-opacity:1;fill-rule:evenodd;stroke:#ff0000;stroke-width:16;stroke-linecap:round;stroke-linejoin:round;marker-start:url(#Arrow2Mstart);marker-end:url(#Arrow2Mend);stroke-miterlimit:4;stroke-dasharray:none;stroke-opacity:1" /><text
   transform="scale(1,-1)"
   sodipodi:linespacing="100%"
   id="text6833"
   y="-3520.832"
   x="2335.8887"
   style="font-size:160px;font-style:normal;font-variant:normal;font-weight:normal;font-stretch:normal;text-align:start;line-height:100%;writing-mode:lr-tb;text-anchor:start;fill:#000000;fill-opacity:1;stroke:none;stroke-width:1px;stroke-linecap:butt;stroke-linejoin:miter;stroke-opacity:1;font-family:AR BERKLEY;-inkscape-font-specification:AR BERKLEY"
   xml:space="preserve"><tspan
     y="-3520.832"
     x="2335.8887"
     id="tspan6835"
     sodipodi:role="line">Q</tspan></text>

<text
   transform="scale(1,-1)"
   sodipodi:linespacing="100%"
   id="text6837"
   y="-3439.2131"
   x="2453.5076"
   style="font-size:160px;font-style:normal;font-variant:normal;font-weight:normal;font-stretch:normal;text-align:start;line-height:100%;writing-mode:lr-tb;text-anchor:start;fill:#000000;fill-opacity:1;stroke:none;stroke-width:1px;stroke-linecap:butt;stroke-linejoin:miter;stroke-opacity:1;font-family:AR BERKLEY;-inkscape-font-specification:AR BERKLEY"
   xml:space="preserve"><tspan
     style="font-size:96px;font-style:italic;font-variant:normal;font-weight:normal;font-stretch:normal;text-align:start;line-height:100%;writing-mode:lr-tb;text-anchor:start;font-family:Times New Roman;-inkscape-font-specification:Times New Roman Italic"
     y="-3439.2131"
     x="2453.5076"
     id="tspan6839"
     sodipodi:role="line">2</tspan></text>

<text
   transform="scale(1,-1)"
   sodipodi:linespacing="100%"
   id="text6841"
   y="-3200.832"
   x="3455.8887"
   style="font-size:160px;font-style:normal;font-variant:normal;font-weight:normal;font-stretch:normal;text-align:start;line-height:100%;writing-mode:lr-tb;text-anchor:start;fill:#000000;fill-opacity:1;stroke:none;stroke-width:1px;stroke-linecap:butt;stroke-linejoin:miter;stroke-opacity:1;font-family:AR BERKLEY;-inkscape-font-specification:AR BERKLEY"
   xml:space="preserve"><tspan
     y="-3200.832"
     x="3455.8887"
     id="tspan6843"
     sodipodi:role="line">Q</tspan></text>

<text
   transform="scale(1,-1)"
   sodipodi:linespacing="100%"
   id="text6845"
   y="-3124.2112"
   x="3566.7869"
   style="font-size:160px;font-style:normal;font-variant:normal;font-weight:normal;font-stretch:normal;text-align:start;line-height:100%;writing-mode:lr-tb;text-anchor:start;fill:#000000;fill-opacity:1;stroke:none;stroke-width:1px;stroke-linecap:butt;stroke-linejoin:miter;stroke-opacity:1;font-family:AR BERKLEY;-inkscape-font-specification:AR BERKLEY"
   xml:space="preserve"><tspan
     style="font-size:96px;font-style:italic;font-variant:normal;font-weight:normal;font-stretch:normal;text-align:start;line-height:100%;writing-mode:lr-tb;text-anchor:start;font-family:Times New Roman;-inkscape-font-specification:Times New Roman Italic"
     y="-3124.2112"
     x="3566.7869"
     id="tspan6847"
     sodipodi:role="line">3</tspan></text>

<text
   transform="scale(1,-1)"
   sodipodi:linespacing="100%"
   id="text6857"
   y="-599.50873"
   x="1247.5924"
   style="font-size:160px;font-style:normal;font-variant:normal;font-weight:normal;font-stretch:normal;text-align:start;line-height:100%;writing-mode:lr-tb;text-anchor:start;fill:#000000;fill-opacity:1;stroke:none;stroke-width:1px;stroke-linecap:butt;stroke-linejoin:miter;stroke-opacity:1;font-family:Times New Roman;-inkscape-font-specification:Times New Roman"
   xml:space="preserve"><tspan
     y="-599.50873"
     x="1247.5924"
     id="tspan6859"
     sodipodi:role="line" /></text>




<text
   transform="scale(1,-1)"
   sodipodi:linespacing="100%"
   id="text6877"
   y="10.851397"
   x="2362.0981"
   style="font-size:160px;font-style:normal;font-variant:normal;font-weight:normal;font-stretch:normal;text-align:start;line-height:100%;writing-mode:lr-tb;text-anchor:start;fill:#000000;fill-opacity:1;stroke:none;stroke-width:1px;stroke-linecap:butt;stroke-linejoin:miter;stroke-opacity:1;font-family:Times New Roman;-inkscape-font-specification:Times New Roman"
   xml:space="preserve"><tspan
     style="font-style:italic;font-weight:bold;-inkscape-font-specification:Times New Roman Bold Italic"
     y="10.851397"
     x="2362.0981"
     id="tspan6879"
     sodipodi:role="line"><tspan
       style="font-weight:normal;-inkscape-font-specification:Times New Roman Italic"
       id="tspan2483">θ</tspan></tspan></text>


<text
   transform="scale(1,-1)"
   sodipodi:linespacing="100%"
   id="text6885"
   y="50.851395"
   x="2415.8887"
   style="font-size:96px;font-style:italic;font-variant:normal;font-weight:normal;font-stretch:normal;text-align:start;line-height:100%;writing-mode:lr-tb;text-anchor:start;fill:#000000;fill-opacity:1;stroke:none;stroke-width:1px;stroke-linecap:butt;stroke-linejoin:miter;stroke-opacity:1;font-family:Times New Roman;-inkscape-font-specification:Times New Roman Italic"
   xml:space="preserve"><tspan
     id="tspan6889"
     y="50.851395"
     x="2415.8887"
     sodipodi:role="line">2</tspan></text>




<text
   transform="scale(1,-1)"
   sodipodi:linespacing="100%"
   id="text2485"
   y="10.851398"
   x="122.09814"
   style="font-size:160px;font-style:normal;font-variant:normal;font-weight:normal;font-stretch:normal;text-align:start;line-height:100%;writing-mode:lr-tb;text-anchor:start;fill:#000000;fill-opacity:1;stroke:none;stroke-width:1px;stroke-linecap:butt;stroke-linejoin:miter;stroke-opacity:1;font-family:Times New Roman;-inkscape-font-specification:Times New Roman"
   xml:space="preserve"><tspan
     style="font-style:italic;font-weight:bold;-inkscape-font-specification:Times New Roman Bold Italic"
     y="10.851398"
     x="122.09814"
     id="tspan2487"
     sodipodi:role="line"><tspan
       style="font-weight:normal;-inkscape-font-specification:Times New Roman Italic"
       id="tspan2489">θ</tspan></tspan></text>
<text
   transform="scale(1,-1)"
   sodipodi:linespacing="100%"
   id="text2491"
   y="50.851395"
   x="175.88867"
   style="font-size:96px;font-style:italic;font-variant:normal;font-weight:normal;font-stretch:normal;text-align:start;line-height:100%;writing-mode:lr-tb;text-anchor:start;fill:#000000;fill-opacity:1;stroke:none;stroke-width:1px;stroke-linecap:butt;stroke-linejoin:miter;stroke-opacity:1;font-family:Times New Roman;-inkscape-font-specification:Times New Roman Italic"
   xml:space="preserve"><tspan
     id="tspan2493"
     y="50.851395"
     x="175.88867"
     sodipodi:role="line">1</tspan></text>
<text
   transform="scale(1,-1)"
   sodipodi:linespacing="100%"
   id="text2495"
   y="10.851399"
   x="4562.0981"
   style="font-size:160px;font-style:normal;font-variant:normal;font-weight:normal;font-stretch:normal;text-align:start;line-height:100%;writing-mode:lr-tb;text-anchor:start;fill:#000000;fill-opacity:1;stroke:none;stroke-width:1px;stroke-linecap:butt;stroke-linejoin:miter;stroke-opacity:1;font-family:Times New Roman;-inkscape-font-specification:Times New Roman"
   xml:space="preserve"><tspan
     style="font-style:italic;font-weight:bold;-inkscape-font-specification:Times New Roman Bold Italic"
     y="10.851399"
     x="4562.0981"
     id="tspan2497"
     sodipodi:role="line"><tspan
       style="font-weight:normal;-inkscape-font-specification:Times New Roman Italic"
       id="tspan2499">θ</tspan></tspan></text>
<text
   transform="scale(1,-1)"
   sodipodi:linespacing="100%"
   id="text2501"
   y="50.851395"
   x="4615.8887"
   style="font-size:96px;font-style:italic;font-variant:normal;font-weight:normal;font-stretch:normal;text-align:start;line-height:100%;writing-mode:lr-tb;text-anchor:start;fill:#000000;fill-opacity:1;stroke:none;stroke-width:1px;stroke-linecap:butt;stroke-linejoin:miter;stroke-opacity:1;font-family:Times New Roman;-inkscape-font-specification:Times New Roman Italic"
   xml:space="preserve"><tspan
     id="tspan2503"
     y="50.851395"
     x="4615.8887"
     sodipodi:role="line">3</tspan></text>
</g><g
         id="g219"><g
           id="g221"
           clip-path="url(#clipPath223)"><path
             d="M 169.168,3325.83 L 191.668,3293.33 L 214.168,3261.67 L 236.668,3229.17 L 259.168,3196.67 L 281.668,3164.17 L 304.168,3131.67 L 326.668,3100 L 349.168,3067.5 L 371.668,3035 L 394.168,3002.5 L 416.668,2970 L 439.168,2937.5 L 462.5,2905.83 L 485,2873.33 L 507.5,2840.83 L 530,2808.33 L 552.5,2775.83 L 575,2744.17 L 597.5,2711.67 L 620,2679.17 L 642.5,2646.67 L 665,2614.17 L 687.5,2581.67 L 710,2550 L 733.332,2517.5 L 755.832,2485 L 778.332,2452.5 L 800.832,2420 L 823.332,2388.33 L 845.832,2355.83 L 868.332,2323.33 L 890.832,2290.83 L 913.332,2258.33 L 935.832,2226.67 L 958.332,2194.17 L 980.832,2161.67 L 1003.33,2129.17 L 1026.67,2096.67 L 1049.17,2064.17 L 1071.67,2032.5 L 1094.17,2000 L 1116.67,1967.5 L 1139.17,1935 L 1161.67,1902.5 L 1184.17,1870.83 L 1206.67,1838.33 L 1229.17,1805.83 L 1251.67,1773.33 L 1274.17,1740.83 L 1297.5,1708.33 L 1320,1676.67 L 1342.5,1644.17 L 1365,1611.67 L 1387.5,1579.17 L 1410,1546.67 L 1432.5,1515 L 1455,1482.5 L 1477.5,1450 L 1500,1417.5 L 1522.5,1385 L 1545,1352.5 L 1568.33,1320.83 L 1590.83,1288.33 L 1613.33,1255.83 L 1635.83,1223.33 L 1658.33,1190.83 L 1680.83,1159.17 L 1703.33,1126.67 L 1725.83,1094.17 L 1748.33,1061.67 L 1770.83,1029.17 L 1793.33,997.5 L 1815.83,965 L 1838.33,932.5 L 1861.67,900 L 1884.17,867.5 L 1906.67,835 L 1929.17,803.332 L 1951.67,770.832 L 1974.17,738.332 L 1996.67,705.832 L 2019.17,673.332 L 2041.67,641.668 L 2064.17,609.168 L 2086.67,576.668 L 2109.17,544.168 L 2132.5,511.668 L 2155,479.168 L 2177.5,447.5 L 2200,415 L 2222.5,382.5 L 2245,350 L 2267.5,317.5 L 2290,285.832 L 2312.5,253.332 L 2335,220.832 L 2357.5,188.332 L 2380,155.832 L 2403.33,123.332"
             style="fill:none;stroke:#0000ff;stroke-width:15;stroke-linecap:butt;stroke-linejoin:round;stroke-miterlimit:10;stroke-dasharray:none;stroke-opacity:1"
             id="path227" /><path
             d="M 2403.33,3325.83 L 2425.83,3293.33 L 2448.33,3261.67 L 2470.83,3229.17 L 2493.33,3196.67 L 2515.83,3164.17 L 2538.33,3131.67 L 2560.83,3100 L 2583.33,3067.5 L 2605.83,3035 L 2628.33,3002.5 L 2650.83,2970 L 2673.33,2937.5 L 2696.67,2905.83 L 2719.17,2873.33 L 2741.67,2840.83 L 2764.17,2808.33 L 2786.67,2775.83 L 2809.17,2744.17 L 2831.67,2711.67 L 2854.17,2679.17 L 2876.67,2646.67 L 2899.17,2614.17 L 2921.67,2581.67 L 2944.17,2550 L 2967.5,2517.5 L 2990,2485 L 3012.5,2452.5 L 3035,2420 L 3057.5,2388.33 L 3080,2355.83 L 3102.5,2323.33 L 3125,2290.83 L 3147.5,2258.33 L 3170,2226.67 L 3192.5,2194.17 L 3215,2161.67 L 3237.5,2129.17 L 3260.83,2096.67 L 3283.33,2064.17 L 3305.83,2032.5 L 3328.33,2000 L 3350.83,1967.5 L 3373.33,1935 L 3395.83,1902.5 L 3418.33,1870.83 L 3440.83,1838.33 L 3463.33,1805.83 L 3485.83,1773.33 L 3508.33,1740.83 L 3531.67,1708.33 L 3554.17,1676.67 L 3576.67,1644.17 L 3599.17,1611.67 L 3621.67,1579.17 L 3644.17,1546.67 L 3666.67,1515 L 3689.17,1482.5 L 3711.67,1450 L 3734.17,1417.5 L 3756.67,1385 L 3779.17,1352.5 L 3802.5,1320.83 L 3825,1288.33 L 3847.5,1255.83 L 3870,1223.33 L 3892.5,1190.83 L 3915,1159.17 L 3937.5,1126.67 L 3960,1094.17 L 3982.5,1061.67 L 4005,1029.17 L 4027.5,997.5 L 4050,965 L 4072.5,932.5 L 4095.83,900 L 4118.33,867.5 L 4140.83,835 L 4163.33,803.332 L 4185.83,770.832 L 4208.33,738.332 L 4230.83,705.832 L 4253.33,673.332 L 4275.83,641.668 L 4298.33,609.168 L 4320.83,576.668 L 4343.33,544.168 L 4366.67,511.668 L 4389.17,479.168 L 4411.67,447.5 L 4434.17,415 L 4456.67,382.5 L 4479.17,350 L 4501.67,317.5 L 4524.17,285.832 L 4546.67,253.332 L 4569.17,220.832 L 4591.67,188.332 L 4614.17,155.832 L 4637.5,123.332"
             style="fill:none;stroke:#008000;stroke-width:15;stroke-linecap:butt;stroke-linejoin:round;stroke-miterlimit:10;stroke-dasharray:none;stroke-opacity:1"
             id="path229" /><path
             d="M 169.168,123.332 L 191.668,155.832 L 214.168,188.332 L 236.668,220.832 L 259.168,253.332 L 281.668,285.832 L 304.168,317.5 L 326.668,350 L 349.168,382.5 L 371.668,415 L 394.168,447.5 L 416.668,479.168 L 439.168,511.668 L 462.5,544.168 L 485,576.668 L 507.5,609.168 L 530,641.668 L 552.5,673.332 L 575,705.832 L 597.5,738.332 L 620,770.832 L 642.5,803.332 L 665,835 L 687.5,867.5 L 710,900 L 733.332,932.5 L 755.832,965 L 778.332,997.5 L 800.832,1029.17 L 823.332,1061.67 L 845.832,1094.17 L 868.332,1126.67 L 890.832,1159.17 L 913.332,1190.83 L 935.832,1223.33 L 958.332,1255.83 L 980.832,1288.33 L 1003.33,1320.83 L 1026.67,1352.5 L 1049.17,1385 L 1071.67,1417.5 L 1094.17,1450 L 1116.67,1482.5 L 1139.17,1515 L 1161.67,1546.67 L 1184.17,1579.17 L 1206.67,1611.67 L 1229.17,1644.17 L 1251.67,1676.67 L 1274.17,1708.33 L 1297.5,1740.83 L 1320,1773.33 L 1342.5,1805.83 L 1365,1838.33 L 1387.5,1870.83 L 1410,1902.5 L 1432.5,1935 L 1455,1967.5 L 1477.5,2000 L 1500,2032.5 L 1522.5,2064.17 L 1545,2096.67 L 1568.33,2129.17 L 1590.83,2161.67 L 1613.33,2194.17 L 1635.83,2226.67 L 1658.33,2258.33 L 1680.83,2290.83 L 1703.33,2323.33 L 1725.83,2355.83 L 1748.33,2388.33 L 1770.83,2420 L 1793.33,2452.5 L 1815.83,2485 L 1838.33,2517.5 L 1861.67,2550 L 1884.17,2581.67 L 1906.67,2614.17 L 1929.17,2646.67 L 1951.67,2679.17 L 1974.17,2711.67 L 1996.67,2744.17 L 2019.17,2775.83 L 2041.67,2808.33 L 2064.17,2840.83 L 2086.67,2873.33 L 2109.17,2905.83 L 2132.5,2937.5 L 2155,2970 L 2177.5,3002.5 L 2200,3035 L 2222.5,3067.5 L 2245,3100 L 2267.5,3131.67 L 2290,3164.17 L 2312.5,3196.67 L 2335,3229.17 L 2357.5,3261.67 L 2380,3293.33 L 2403.33,3325.83"
             style="fill:none;stroke:#008000;stroke-width:15;stroke-linecap:butt;stroke-linejoin:round;stroke-miterlimit:10;stroke-dasharray:none;stroke-opacity:1"
             id="path231" /><path
             d="M 2403.33,123.332 L 2425.83,155.832 L 2448.33,188.332 L 2470.83,220.832 L 2493.33,253.332 L 2515.83,285.832 L 2538.33,317.5 L 2560.83,350 L 2583.33,382.5 L 2605.83,415 L 2628.33,447.5 L 2650.83,479.168 L 2673.33,511.668 L 2696.67,544.168 L 2719.17,576.668 L 2741.67,609.168 L 2764.17,641.668 L 2786.67,673.332 L 2809.17,705.832 L 2831.67,738.332 L 2854.17,770.832 L 2876.67,803.332 L 2899.17,835 L 2921.67,867.5 L 2944.17,900 L 2967.5,932.5 L 2990,965 L 3012.5,997.5 L 3035,1029.17 L 3057.5,1061.67 L 3080,1094.17 L 3102.5,1126.67 L 3125,1159.17 L 3147.5,1190.83 L 3170,1223.33 L 3192.5,1255.83 L 3215,1288.33 L 3237.5,1320.83 L 3260.83,1352.5 L 3283.33,1385 L 3305.83,1417.5 L 3328.33,1450 L 3350.83,1482.5 L 3373.33,1515 L 3395.83,1546.67 L 3418.33,1579.17 L 3440.83,1611.67 L 3463.33,1644.17 L 3485.83,1676.67 L 3508.33,1708.33 L 3531.67,1740.83 L 3554.17,1773.33 L 3576.67,1805.83 L 3599.17,1838.33 L 3621.67,1870.83 L 3644.17,1902.5 L 3666.67,1935 L 3689.17,1967.5 L 3711.67,2000 L 3734.17,2032.5 L 3756.67,2064.17 L 3779.17,2096.67 L 3802.5,2129.17 L 3825,2161.67 L 3847.5,2194.17 L 3870,2226.67 L 3892.5,2258.33 L 3915,2290.83 L 3937.5,2323.33 L 3960,2355.83 L 3982.5,2388.33 L 4005,2420 L 4027.5,2452.5 L 4050,2485 L 4072.5,2517.5 L 4095.83,2550 L 4118.33,2581.67 L 4140.83,2614.17 L 4163.33,2646.67 L 4185.83,2679.17 L 4208.33,2711.67 L 4230.83,2744.17 L 4253.33,2775.83 L 4275.83,2808.33 L 4298.33,2840.83 L 4320.83,2873.33 L 4343.33,2905.83 L 4366.67,2937.5 L 4389.17,2970 L 4411.67,3002.5 L 4434.17,3035 L 4456.67,3067.5 L 4479.17,3100 L 4501.67,3131.67 L 4524.17,3164.17 L 4546.67,3196.67 L 4569.17,3229.17 L 4591.67,3261.67 L 4614.17,3293.33 L 4637.5,3325.83"
             style="fill:none;stroke:#ff0000;stroke-width:15;stroke-linecap:butt;stroke-linejoin:round;stroke-miterlimit:10;stroke-dasharray:none;stroke-opacity:1"
             id="path233" /></g></g></g></g></svg>