<?xml version="1.0" encoding="UTF-8" standalone="no"?>
<!-- Created with Inkscape (http://www.inkscape.org/) -->
<svg
   xmlns:dc="http://purl.org/dc/elements/1.1/"
   xmlns:cc="http://creativecommons.org/ns#"
   xmlns:rdf="http://www.w3.org/1999/02/22-rdf-syntax-ns#"
   xmlns:svg="http://www.w3.org/2000/svg"
   xmlns="http://www.w3.org/2000/svg"
   xmlns:sodipodi="http://sodipodi.sourceforge.net/DTD/sodipodi-0.dtd"
   xmlns:inkscape="http://www.inkscape.org/namespaces/inkscape"
   id="svg2"
   sodipodi:version="0.32"
   inkscape:version="0.46"
   width="587.5"
   height="460"
   xml:space="preserve"
   sodipodi:docname="2nd.svg"
   inkscape:output_extension="org.inkscape.output.svg.inkscape"><metadata
     id="metadata7"><rdf:RDF><cc:Work
         rdf:about=""><dc:format>image/svg+xml</dc:format><dc:type
           rdf:resource="http://purl.org/dc/dcmitype/StillImage" /></cc:Work></rdf:RDF></metadata><defs
     id="defs5"><inkscape:perspective
       sodipodi:type="inkscape:persp3d"
       inkscape:vp_x="0 : 526.18109 : 1"
       inkscape:vp_y="0 : 1000 : 0"
       inkscape:vp_z="744.09448 : 526.18109 : 1"
       inkscape:persp3d-origin="372.04724 : 350.78739 : 1"
       id="perspective9" /><clipPath
       clipPathUnits="userSpaceOnUse"
       id="clipPath19"><path
         d="M 1.66797,1.66797 L 4699.998,1.66797 L 4699.998,3679.998 L 1.66797,3679.998 L 1.66797,1.66797 z"
         id="path21" /></clipPath><clipPath
       clipPathUnits="userSpaceOnUse"
       id="clipPath223"><path
         d="M 169.168,3645.83 L 169.168,122.5 L 4638.33,122.5 L 4638.33,3645.83 L 169.168,3645.83 z"
         id="path225" /></clipPath></defs><sodipodi:namedview
     inkscape:window-height="706"
     inkscape:window-width="1366"
     inkscape:pageshadow="2"
     inkscape:pageopacity="0.0"
     guidetolerance="10.0"
     gridtolerance="10.0"
     objecttolerance="10.0"
     borderopacity="1.0"
     bordercolor="#666666"
     pagecolor="#ffffff"
     id="base"
     showgrid="false"
     inkscape:zoom="0.92595745"
     inkscape:cx="293.75"
     inkscape:cy="230"
     inkscape:window-x="-8"
     inkscape:window-y="-8"
     inkscape:current-layer="g17" /><g
     id="g11"
     inkscape:groupmode="layer"
     inkscape:label="2nd"
     transform="matrix(1.25,0,0,-1.25,0,460)"><g
       id="g13"
       transform="scale(0.1,0.1)"><g
         id="g15"><g
           id="g17"
           clip-path="url(#clipPath19)"><path
             d="M 0,0 L 4700,0 L 4700,3680 L 0,3680 L 0,0 z"
             style="fill:#ffffff;fill-opacity:1;fill-rule:nonzero;stroke:none"
             id="path23" /><path
             d="M 169.168,123.332 L 4637.498,123.332 L 4637.498,3645.832 L 169.168,3645.832 L 169.168,123.332 z"
             style="fill:#ffffff;fill-opacity:1;fill-rule:evenodd;stroke:none"
             id="path25" /><path
             d="M 169.168,123.332 L 169.168,3645.83 L 4637.5,3645.83 L 4637.5,123.332 L 169.168,123.332"
             style="fill:none;stroke:#ffffff;stroke-opacity:1;stroke-width:5;stroke-linecap:butt;stroke-linejoin:round;stroke-miterlimit:10;stroke-dasharray:none"
             id="path27" /><path
             d="M 169.168,3645.83 L 4637.5,3645.83"
             style="fill:none;stroke:#000000;stroke-opacity:1;stroke-width:5;stroke-linecap:butt;stroke-linejoin:round;stroke-miterlimit:10;stroke-dasharray:none"
             id="path29" /><path
             d="M 169.168,123.332 L 4637.5,123.332"
             style="fill:none;stroke:#000000;stroke-opacity:1;stroke-width:5;stroke-linecap:butt;stroke-linejoin:round;stroke-miterlimit:10;stroke-dasharray:none"
             id="path31" /><path
             d="M 4637.5,123.332 L 4637.5,3645.83"
             style="fill:none;stroke:#000000;stroke-opacity:1;stroke-width:5;stroke-linecap:butt;stroke-linejoin:round;stroke-miterlimit:10;stroke-dasharray:none"
             id="path33" /><path
             d="M 169.168,123.332 L 169.168,3645.83"
             style="fill:none;stroke:#000000;stroke-opacity:1;stroke-width:5;stroke-linecap:butt;stroke-linejoin:round;stroke-miterlimit:10;stroke-dasharray:none"
             id="path35" /><path
             d="M 169.168,123.332 L 4637.5,123.332"
             style="fill:none;stroke:#000000;stroke-opacity:1;stroke-width:5;stroke-linecap:butt;stroke-linejoin:round;stroke-miterlimit:10;stroke-dasharray:none"
             id="path37" /><path
             d="M 169.168,123.332 L 169.168,3645.83"
             style="fill:none;stroke:#000000;stroke-opacity:1;stroke-width:5;stroke-linecap:butt;stroke-linejoin:round;stroke-miterlimit:10;stroke-dasharray:none"
             id="path39" /><path
             d="M 169.168,123.332 L 169.168,168.332"
             style="fill:none;stroke:#000000;stroke-opacity:1;stroke-width:5;stroke-linecap:butt;stroke-linejoin:round;stroke-miterlimit:10;stroke-dasharray:none"
             id="path41" /><path
             d="M 169.168,3645.83 L 169.168,3601.67"
             style="fill:none;stroke:#000000;stroke-opacity:1;stroke-width:5;stroke-linecap:butt;stroke-linejoin:round;stroke-miterlimit:10;stroke-dasharray:none"
             id="path43" /><g
             id="g45"
             transform="scale(10,10)"><text
               transform="matrix(1,0,0,-1,14.1668,0.25)"
               id="text47"><tspan
                 style="fill:#000000;fill-opacity:1;fill-rule:nonzero;stroke:none;font-family:Helvetica;font-variant:normal;font-weight:normal;font-size:10;writing-mode:lr;-inkscape-font-specification:Helvetica"
                 x="0"
                 y="0"
                 id="tspan49">0</tspan></text>
</g><path
             d="M 615.832,123.332 L 615.832,168.332"
             style="fill:none;stroke:#000000;stroke-opacity:1;stroke-width:5;stroke-linecap:butt;stroke-linejoin:round;stroke-miterlimit:10;stroke-dasharray:none"
             id="path51" /><path
             d="M 615.832,3645.83 L 615.832,3601.67"
             style="fill:none;stroke:#000000;stroke-opacity:1;stroke-width:5;stroke-linecap:butt;stroke-linejoin:round;stroke-miterlimit:10;stroke-dasharray:none"
             id="path53" /><path
             d="M 1062.5,123.332 L 1062.5,168.332"
             style="fill:none;stroke:#000000;stroke-opacity:1;stroke-width:5;stroke-linecap:butt;stroke-linejoin:round;stroke-miterlimit:10;stroke-dasharray:none"
             id="path61" /><path
             d="M 1062.5,3645.83 L 1062.5,3601.67"
             style="fill:none;stroke:#000000;stroke-opacity:1;stroke-width:5;stroke-linecap:butt;stroke-linejoin:round;stroke-miterlimit:10;stroke-dasharray:none"
             id="path63" /><path
             d="M 1509.17,123.332 L 1509.17,168.332"
             style="fill:none;stroke:#000000;stroke-opacity:1;stroke-width:5;stroke-linecap:butt;stroke-linejoin:round;stroke-miterlimit:10;stroke-dasharray:none"
             id="path71" /><path
             d="M 1509.17,3645.83 L 1509.17,3601.67"
             style="fill:none;stroke:#000000;stroke-opacity:1;stroke-width:5;stroke-linecap:butt;stroke-linejoin:round;stroke-miterlimit:10;stroke-dasharray:none"
             id="path73" /><path
             d="M 1955.83,123.332 L 1955.83,168.332"
             style="fill:none;stroke:#000000;stroke-opacity:1;stroke-width:5;stroke-linecap:butt;stroke-linejoin:round;stroke-miterlimit:10;stroke-dasharray:none"
             id="path81" /><path
             d="M 1955.83,3645.83 L 1955.83,3601.67"
             style="fill:none;stroke:#000000;stroke-opacity:1;stroke-width:5;stroke-linecap:butt;stroke-linejoin:round;stroke-miterlimit:10;stroke-dasharray:none"
             id="path83" /><path
             d="M 2403.33,123.332 L 2403.33,168.332"
             style="fill:none;stroke:#000000;stroke-opacity:1;stroke-width:5;stroke-linecap:butt;stroke-linejoin:round;stroke-miterlimit:10;stroke-dasharray:none"
             id="path91" /><path
             d="M 2403.33,3645.83 L 2403.33,3601.67"
             style="fill:none;stroke:#000000;stroke-opacity:1;stroke-width:5;stroke-linecap:butt;stroke-linejoin:round;stroke-miterlimit:10;stroke-dasharray:none"
             id="path93" /><g
             id="g95"
             transform="scale(10,10)"><text
               transform="matrix(1,0,0,-1,237.583,0.25)"
               id="text97"><tspan
                 style="fill:#000000;fill-opacity:1;fill-rule:nonzero;stroke:none;font-family:Helvetica;font-variant:normal;font-weight:normal;font-size:10;writing-mode:lr;-inkscape-font-specification:Helvetica"
                 x="0"
                 y="0"
                 id="tspan99">1</tspan></text>
</g><path
             d="M 2850,123.332 L 2850,168.332"
             style="fill:none;stroke:#000000;stroke-opacity:1;stroke-width:5;stroke-linecap:butt;stroke-linejoin:round;stroke-miterlimit:10;stroke-dasharray:none"
             id="path101" /><path
             d="M 2850,3645.83 L 2850,3601.67"
             style="fill:none;stroke:#000000;stroke-opacity:1;stroke-width:5;stroke-linecap:butt;stroke-linejoin:round;stroke-miterlimit:10;stroke-dasharray:none"
             id="path103" /><path
             d="M 3296.67,123.332 L 3296.67,168.332"
             style="fill:none;stroke:#000000;stroke-opacity:1;stroke-width:5;stroke-linecap:butt;stroke-linejoin:round;stroke-miterlimit:10;stroke-dasharray:none"
             id="path111" /><path
             d="M 3296.67,3645.83 L 3296.67,3601.67"
             style="fill:none;stroke:#000000;stroke-opacity:1;stroke-width:5;stroke-linecap:butt;stroke-linejoin:round;stroke-miterlimit:10;stroke-dasharray:none"
             id="path113" /><g
             id="g115"
             transform="scale(10,10)" /><path
             d="M 3743.33,123.332 L 3743.33,168.332"
             style="fill:none;stroke:#000000;stroke-opacity:1;stroke-width:5;stroke-linecap:butt;stroke-linejoin:round;stroke-miterlimit:10;stroke-dasharray:none"
             id="path121" /><path
             d="M 3743.33,3645.83 L 3743.33,3601.67"
             style="fill:none;stroke:#000000;stroke-opacity:1;stroke-width:5;stroke-linecap:butt;stroke-linejoin:round;stroke-miterlimit:10;stroke-dasharray:none"
             id="path123" /><path
             d="M 4190,123.332 L 4190,168.332"
             style="fill:none;stroke:#000000;stroke-opacity:1;stroke-width:5;stroke-linecap:butt;stroke-linejoin:round;stroke-miterlimit:10;stroke-dasharray:none"
             id="path131" /><path
             d="M 4190,3645.83 L 4190,3601.67"
             style="fill:none;stroke:#000000;stroke-opacity:1;stroke-width:5;stroke-linecap:butt;stroke-linejoin:round;stroke-miterlimit:10;stroke-dasharray:none"
             id="path133" /><path
             d="M 4637.5,123.332 L 4637.5,168.332"
             style="fill:none;stroke:#000000;stroke-opacity:1;stroke-width:5;stroke-linecap:butt;stroke-linejoin:round;stroke-miterlimit:10;stroke-dasharray:none"
             id="path141" /><path
             d="M 4637.5,3645.83 L 4637.5,3601.67"
             style="fill:none;stroke:#000000;stroke-opacity:1;stroke-width:5;stroke-linecap:butt;stroke-linejoin:round;stroke-miterlimit:10;stroke-dasharray:none"
             id="path143" /><g
             id="g145"
             transform="scale(10,10)"><text
               transform="matrix(1,0,0,-1,461,0.25)"
               id="text147"><tspan
                 style="fill:#000000;fill-opacity:1;fill-rule:nonzero;stroke:none;font-family:Helvetica;font-variant:normal;font-weight:normal;font-size:10;writing-mode:lr;-inkscape-font-specification:Helvetica"
                 x="0"
                 y="0"
                 id="tspan149">2</tspan></text>
</g><path
             d="M 169.168,483.332 L 213.332,483.332"
             style="fill:none;stroke:#000000;stroke-opacity:1;stroke-width:5;stroke-linecap:butt;stroke-linejoin:round;stroke-miterlimit:10;stroke-dasharray:none"
             id="path151" /><path
             d="M 4637.5,483.332 L 4592.5,483.332"
             style="fill:none;stroke:#000000;stroke-opacity:1;stroke-width:5;stroke-linecap:butt;stroke-linejoin:round;stroke-miterlimit:10;stroke-dasharray:none"
             id="path153" /><g
             id="g155"
             transform="scale(10,10)"><text
               transform="matrix(1,0,0,-1,8.5,44.6668)"
               id="text157"><tspan
                 style="fill:#000000;fill-opacity:1;fill-rule:nonzero;stroke:none;font-family:Helvetica;font-variant:normal;font-weight:normal;font-size:10;writing-mode:lr;-inkscape-font-specification:Helvetica"
                 x="0"
                 y="0"
                 id="tspan159">0</tspan></text>
</g><path
             d="M 169.168,1058.33 L 213.332,1058.33"
             style="fill:none;stroke:#000000;stroke-opacity:1;stroke-width:5;stroke-linecap:butt;stroke-linejoin:round;stroke-miterlimit:10;stroke-dasharray:none"
             id="path161" /><path
             d="M 4637.5,1058.33 L 4592.5,1058.33"
             style="fill:none;stroke:#000000;stroke-opacity:1;stroke-width:5;stroke-linecap:butt;stroke-linejoin:round;stroke-miterlimit:10;stroke-dasharray:none"
             id="path163" /><path
             d="M 169.168,1633.33 L 213.332,1633.33"
             style="fill:none;stroke:#000000;stroke-opacity:1;stroke-width:5;stroke-linecap:butt;stroke-linejoin:round;stroke-miterlimit:10;stroke-dasharray:none"
             id="path171" /><path
             d="M 4637.5,1633.33 L 4592.5,1633.33"
             style="fill:none;stroke:#000000;stroke-opacity:1;stroke-width:5;stroke-linecap:butt;stroke-linejoin:round;stroke-miterlimit:10;stroke-dasharray:none"
             id="path173" /><path
             d="M 169.168,2208.33 L 213.332,2208.33"
             style="fill:none;stroke:#000000;stroke-opacity:1;stroke-width:5;stroke-linecap:butt;stroke-linejoin:round;stroke-miterlimit:10;stroke-dasharray:none"
             id="path181" /><path
             d="M 4637.5,2208.33 L 4592.5,2208.33"
             style="fill:none;stroke:#000000;stroke-opacity:1;stroke-width:5;stroke-linecap:butt;stroke-linejoin:round;stroke-miterlimit:10;stroke-dasharray:none"
             id="path183" /><path
             d="M 169.168,2783.33 L 213.332,2783.33"
             style="fill:none;stroke:#000000;stroke-opacity:1;stroke-width:5;stroke-linecap:butt;stroke-linejoin:round;stroke-miterlimit:10;stroke-dasharray:none"
             id="path191" /><path
             d="M 4637.5,2783.33 L 4592.5,2783.33"
             style="fill:none;stroke:#000000;stroke-opacity:1;stroke-width:5;stroke-linecap:butt;stroke-linejoin:round;stroke-miterlimit:10;stroke-dasharray:none"
             id="path193" /><path
             d="M 169.168,3358.33 L 213.332,3358.33"
             style="fill:none;stroke:#000000;stroke-opacity:1;stroke-width:5;stroke-linecap:butt;stroke-linejoin:round;stroke-miterlimit:10;stroke-dasharray:none"
             id="path201" /><path
             d="M 4637.5,3358.33 L 4592.5,3358.33"
             style="fill:none;stroke:#000000;stroke-opacity:1;stroke-width:5;stroke-linecap:butt;stroke-linejoin:round;stroke-miterlimit:10;stroke-dasharray:none"
             id="path203" /><g
             id="g205"
             transform="scale(10,10)"><text
               transform="matrix(1,0,0,-1,8.5,332.167)"
               id="text207"><tspan
                 style="fill:#000000;fill-opacity:1;fill-rule:nonzero;stroke:none;font-family:Helvetica;font-variant:normal;font-weight:normal;font-size:10;writing-mode:lr;-inkscape-font-specification:Helvetica"
                 x="0"
                 y="0"
                 id="tspan209">1</tspan></text>
</g><path
             d="M 169.168,3645.83 L 4637.5,3645.83"
             style="fill:none;stroke:#000000;stroke-opacity:1;stroke-width:5;stroke-linecap:butt;stroke-linejoin:round;stroke-miterlimit:10;stroke-dasharray:none"
             id="path211" /><path
             d="M 169.168,123.332 L 4637.5,123.332"
             style="fill:none;stroke:#000000;stroke-opacity:1;stroke-width:5;stroke-linecap:butt;stroke-linejoin:round;stroke-miterlimit:10;stroke-dasharray:none"
             id="path213" /><path
             d="M 4637.5,123.332 L 4637.5,3645.83"
             style="fill:none;stroke:#000000;stroke-opacity:1;stroke-width:5;stroke-linecap:butt;stroke-linejoin:round;stroke-miterlimit:10;stroke-dasharray:none"
             id="path215" /><path
             d="M 169.168,123.332 L 169.168,3645.83"
             style="fill:none;stroke:#000000;stroke-opacity:1;stroke-width:5;stroke-linecap:butt;stroke-linejoin:round;stroke-miterlimit:10;stroke-dasharray:none"
             id="path217" /></g></g><g
         id="g219"><g
           id="g221"
           clip-path="url(#clipPath223)"><path
             d="M 169.168,3358.33 L 214.168,3272.5 L 259.168,3186.67 L 304.168,3102.5 L 349.168,3019.17 L 394.168,2937.5 L 439.168,2856.67 L 485,2777.5 L 530,2699.17 L 575,2621.67 L 620,2545.83 L 665,2470.83 L 710,2397.5 L 755.832,2325 L 800.832,2254.17 L 845.832,2183.33 L 890.832,2115 L 935.832,2046.67 L 980.832,1980 L 1026.67,1915 L 1071.67,1850.83 L 1116.67,1787.5 L 1161.67,1725.83 L 1206.67,1665 L 1251.67,1605 L 1297.5,1546.67 L 1342.5,1490 L 1387.5,1433.33 L 1432.5,1379.17 L 1477.5,1325 L 1522.5,1272.5 L 1568.33,1221.67 L 1613.33,1170.83 L 1658.33,1122.5 L 1703.33,1074.17 L 1748.33,1027.5 L 1793.33,982.5 L 1838.33,937.5 L 1884.17,895 L 1929.17,852.5 L 1974.17,811.668 L 2019.17,772.5 L 2064.17,734.168 L 2109.17,696.668 L 2155,660.832 L 2200,625.832 L 2245,591.668 L 2290,559.168 L 2335,528.332 L 2380,497.5 L 2425.83,469.168 L 2470.83,440.832 L 2515.83,414.168 L 2560.83,388.332 L 2605.83,364.168 L 2650.83,340.832 L 2696.67,319.168 L 2741.67,298.332 L 2786.67,278.332 L 2831.67,260 L 2876.67,242.5 L 2921.67,226.668 L 2967.5,211.668 L 3012.5,198.332 L 3057.5,185 L 3102.5,174.168 L 3147.5,163.332 L 3192.5,154.168 L 3237.5,146.668 L 3283.33,140 L 3328.33,134.168 L 3373.33,130 L 3418.33,126.668 L 3463.33,125 L 3508.33,123.332 L 3554.17,124.168 L 3599.17,125.832 L 3644.17,128.332 L 3689.17,131.668 L 3734.17,136.668 L 3779.17,143.332 L 3825,150.832 L 3870,159.168 L 3915,168.332 L 3960,179.168 L 4005,191.668 L 4050,205 L 4095.83,219.168 L 4140.83,235 L 4185.83,251.668 L 4230.83,269.168 L 4275.83,288.332 L 4320.83,308.332 L 4366.67,330 L 4411.67,352.5 L 4456.67,376.668 L 4501.67,401.668 L 4546.67,427.5 L 4591.67,455 L 4637.5,483.332"
             style="fill:none;stroke:#0000ff;stroke-opacity:1;stroke-width:15;stroke-linecap:butt;stroke-linejoin:round;stroke-miterlimit:10;stroke-dasharray:none"
             id="path227" /><path
             d="M 169.168,483.332 L 214.168,598.332 L 259.168,710.832 L 304.168,820.832 L 349.168,929.168 L 394.168,1035 L 439.168,1138.33 L 485,1239.17 L 530,1337.5 L 575,1433.33 L 620,1527.5 L 665,1619.17 L 710,1708.33 L 755.832,1795 L 800.832,1880 L 845.832,1961.67 L 890.832,2041.67 L 935.832,2119.17 L 980.832,2194.17 L 1026.67,2266.67 L 1071.67,2337.5 L 1116.67,2405.83 L 1161.67,2470.83 L 1206.67,2534.17 L 1251.67,2595.83 L 1297.5,2654.17 L 1342.5,2710.83 L 1387.5,2764.17 L 1432.5,2815.83 L 1477.5,2865.83 L 1522.5,2912.5 L 1568.33,2956.67 L 1613.33,2999.17 L 1658.33,3039.17 L 1703.33,3076.67 L 1748.33,3111.67 L 1793.33,3145 L 1838.33,3175 L 1884.17,3203.33 L 1929.17,3229.17 L 1974.17,3252.5 L 2019.17,3274.17 L 2064.17,3292.5 L 2109.17,3309.17 L 2155,3323.33 L 2200,3335 L 2245,3344.17 L 2290,3351.67 L 2335,3355.83 L 2380,3358.33 L 2425.83,3358.33 L 2470.83,3355.83 L 2515.83,3351.67 L 2560.83,3344.17 L 2605.83,3335 L 2650.83,3323.33 L 2696.67,3309.17 L 2741.67,3292.5 L 2786.67,3274.17 L 2831.67,3252.5 L 2876.67,3229.17 L 2921.67,3203.33 L 2967.5,3175 L 3012.5,3145 L 3057.5,3111.67 L 3102.5,3076.67 L 3147.5,3039.17 L 3192.5,2999.17 L 3237.5,2956.67 L 3283.33,2912.5 L 3328.33,2865.83 L 3373.33,2815.83 L 3418.33,2764.17 L 3463.33,2710.83 L 3508.33,2654.17 L 3554.17,2595.83 L 3599.17,2534.17 L 3644.17,2470.83 L 3689.17,2405.83 L 3734.17,2337.5 L 3779.17,2266.67 L 3825,2194.17 L 3870,2119.17 L 3915,2041.67 L 3960,1961.67 L 4005,1880 L 4050,1795 L 4095.83,1708.33 L 4140.83,1619.17 L 4185.83,1527.5 L 4230.83,1433.33 L 4275.83,1337.5 L 4320.83,1239.17 L 4366.67,1138.33 L 4411.67,1035 L 4456.67,929.168 L 4501.67,820.832 L 4546.67,710.832 L 4591.67,598.332 L 4637.5,483.332"
             style="fill:none;stroke:#008000;stroke-opacity:1;stroke-width:15;stroke-linecap:butt;stroke-linejoin:round;stroke-miterlimit:10;stroke-dasharray:none"
             id="path229" /><path
             d="M 169.168,483.332 L 214.168,455 L 259.168,427.5 L 304.168,401.668 L 349.168,376.668 L 394.168,352.5 L 439.168,330 L 485,308.332 L 530,288.332 L 575,269.168 L 620,251.668 L 665,235 L 710,219.168 L 755.832,205 L 800.832,191.668 L 845.832,179.168 L 890.832,168.332 L 935.832,159.168 L 980.832,150.832 L 1026.67,143.332 L 1071.67,136.668 L 1116.67,131.668 L 1161.67,128.332 L 1206.67,125.832 L 1251.67,124.168 L 1297.5,123.332 L 1342.5,125 L 1387.5,126.668 L 1432.5,130 L 1477.5,134.168 L 1522.5,140 L 1568.33,146.668 L 1613.33,154.168 L 1658.33,163.332 L 1703.33,174.168 L 1748.33,185 L 1793.33,198.332 L 1838.33,211.668 L 1884.17,226.668 L 1929.17,242.5 L 1974.17,260 L 2019.17,278.332 L 2064.17,298.332 L 2109.17,319.168 L 2155,340.832 L 2200,364.168 L 2245,388.332 L 2290,414.168 L 2335,440.832 L 2380,469.168 L 2425.83,497.5 L 2470.83,528.332 L 2515.83,559.168 L 2560.83,591.668 L 2605.83,625.832 L 2650.83,660.832 L 2696.67,696.668 L 2741.67,734.168 L 2786.67,772.5 L 2831.67,811.668 L 2876.67,852.5 L 2921.67,895 L 2967.5,937.5 L 3012.5,982.5 L 3057.5,1027.5 L 3102.5,1074.17 L 3147.5,1122.5 L 3192.5,1170.83 L 3237.5,1221.67 L 3283.33,1272.5 L 3328.33,1325 L 3373.33,1379.17 L 3418.33,1433.33 L 3463.33,1490 L 3508.33,1546.67 L 3554.17,1605 L 3599.17,1665 L 3644.17,1725.83 L 3689.17,1787.5 L 3734.17,1850.83 L 3779.17,1915 L 3825,1980 L 3870,2046.67 L 3915,2115 L 3960,2183.33 L 4005,2254.17 L 4050,2325 L 4095.83,2397.5 L 4140.83,2470.83 L 4185.83,2545.83 L 4230.83,2621.67 L 4275.83,2699.17 L 4320.83,2777.5 L 4366.67,2856.67 L 4411.67,2937.5 L 4456.67,3019.17 L 4501.67,3102.5 L 4546.67,3186.67 L 4591.67,3272.5 L 4637.5,3358.33"
             style="fill:none;stroke:#ff0000;stroke-opacity:1;stroke-width:15;stroke-linecap:butt;stroke-linejoin:round;stroke-miterlimit:10;stroke-dasharray:none"
             id="path231" /></g></g></g></g></svg>