<?xml version="1.0" encoding="UTF-8" standalone="no"?>
<!-- Created with Inkscape (http://www.inkscape.org/) -->
<svg
   xmlns:dc="http://purl.org/dc/elements/1.1/"
   xmlns:cc="http://creativecommons.org/ns#"
   xmlns:rdf="http://www.w3.org/1999/02/22-rdf-syntax-ns#"
   xmlns:svg="http://www.w3.org/2000/svg"
   xmlns="http://www.w3.org/2000/svg"
   xmlns:sodipodi="http://sodipodi.sourceforge.net/DTD/sodipodi-0.dtd"
   xmlns:inkscape="http://www.inkscape.org/namespaces/inkscape"
   id="svg2"
   sodipodi:version="0.32"
   inkscape:version="0.46"
   width="595"
   height="460"
   xml:space="preserve"
   sodipodi:docname="3rd.svg"
   inkscape:output_extension="org.inkscape.output.svg.inkscape"><metadata
     id="metadata7"><rdf:RDF><cc:Work
         rdf:about=""><dc:format>image/svg+xml</dc:format><dc:type
           rdf:resource="http://purl.org/dc/dcmitype/StillImage" /></cc:Work></rdf:RDF></metadata><defs
     id="defs5"><inkscape:perspective
       sodipodi:type="inkscape:persp3d"
       inkscape:vp_x="0 : 526.18109 : 1"
       inkscape:vp_y="0 : 1000 : 0"
       inkscape:vp_z="744.09448 : 526.18109 : 1"
       inkscape:persp3d-origin="372.04724 : 350.78739 : 1"
       id="perspective9" /><clipPath
       clipPathUnits="userSpaceOnUse"
       id="clipPath19"><path
         d="M 3.33203,1.66797 L 4760.002,1.66797 L 4760.002,3679.998 L 3.33203,3679.998 L 3.33203,1.66797 z"
         id="path21" /></clipPath><clipPath
       clipPathUnits="userSpaceOnUse"
       id="clipPath193"><path
         d="M 229.168,3645.83 L 229.168,122.5 L 4698.33,122.5 L 4698.33,3645.83 L 229.168,3645.83 z"
         id="path195" /></clipPath></defs><sodipodi:namedview
     inkscape:window-height="706"
     inkscape:window-width="1366"
     inkscape:pageshadow="2"
     inkscape:pageopacity="0.0"
     guidetolerance="10.0"
     gridtolerance="10.0"
     objecttolerance="10.0"
     borderopacity="1.0"
     bordercolor="#666666"
     pagecolor="#ffffff"
     id="base"
     showgrid="false"
     inkscape:zoom="0.91428571"
     inkscape:cx="297.5"
     inkscape:cy="230"
     inkscape:window-x="-8"
     inkscape:window-y="-8"
     inkscape:current-layer="g17" /><g
     id="g11"
     inkscape:groupmode="layer"
     inkscape:label="3rd"
     transform="matrix(1.25,0,0,-1.25,0,460)"><g
       id="g13"
       transform="scale(0.1,0.1)"><g
         id="g15"><g
           id="g17"
           clip-path="url(#clipPath19)"><path
             d="M 0,0 L 4760,0 L 4760,3680 L 0,3680 L 0,0 z"
             style="fill:#ffffff;fill-opacity:1;fill-rule:nonzero;stroke:none"
             id="path23" /><path
             d="M 229.168,123.332 L 4697.498,123.332 L 4697.498,3645.832 L 229.168,3645.832 L 229.168,123.332 z"
             style="fill:#ffffff;fill-opacity:1;fill-rule:evenodd;stroke:none"
             id="path25" /><path
             d="M 229.168,123.332 L 229.168,3645.83 L 4697.5,3645.83 L 4697.5,123.332 L 229.168,123.332"
             style="fill:none;stroke:#ffffff;stroke-opacity:1;stroke-width:5;stroke-linecap:butt;stroke-linejoin:round;stroke-miterlimit:10;stroke-dasharray:none"
             id="path27" /><path
             d="M 229.168,3645.83 L 4697.5,3645.83"
             style="fill:none;stroke:#000000;stroke-opacity:1;stroke-width:5;stroke-linecap:butt;stroke-linejoin:round;stroke-miterlimit:10;stroke-dasharray:none"
             id="path29" /><path
             d="M 229.168,123.332 L 4697.5,123.332"
             style="fill:none;stroke:#000000;stroke-opacity:1;stroke-width:5;stroke-linecap:butt;stroke-linejoin:round;stroke-miterlimit:10;stroke-dasharray:none"
             id="path31" /><path
             d="M 4697.5,123.332 L 4697.5,3645.83"
             style="fill:none;stroke:#000000;stroke-opacity:1;stroke-width:5;stroke-linecap:butt;stroke-linejoin:round;stroke-miterlimit:10;stroke-dasharray:none"
             id="path33" /><path
             d="M 229.168,123.332 L 229.168,3645.83"
             style="fill:none;stroke:#000000;stroke-opacity:1;stroke-width:5;stroke-linecap:butt;stroke-linejoin:round;stroke-miterlimit:10;stroke-dasharray:none"
             id="path35" /><path
             d="M 229.168,123.332 L 4697.5,123.332"
             style="fill:none;stroke:#000000;stroke-opacity:1;stroke-width:5;stroke-linecap:butt;stroke-linejoin:round;stroke-miterlimit:10;stroke-dasharray:none"
             id="path37" /><path
             d="M 229.168,123.332 L 229.168,3645.83"
             style="fill:none;stroke:#000000;stroke-opacity:1;stroke-width:5;stroke-linecap:butt;stroke-linejoin:round;stroke-miterlimit:10;stroke-dasharray:none"
             id="path39" /><path
             d="M 229.168,123.332 L 229.168,168.332"
             style="fill:none;stroke:#000000;stroke-opacity:1;stroke-width:5;stroke-linecap:butt;stroke-linejoin:round;stroke-miterlimit:10;stroke-dasharray:none"
             id="path41" /><path
             d="M 229.168,3645.83 L 229.168,3601.67"
             style="fill:none;stroke:#000000;stroke-opacity:1;stroke-width:5;stroke-linecap:butt;stroke-linejoin:round;stroke-miterlimit:10;stroke-dasharray:none"
             id="path43" /><g
             id="g45"
             transform="scale(10,10)"><text
               transform="matrix(1,0,0,-1,20.1668,0.25)"
               id="text47"><tspan
                 style="fill:#000000;fill-opacity:1;fill-rule:nonzero;stroke:none;font-family:Helvetica;font-variant:normal;font-weight:normal;font-size:10;writing-mode:lr;-inkscape-font-specification:Helvetica"
                 x="0"
                 y="0"
                 id="tspan49">0</tspan></text>
</g><path
             d="M 973.332,123.332 L 973.332,168.332"
             style="fill:none;stroke:#000000;stroke-opacity:1;stroke-width:5;stroke-linecap:butt;stroke-linejoin:round;stroke-miterlimit:10;stroke-dasharray:none"
             id="path51" /><path
             d="M 973.332,3645.83 L 973.332,3601.67"
             style="fill:none;stroke:#000000;stroke-opacity:1;stroke-width:5;stroke-linecap:butt;stroke-linejoin:round;stroke-miterlimit:10;stroke-dasharray:none"
             id="path53" /><path
             d="M 1718.33,123.332 L 1718.33,168.332"
             style="fill:none;stroke:#000000;stroke-opacity:1;stroke-width:5;stroke-linecap:butt;stroke-linejoin:round;stroke-miterlimit:10;stroke-dasharray:none"
             id="path61" /><path
             d="M 1718.33,3645.83 L 1718.33,3601.67"
             style="fill:none;stroke:#000000;stroke-opacity:1;stroke-width:5;stroke-linecap:butt;stroke-linejoin:round;stroke-miterlimit:10;stroke-dasharray:none"
             id="path63" /><g
             id="g65"
             transform="scale(10,10)"><text
               transform="matrix(1,0,0,-1,169.083,0.25)"
               id="text67"><tspan
                 style="fill:#000000;fill-opacity:1;fill-rule:nonzero;stroke:none;font-family:Helvetica;font-variant:normal;font-weight:normal;font-size:10;writing-mode:lr;-inkscape-font-specification:Helvetica"
                 x="0"
                 y="0"
                 id="tspan69">1</tspan></text>
</g><path
             d="M 2463.33,123.332 L 2463.33,168.332"
             style="fill:none;stroke:#000000;stroke-opacity:1;stroke-width:5;stroke-linecap:butt;stroke-linejoin:round;stroke-miterlimit:10;stroke-dasharray:none"
             id="path71" /><path
             d="M 2463.33,3645.83 L 2463.33,3601.67"
             style="fill:none;stroke:#000000;stroke-opacity:1;stroke-width:5;stroke-linecap:butt;stroke-linejoin:round;stroke-miterlimit:10;stroke-dasharray:none"
             id="path73" /><path
             d="M 3207.5,123.332 L 3207.5,168.332"
             style="fill:none;stroke:#000000;stroke-opacity:1;stroke-width:5;stroke-linecap:butt;stroke-linejoin:round;stroke-miterlimit:10;stroke-dasharray:none"
             id="path81" /><path
             d="M 3207.5,3645.83 L 3207.5,3601.67"
             style="fill:none;stroke:#000000;stroke-opacity:1;stroke-width:5;stroke-linecap:butt;stroke-linejoin:round;stroke-miterlimit:10;stroke-dasharray:none"
             id="path83" /><g
             id="g85"
             transform="scale(10,10)"><text
               transform="matrix(1,0,0,-1,318,0.25)"
               id="text87"><tspan
                 style="fill:#000000;fill-opacity:1;fill-rule:nonzero;stroke:none;font-family:Helvetica;font-variant:normal;font-weight:normal;font-size:10;writing-mode:lr;-inkscape-font-specification:Helvetica"
                 x="0"
                 y="0"
                 id="tspan89">2</tspan></text>
</g><path
             d="M 3952.5,123.332 L 3952.5,168.332"
             style="fill:none;stroke:#000000;stroke-opacity:1;stroke-width:5;stroke-linecap:butt;stroke-linejoin:round;stroke-miterlimit:10;stroke-dasharray:none"
             id="path91" /><path
             d="M 3952.5,3645.83 L 3952.5,3601.67"
             style="fill:none;stroke:#000000;stroke-opacity:1;stroke-width:5;stroke-linecap:butt;stroke-linejoin:round;stroke-miterlimit:10;stroke-dasharray:none"
             id="path93" /><path
             d="M 4697.5,123.332 L 4697.5,168.332"
             style="fill:none;stroke:#000000;stroke-opacity:1;stroke-width:5;stroke-linecap:butt;stroke-linejoin:round;stroke-miterlimit:10;stroke-dasharray:none"
             id="path101" /><path
             d="M 4697.5,3645.83 L 4697.5,3601.67"
             style="fill:none;stroke:#000000;stroke-opacity:1;stroke-width:5;stroke-linecap:butt;stroke-linejoin:round;stroke-miterlimit:10;stroke-dasharray:none"
             id="path103" /><g
             id="g105"
             transform="scale(10,10)"><text
               transform="matrix(1,0,0,-1,467,0.25)"
               id="text107"><tspan
                 style="fill:#000000;fill-opacity:1;fill-rule:nonzero;stroke:none;font-family:Helvetica;font-variant:normal;font-weight:normal;font-size:10;writing-mode:lr;-inkscape-font-specification:Helvetica"
                 x="0"
                 y="0"
                 id="tspan109">3</tspan></text>
</g><path
             d="M 229.168,411.668 L 273.332,411.668"
             style="fill:none;stroke:#000000;stroke-opacity:1;stroke-width:5;stroke-linecap:butt;stroke-linejoin:round;stroke-miterlimit:10;stroke-dasharray:none"
             id="path111" /><path
             d="M 4697.5,411.668 L 4652.5,411.668"
             style="fill:none;stroke:#000000;stroke-opacity:1;stroke-width:5;stroke-linecap:butt;stroke-linejoin:round;stroke-miterlimit:10;stroke-dasharray:none"
             id="path113" /><path
             d="M 229.168,909.168 L 273.332,909.168"
             style="fill:none;stroke:#000000;stroke-opacity:1;stroke-width:5;stroke-linecap:butt;stroke-linejoin:round;stroke-miterlimit:10;stroke-dasharray:none"
             id="path121" /><path
             d="M 4697.5,909.168 L 4652.5,909.168"
             style="fill:none;stroke:#000000;stroke-opacity:1;stroke-width:5;stroke-linecap:butt;stroke-linejoin:round;stroke-miterlimit:10;stroke-dasharray:none"
             id="path123" /><g
             id="g125"
             transform="scale(10,10)"><text
               transform="matrix(1,0,0,-1,14.5,87.25)"
               id="text127"><tspan
                 style="fill:#000000;fill-opacity:1;fill-rule:nonzero;stroke:none;font-family:Helvetica;font-variant:normal;font-weight:normal;font-size:10;writing-mode:lr;-inkscape-font-specification:Helvetica"
                 x="0"
                 y="0"
                 id="tspan129">0</tspan></text>
</g><path
             d="M 229.168,1406.67 L 273.332,1406.67"
             style="fill:none;stroke:#000000;stroke-opacity:1;stroke-width:5;stroke-linecap:butt;stroke-linejoin:round;stroke-miterlimit:10;stroke-dasharray:none"
             id="path131" /><path
             d="M 4697.5,1406.67 L 4652.5,1406.67"
             style="fill:none;stroke:#000000;stroke-opacity:1;stroke-width:5;stroke-linecap:butt;stroke-linejoin:round;stroke-miterlimit:10;stroke-dasharray:none"
             id="path133" /><path
             d="M 229.168,1904.17 L 273.332,1904.17"
             style="fill:none;stroke:#000000;stroke-opacity:1;stroke-width:5;stroke-linecap:butt;stroke-linejoin:round;stroke-miterlimit:10;stroke-dasharray:none"
             id="path141" /><path
             d="M 4697.5,1904.17 L 4652.5,1904.17"
             style="fill:none;stroke:#000000;stroke-opacity:1;stroke-width:5;stroke-linecap:butt;stroke-linejoin:round;stroke-miterlimit:10;stroke-dasharray:none"
             id="path143" /><path
             d="M 229.168,2401.67 L 273.332,2401.67"
             style="fill:none;stroke:#000000;stroke-opacity:1;stroke-width:5;stroke-linecap:butt;stroke-linejoin:round;stroke-miterlimit:10;stroke-dasharray:none"
             id="path151" /><path
             d="M 4697.5,2401.67 L 4652.5,2401.67"
             style="fill:none;stroke:#000000;stroke-opacity:1;stroke-width:5;stroke-linecap:butt;stroke-linejoin:round;stroke-miterlimit:10;stroke-dasharray:none"
             id="path153" /><path
             d="M 229.168,2900 L 273.332,2900"
             style="fill:none;stroke:#000000;stroke-opacity:1;stroke-width:5;stroke-linecap:butt;stroke-linejoin:round;stroke-miterlimit:10;stroke-dasharray:none"
             id="path161" /><path
             d="M 4697.5,2900 L 4652.5,2900"
             style="fill:none;stroke:#000000;stroke-opacity:1;stroke-width:5;stroke-linecap:butt;stroke-linejoin:round;stroke-miterlimit:10;stroke-dasharray:none"
             id="path163" /><path
             d="M 229.168,3397.5 L 273.332,3397.5"
             style="fill:none;stroke:#000000;stroke-opacity:1;stroke-width:5;stroke-linecap:butt;stroke-linejoin:round;stroke-miterlimit:10;stroke-dasharray:none"
             id="path171" /><path
             d="M 4697.5,3397.5 L 4652.5,3397.5"
             style="fill:none;stroke:#000000;stroke-opacity:1;stroke-width:5;stroke-linecap:butt;stroke-linejoin:round;stroke-miterlimit:10;stroke-dasharray:none"
             id="path173" /><g
             id="g175"
             transform="scale(10,10)"><text
               transform="matrix(1,0,0,-1,14.5,336.083)"
               id="text177"><tspan
                 style="fill:#000000;fill-opacity:1;fill-rule:nonzero;stroke:none;font-family:Helvetica;font-variant:normal;font-weight:normal;font-size:10;writing-mode:lr;-inkscape-font-specification:Helvetica"
                 x="0"
                 y="0"
                 id="tspan179">1</tspan></text>
</g><path
             d="M 229.168,3645.83 L 4697.5,3645.83"
             style="fill:none;stroke:#000000;stroke-opacity:1;stroke-width:5;stroke-linecap:butt;stroke-linejoin:round;stroke-miterlimit:10;stroke-dasharray:none"
             id="path181" /><path
             d="M 229.168,123.332 L 4697.5,123.332"
             style="fill:none;stroke:#000000;stroke-opacity:1;stroke-width:5;stroke-linecap:butt;stroke-linejoin:round;stroke-miterlimit:10;stroke-dasharray:none"
             id="path183" /><path
             d="M 4697.5,123.332 L 4697.5,3645.83"
             style="fill:none;stroke:#000000;stroke-opacity:1;stroke-width:5;stroke-linecap:butt;stroke-linejoin:round;stroke-miterlimit:10;stroke-dasharray:none"
             id="path185" /><path
             d="M 229.168,123.332 L 229.168,3645.83"
             style="fill:none;stroke:#000000;stroke-opacity:1;stroke-width:5;stroke-linecap:butt;stroke-linejoin:round;stroke-miterlimit:10;stroke-dasharray:none"
             id="path187" /></g></g><g
         id="g189"><g
           id="g191"
           clip-path="url(#clipPath193)"><path
             d="M 229.168,3397.5 L 274.168,3261.67 L 319.168,3130 L 364.168,3003.33 L 409.168,2880 L 454.168,2761.67 L 499.168,2647.5 L 545,2537.5 L 590,2431.67 L 635,2330 L 680,2231.67 L 725,2137.5 L 770,2047.5 L 815.832,1960.83 L 860.832,1878.33 L 905.832,1799.17 L 950.832,1723.33 L 995.832,1650.83 L 1040.83,1581.67 L 1086.67,1516.67 L 1131.67,1454.17 L 1176.67,1395 L 1221.67,1339.17 L 1266.67,1285.83 L 1311.67,1235.83 L 1357.5,1189.17 L 1402.5,1145 L 1447.5,1103.33 L 1492.5,1065 L 1537.5,1028.33 L 1582.5,995 L 1628.33,964.168 L 1673.33,935 L 1718.33,909.168 L 1763.33,885 L 1808.33,863.332 L 1853.33,843.332 L 1898.33,825.832 L 1944.17,810.832 L 1989.17,796.668 L 2034.17,785 L 2079.17,775 L 2124.17,766.668 L 2169.17,760 L 2215,755 L 2260,751.668 L 2305,750 L 2350,749.168 L 2395,750 L 2440,751.668 L 2485.83,755 L 2530.83,759.168 L 2575.83,765 L 2620.83,770.832 L 2665.83,778.332 L 2710.83,785.832 L 2756.67,795 L 2801.67,804.168 L 2846.67,814.168 L 2891.67,825 L 2936.67,835.832 L 2981.67,847.5 L 3027.5,859.168 L 3072.5,871.668 L 3117.5,884.168 L 3162.5,896.668 L 3207.5,909.168 L 3252.5,921.668 L 3297.5,934.168 L 3343.33,946.668 L 3388.33,958.332 L 3433.33,970 L 3478.33,981.668 L 3523.33,993.332 L 3568.33,1003.33 L 3614.17,1013.33 L 3659.17,1023.33 L 3704.17,1031.67 L 3749.17,1040 L 3794.17,1046.67 L 3839.17,1053.33 L 3885,1058.33 L 3930,1062.5 L 3975,1065.83 L 4020,1067.5 L 4065,1068.33 L 4110,1068.33 L 4155.83,1065.83 L 4200.83,1062.5 L 4245.83,1057.5 L 4290.83,1050.83 L 4335.83,1042.5 L 4380.83,1032.5 L 4426.67,1020.83 L 4471.67,1007.5 L 4516.67,991.668 L 4561.67,974.168 L 4606.67,955 L 4651.67,933.332 L 4697.5,909.168"
             style="fill:none;stroke:#0000ff;stroke-opacity:1;stroke-width:15;stroke-linecap:butt;stroke-linejoin:round;stroke-miterlimit:10;stroke-dasharray:none"
             id="path197" /><path
             d="M 229.168,909.168 L 274.168,1129.17 L 319.168,1339.17 L 364.168,1537.5 L 409.168,1725 L 454.168,1901.67 L 499.168,2068.33 L 545,2224.17 L 590,2370.83 L 635,2507.5 L 680,2634.17 L 725,2752.5 L 770,2860.83 L 815.832,2960.83 L 860.832,3051.67 L 905.832,3134.17 L 950.832,3207.5 L 995.832,3274.17 L 1040.83,3331.67 L 1086.67,3382.5 L 1131.67,3425 L 1176.67,3460.83 L 1221.67,3489.17 L 1266.67,3511.67 L 1311.67,3526.67 L 1357.5,3535 L 1402.5,3537.5 L 1447.5,3534.17 L 1492.5,3524.17 L 1537.5,3509.17 L 1582.5,3489.17 L 1628.33,3463.33 L 1673.33,3432.5 L 1718.33,3397.5 L 1763.33,3357.5 L 1808.33,3313.33 L 1853.33,3265 L 1898.33,3212.5 L 1944.17,3155.83 L 1989.17,3096.67 L 2034.17,3033.33 L 2079.17,2967.5 L 2124.17,2898.33 L 2169.17,2826.67 L 2215,2752.5 L 2260,2675.83 L 2305,2597.5 L 2350,2516.67 L 2395,2434.17 L 2440,2350.83 L 2485.83,2265.83 L 2530.83,2180 L 2575.83,2093.33 L 2620.83,2006.67 L 2665.83,1918.33 L 2710.83,1830.83 L 2756.67,1742.5 L 2801.67,1655 L 2846.67,1567.5 L 2891.67,1480.83 L 2936.67,1395 L 2981.67,1310 L 3027.5,1226.67 L 3072.5,1144.17 L 3117.5,1064.17 L 3162.5,985.832 L 3207.5,909.168 L 3252.5,835 L 3297.5,763.332 L 3343.33,694.168 L 3388.33,627.5 L 3433.33,565 L 3478.33,505 L 3523.33,449.168 L 3568.33,396.668 L 3614.17,348.332 L 3659.17,304.168 L 3704.17,264.168 L 3749.17,228.332 L 3794.17,197.5 L 3839.17,172.5 L 3885,151.668 L 3930,136.668 L 3975,127.5 L 4020,123.332 L 4065,125.832 L 4110,135 L 4155.83,150 L 4200.83,171.668 L 4245.83,200 L 4290.83,235.832 L 4335.83,279.168 L 4380.83,329.168 L 4426.67,387.5 L 4471.67,453.332 L 4516.67,527.5 L 4561.67,610 L 4606.67,700.832 L 4651.67,800 L 4697.5,909.168"
             style="fill:none;stroke:#008000;stroke-opacity:1;stroke-width:15;stroke-linecap:butt;stroke-linejoin:round;stroke-miterlimit:10;stroke-dasharray:none"
             id="path199" /><path
             d="M 229.168,909.168 L 274.168,800 L 319.168,700.832 L 364.168,610 L 409.168,527.5 L 454.168,453.332 L 499.168,387.5 L 545,329.168 L 590,279.168 L 635,235.832 L 680,200 L 725,171.668 L 770,150 L 815.832,135 L 860.832,125.832 L 905.832,123.332 L 950.832,127.5 L 995.832,136.668 L 1040.83,151.668 L 1086.67,172.5 L 1131.67,197.5 L 1176.67,228.332 L 1221.67,264.168 L 1266.67,304.168 L 1311.67,348.332 L 1357.5,396.668 L 1402.5,449.168 L 1447.5,505 L 1492.5,565 L 1537.5,627.5 L 1582.5,694.168 L 1628.33,763.332 L 1673.33,835 L 1718.33,909.168 L 1763.33,985.832 L 1808.33,1064.17 L 1853.33,1144.17 L 1898.33,1226.67 L 1944.17,1310 L 1989.17,1395 L 2034.17,1480.83 L 2079.17,1567.5 L 2124.17,1655 L 2169.17,1742.5 L 2215,1830.83 L 2260,1918.33 L 2305,2006.67 L 2350,2093.33 L 2395,2180 L 2440,2265.83 L 2485.83,2350.83 L 2530.83,2434.17 L 2575.83,2516.67 L 2620.83,2597.5 L 2665.83,2675.83 L 2710.83,2752.5 L 2756.67,2826.67 L 2801.67,2898.33 L 2846.67,2967.5 L 2891.67,3033.33 L 2936.67,3096.67 L 2981.67,3155.83 L 3027.5,3212.5 L 3072.5,3265 L 3117.5,3313.33 L 3162.5,3357.5 L 3207.5,3397.5 L 3252.5,3432.5 L 3297.5,3463.33 L 3343.33,3489.17 L 3388.33,3509.17 L 3433.33,3524.17 L 3478.33,3534.17 L 3523.33,3537.5 L 3568.33,3535 L 3614.17,3526.67 L 3659.17,3511.67 L 3704.17,3489.17 L 3749.17,3460.83 L 3794.17,3425 L 3839.17,3382.5 L 3885,3331.67 L 3930,3274.17 L 3975,3207.5 L 4020,3134.17 L 4065,3051.67 L 4110,2960.83 L 4155.83,2860.83 L 4200.83,2752.5 L 4245.83,2634.17 L 4290.83,2507.5 L 4335.83,2370.83 L 4380.83,2224.17 L 4426.67,2068.33 L 4471.67,1901.67 L 4516.67,1725 L 4561.67,1537.5 L 4606.67,1339.17 L 4651.67,1129.17 L 4697.5,909.168"
             style="fill:none;stroke:#ff0000;stroke-opacity:1;stroke-width:15;stroke-linecap:butt;stroke-linejoin:round;stroke-miterlimit:10;stroke-dasharray:none"
             id="path201" /><path
             d="M 229.168,909.168 L 274.168,933.332 L 319.168,955 L 364.168,974.168 L 409.168,991.668 L 454.168,1007.5 L 499.168,1020.83 L 545,1032.5 L 590,1042.5 L 635,1050.83 L 680,1057.5 L 725,1062.5 L 770,1065.83 L 815.832,1068.33 L 860.832,1068.33 L 905.832,1067.5 L 950.832,1065.83 L 995.832,1062.5 L 1040.83,1058.33 L 1086.67,1053.33 L 1131.67,1046.67 L 1176.67,1040 L 1221.67,1031.67 L 1266.67,1023.33 L 1311.67,1013.33 L 1357.5,1003.33 L 1402.5,993.332 L 1447.5,981.668 L 1492.5,970 L 1537.5,958.332 L 1582.5,946.668 L 1628.33,934.168 L 1673.33,921.668 L 1718.33,909.168 L 1763.33,896.668 L 1808.33,884.168 L 1853.33,871.668 L 1898.33,859.168 L 1944.17,847.5 L 1989.17,835.832 L 2034.17,825 L 2079.17,814.168 L 2124.17,804.168 L 2169.17,795 L 2215,785.832 L 2260,778.332 L 2305,770.832 L 2350,765 L 2395,759.168 L 2440,755 L 2485.83,751.668 L 2530.83,750 L 2575.83,749.168 L 2620.83,750 L 2665.83,751.668 L 2710.83,755 L 2756.67,760 L 2801.67,766.668 L 2846.67,775 L 2891.67,785 L 2936.67,796.668 L 2981.67,810.832 L 3027.5,825.832 L 3072.5,843.332 L 3117.5,863.332 L 3162.5,885 L 3207.5,909.168 L 3252.5,935 L 3297.5,964.168 L 3343.33,995 L 3388.33,1028.33 L 3433.33,1065 L 3478.33,1103.33 L 3523.33,1145 L 3568.33,1189.17 L 3614.17,1235.83 L 3659.17,1285.83 L 3704.17,1339.17 L 3749.17,1395 L 3794.17,1454.17 L 3839.17,1516.67 L 3885,1581.67 L 3930,1650.83 L 3975,1723.33 L 4020,1799.17 L 4065,1878.33 L 4110,1960.83 L 4155.83,2047.5 L 4200.83,2137.5 L 4245.83,2231.67 L 4290.83,2330 L 4335.83,2431.67 L 4380.83,2537.5 L 4426.67,2647.5 L 4471.67,2761.67 L 4516.67,2880 L 4561.67,3003.33 L 4606.67,3130 L 4651.67,3261.67 L 4697.5,3397.5"
             style="fill:none;stroke:#00c0c0;stroke-opacity:1;stroke-width:15;stroke-linecap:butt;stroke-linejoin:round;stroke-miterlimit:10;stroke-dasharray:none"
             id="path203" /></g></g></g></g></svg>